<svg width="92" height="92" viewBox="0 0 92 92" fill="none" xmlns="http://www.w3.org/2000/svg">
<path d="M0 46C0 20.595 20.595 0 46 0C71.405 0 92 20.595 92 46C92 71.405 71.405 92 46 92C20.595 92 0 71.405 0 46Z" fill="white"/>
<path d="M46 33.7741C49.7431 33.7741 52.2679 35.391 53.7077 36.7421L59.3333 31.2493C55.8782 28.0378 51.382 26.0667 46 26.0667C38.204 26.0667 31.4709 30.5405 28.1931 37.052L34.638 42.0576C36.2549 37.2514 40.7288 33.7741 46 33.7741Z" fill="#EA4335"/>
<path d="M65.136 46.443C65.136 44.804 65.0032 43.608 64.7151 42.3677H46V49.7651H56.9856C56.764 51.6034 55.568 54.372 52.9102 56.2323L59.2003 61.1051C62.9656 57.6277 65.136 52.5115 65.136 46.443Z" fill="#4285F4"/>
<path d="M34.6602 49.9424C34.2393 48.7021 33.9956 47.3731 33.9956 46C33.9956 44.6267 34.2393 43.2979 34.6379 42.0576L28.1927 37.052C26.8419 39.7541 26.0666 42.7884 26.0666 46C26.0666 49.2114 26.8419 52.2458 28.1927 54.9478L34.6602 49.9424Z" fill="#FBBC05"/>
<path d="M46 65.9333C51.382 65.9333 55.9001 64.1616 59.2002 61.105L52.9101 56.2325C51.2269 57.4063 48.9677 58.2258 46 58.2258C40.7288 58.2258 36.2549 54.7484 34.6602 49.9424L28.215 54.9478C31.4929 61.4594 38.2037 65.9333 46 65.9333Z" fill="#34A853"/>
</svg>
