<svg width="250" height="250" viewBox="0 0 250 250" fill="none" xmlns="http://www.w3.org/2000/svg">
<path opacity="0.5" d="M125 250C194.036 250 250 194.036 250 125C250 55.9644 194.036 0 125 0C55.9644 0 0 55.9644 0 125C0 194.036 55.9644 250 125 250Z" fill="#A52422"/>
<path opacity="0.5" d="M124.5 228C181.109 228 227 182.109 227 125.5C227 68.8908 181.109 23 124.5 23C67.8908 23 22 68.8908 22 125.5C22 182.109 67.8908 228 124.5 228Z" fill="#A52422"/>
<path opacity="0.5" d="M124.5 209C170.616 209 208 171.616 208 125.5C208 79.3842 170.616 42 124.5 42C78.3842 42 41 79.3842 41 125.5C41 171.616 78.3842 209 124.5 209Z" fill="#A52422"/>
<path d="M124.5 190C160.122 190 189 161.122 189 125.5C189 89.8776 160.122 61 124.5 61C88.8776 61 60 89.8776 60 125.5C60 161.122 88.8776 190 124.5 190Z" fill="#A52422"/>
<path d="M138.719 121.438V127.531C138.719 131.302 137.221 134.919 134.554 137.585C131.888 140.252 128.271 141.75 124.5 141.75C120.729 141.75 117.112 140.252 114.446 137.585C111.779 134.919 110.281 131.302 110.281 127.531V121.438H106.219V127.531C106.221 132.027 107.879 136.363 110.877 139.713C113.875 143.063 118.001 145.191 122.469 145.691V149.875H114.344V153.938H134.656V149.875H126.531V145.691C130.999 145.191 135.125 143.063 138.123 139.713C141.121 136.363 142.779 132.027 142.781 127.531V121.438H138.719Z" fill="white"/>
<path d="M124.5 137.688C127.194 137.688 129.777 136.617 131.682 134.713C133.586 132.808 134.656 130.225 134.656 127.531V107.219C134.656 104.525 133.586 101.942 131.682 100.037C129.777 98.1325 127.194 97.0625 124.5 97.0625C121.806 97.0625 119.223 98.1325 117.318 100.037C115.414 101.942 114.344 104.525 114.344 107.219V127.531C114.344 130.225 115.414 132.808 117.318 134.713C119.223 136.617 121.806 137.688 124.5 137.688Z" fill="white"/>
</svg>
