<svg width="662" height="576" viewBox="0 0 662 576" fill="none" xmlns="http://www.w3.org/2000/svg">
<g clip-path="url(#clip0)">
<path d="M662 568.859L188.109 576L0 542.677H293.664L662 568.859Z" fill="#E6E6E6"/>
<path d="M585.71 151.537C627.577 151.537 661.517 117.614 661.517 75.7686C661.517 33.9228 627.577 0 585.71 0C543.843 0 509.903 33.9228 509.903 75.7686C509.903 117.614 543.843 151.537 585.71 151.537Z" fill="#A52422"/>
<path d="M134.105 546.638C134.105 546.638 135.213 523.415 157.945 526.114L134.105 546.638Z" fill="#3F3D56"/>
<path d="M127.682 524.538C133.965 524.538 139.059 519.447 139.059 513.167C139.059 506.887 133.965 501.796 127.682 501.796C121.398 501.796 116.305 506.887 116.305 513.167C116.305 519.447 121.398 524.538 127.682 524.538Z" fill="#A52422"/>
<path d="M129.042 532.316H125.83V554.785H129.042V532.316Z" fill="#3F3D56"/>
<path d="M508.772 550.605C508.772 550.605 509.881 527.382 532.613 530.081L508.772 550.605Z" fill="#3F3D56"/>
<path d="M502.349 528.505C508.633 528.505 513.726 523.414 513.726 517.134C513.726 510.854 508.633 505.763 502.349 505.763C496.066 505.763 490.972 510.854 490.972 517.134C490.972 523.414 496.066 528.505 502.349 528.505Z" fill="#A52422"/>
<path d="M503.71 536.283H500.498V558.752H503.71V536.283Z" fill="#3F3D56"/>
<path d="M563.544 554.572C563.544 554.572 564.652 531.349 587.384 534.048L563.544 554.572Z" fill="#3F3D56"/>
<path d="M557.121 532.472C563.404 532.472 568.498 527.381 568.498 521.101C568.498 514.821 563.404 509.73 557.121 509.73C550.837 509.73 545.744 514.821 545.744 521.101C545.744 527.381 550.837 532.472 557.121 532.472Z" fill="#A52422"/>
<path d="M558.481 540.25H555.269V562.718H558.481V540.25Z" fill="#3F3D56"/>
<path d="M223.803 535.53C223.803 535.53 224.911 512.307 247.643 515.007L223.803 535.53Z" fill="#3F3D56"/>
<path d="M217.38 513.431C223.663 513.431 228.757 508.34 228.757 502.06C228.757 495.779 223.663 490.688 217.38 490.688C211.096 490.688 206.003 495.779 206.003 502.06C206.003 508.34 211.096 513.431 217.38 513.431Z" fill="#A52422"/>
<path d="M218.74 521.208H215.528V543.677H218.74V521.208Z" fill="#3F3D56"/>
<path d="M54.7258 539.497C54.7258 539.497 55.8347 516.274 78.5663 518.974L54.7258 539.497Z" fill="#3F3D56"/>
<path d="M48.3029 517.398C54.5863 517.398 59.6799 512.307 59.6799 506.026C59.6799 499.746 54.5863 494.655 48.3029 494.655C42.0195 494.655 36.9259 499.746 36.9259 506.026C36.9259 512.307 42.0195 517.398 48.3029 517.398Z" fill="#A52422"/>
<path d="M49.6631 525.175H46.4517V547.644H49.6631V525.175Z" fill="#3F3D56"/>
<path d="M329.8 499.143C398.258 499.143 453.754 443.675 453.754 375.251C453.754 306.827 398.258 251.359 329.8 251.359C261.342 251.359 205.846 306.827 205.846 375.251C205.846 443.675 261.342 499.143 329.8 499.143Z" fill="#3F3D56"/>
<path d="M251.763 385.196C254.842 381.513 258.692 378.55 263.042 376.516C267.392 374.483 272.135 373.429 276.937 373.429C281.739 373.429 286.483 374.483 290.833 376.516C295.183 378.55 299.033 381.513 302.111 385.196C307.379 380.17 311.02 373.682 312.565 366.569C314.11 359.456 313.488 352.043 310.779 345.286C308.07 338.53 303.399 332.738 297.367 328.659C291.336 324.58 284.22 322.401 276.937 322.401C269.655 322.401 262.539 324.58 256.507 328.659C250.476 332.738 245.804 338.53 243.096 345.286C240.387 352.043 239.765 359.456 241.31 366.569C242.855 373.682 246.496 380.17 251.763 385.196Z" fill="white"/>
<path d="M350.197 385.196C353.276 381.513 357.126 378.55 361.476 376.516C365.826 374.483 370.569 373.429 375.371 373.429C380.173 373.429 384.917 374.483 389.267 376.516C393.617 378.55 397.467 381.513 400.545 385.196C405.813 380.17 409.454 373.682 410.999 366.569C412.544 359.456 411.922 352.043 409.213 345.286C406.504 338.53 401.833 332.739 395.801 328.66C389.77 324.581 382.654 322.401 375.371 322.401C368.089 322.401 360.973 324.581 354.941 328.66C348.91 332.739 344.239 338.53 341.53 345.286C338.821 352.043 338.199 359.456 339.744 366.569C341.289 373.682 344.93 380.17 350.197 385.196Z" fill="white"/>
<path d="M264.501 358.966C271.427 358.966 277.041 353.354 277.041 346.431C277.041 339.509 271.427 333.897 264.501 333.897C257.574 333.897 251.96 339.509 251.96 346.431C251.96 353.354 257.574 358.966 264.501 358.966Z" fill="#3F3D56"/>
<path d="M362.931 358.966C369.857 358.966 375.472 353.354 375.472 346.431C375.472 339.509 369.857 333.897 362.931 333.897C356.005 333.897 350.39 339.509 350.39 346.431C350.39 353.354 356.005 358.966 362.931 358.966Z" fill="#3F3D56"/>
<path opacity="0.5" d="M240.48 420.8C248.534 420.8 255.063 414.274 255.063 406.224C255.063 398.174 248.534 391.649 240.48 391.649C232.426 391.649 225.897 398.174 225.897 406.224C225.897 414.274 232.426 420.8 240.48 420.8Z" fill="#FACDD0"/>
<path opacity="0.5" d="M408.183 420.8C416.237 420.8 422.766 414.274 422.766 406.224C422.766 398.174 416.237 391.649 408.183 391.649C400.129 391.649 393.6 398.174 393.6 406.224C393.6 414.274 400.129 420.8 408.183 420.8Z" fill="#FACDD0"/>
<path opacity="0.5" d="M324.331 377.073L313.394 424.443L331.623 406.224L324.331 377.073Z" fill="#FACDD0"/>
<path d="M380.529 559.267L368.112 548.851L368.401 559.267H364.545L364.237 548.253L347.471 559.267H340.453L364.111 543.725L363.195 511.088L362.51 486.44L366.357 486.334L367.052 511.088L367.967 543.695L386.525 559.267H380.529Z" fill="#3F3D56"/>
<path d="M322.193 559.267L309.776 548.851L310.066 559.267H306.219L305.911 548.253L289.145 559.267H282.127L305.776 543.725L304.86 511.088L304.175 486.44L308.031 486.334L308.726 511.088L309.632 543.695L328.19 559.267H322.193Z" fill="#3F3D56"/>
<path d="M331.623 242.25C328.222 242.25 325.221 244.89 323.215 248.946C321.447 242.847 317.732 238.606 313.394 238.606C313.099 238.635 312.807 238.684 312.519 238.753C310.851 232.241 306.976 227.674 302.457 227.674C296.417 227.674 291.52 235.831 291.52 245.893C291.52 255.956 296.417 264.113 302.457 264.113C302.752 264.084 303.045 264.034 303.333 263.966C305 270.478 308.876 275.044 313.394 275.044C316.795 275.044 319.796 272.404 321.802 268.348C323.57 274.447 327.285 278.688 331.623 278.688C337.663 278.688 342.56 270.531 342.56 260.469C342.56 250.407 337.663 242.25 331.623 242.25Z" fill="#3F3D56"/>
<path d="M213.453 422.201C208.665 422.201 203.925 421.258 199.502 419.427C195.078 417.596 191.059 414.912 187.674 411.528C184.289 408.144 181.603 404.127 179.771 399.706C177.939 395.286 176.996 390.547 176.996 385.762V367.542C176.996 357.878 180.837 348.61 187.674 341.776C194.511 334.943 203.784 331.104 213.453 331.104V422.201Z" fill="#A52422"/>
<path d="M446.147 331.104C450.935 331.104 455.675 332.046 460.099 333.877C464.522 335.709 468.541 338.393 471.926 341.776C475.311 345.16 477.997 349.177 479.829 353.598C481.661 358.019 482.604 362.757 482.604 367.542V385.762C482.604 390.547 481.661 395.285 479.829 399.706C477.997 404.127 475.311 408.144 471.926 411.528C468.541 414.912 464.522 417.596 460.099 419.427C455.675 421.258 450.935 422.201 446.147 422.201V331.104H446.147Z" fill="#A52422"/>
<path opacity="0.5" d="M465.251 370.405H459.467C459.467 297.084 399.785 237.432 326.426 237.432C253.067 237.432 193.385 297.084 193.385 370.405H187.601C187.601 293.896 249.877 231.65 326.426 231.65C402.975 231.65 465.251 293.896 465.251 370.405Z" fill="#A52422"/>
<path d="M127.921 258.976L127.922 258.974L125.204 257.843L113.738 252.998L109.628 251.262L109.313 252.057L103.792 265.99L119.329 272.563L119.411 272.637L118.364 275.105C118.221 275.331 118.098 275.569 117.999 275.817C117.265 277.668 118.65 279.509 119.96 280.027C121.27 280.546 122.926 279.466 123.659 277.615C124.383 275.789 123.676 273.469 122.4 272.909L122.401 272.907L119.683 271.776L110.387 268.164L115.699 254.759L114.911 254.447L109.598 267.857L108.448 267.41L113.782 253.948L113.923 254.008L124.85 258.63L124.932 258.704L123.885 261.172C123.742 261.398 123.619 261.636 123.52 261.884C122.786 263.735 124.171 265.576 125.481 266.095C126.79 266.613 128.447 265.533 129.18 263.682C129.904 261.856 129.197 259.536 127.921 258.976Z" fill="#3F3D56"/>
<path d="M181.699 293.181C176.059 289.958 177.188 282.885 177.188 282.885C177.046 278.29 173.247 278.94 173.247 278.94L171.865 279.256C171.223 278.958 170.516 278.827 169.809 278.876L167.707 279.229C172.495 280.354 172.102 284.358 172.102 284.358L172.772 289.039L160.226 283.98L161.666 280.585C161.865 280.271 162.035 279.94 162.174 279.596C163.192 277.025 161.268 274.468 159.449 273.748C157.631 273.028 155.33 274.528 154.311 277.099C153.307 279.635 154.289 282.856 156.061 283.635L156.06 283.638L159.834 285.209L159.862 285.12L181.699 293.181ZM175.328 284.956L175.73 289.437C174.31 287.445 173.642 285.013 173.847 282.575C173.814 281.708 173.521 280.871 173.007 280.171C173.797 280.678 174.432 281.392 174.842 282.237C175.252 283.081 175.42 284.022 175.328 284.956V284.956Z" fill="#3F3D56"/>
<path d="M85.9918 226.915L85.9933 226.912L82.2189 225.341L66.4443 219.212L70.4257 215.671C71.2046 214.633 72.3548 213.937 73.6357 213.727C74.9166 213.517 76.2291 213.811 77.2986 214.546L76.0631 212.71C76.0631 212.71 73.7404 209.637 70.4891 212.889C70.4891 212.889 66.4662 218.816 60.1473 217.305L81.7277 226.435L81.841 226.537L80.3868 229.964C80.1876 230.278 80.0178 230.609 79.8793 230.954C78.8607 233.524 80.7847 236.082 82.6035 236.802C84.4224 237.522 86.7227 236.021 87.7415 233.45C88.7462 230.915 87.7642 227.693 85.9918 226.915Z" fill="#3F3D56"/>
<path d="M143.743 206.855L142.289 210.282C142.09 210.596 141.92 210.927 141.781 211.271C140.763 213.842 142.687 216.399 144.505 217.119C146.324 217.839 148.625 216.339 149.643 213.768C150.648 211.232 149.666 208.011 147.894 207.232L147.895 207.229L144.121 205.658L131.209 200.642L138.587 182.024L137.493 181.591L130.113 200.216L128.517 199.595L135.925 180.898L136.121 180.98L151.298 187.401L151.411 187.503L149.957 190.931C149.758 191.244 149.588 191.575 149.449 191.92C148.431 194.491 150.355 197.048 152.174 197.768C153.992 198.488 156.293 196.987 157.311 194.417C158.316 191.881 157.334 188.659 155.562 187.881L155.563 187.878L151.789 186.307L136.365 179.79L136.364 179.789L135.864 179.578L130.155 177.166L122.049 197.623L143.63 206.752L143.743 206.855Z" fill="#3F3D56"/>
<path d="M75.3543 102.087L75.3569 102.081L68.8596 99.3771L41.7045 88.8262L48.5582 82.7316C48.5582 82.7316 53.1171 76.4093 60.3894 80.7945L58.2627 77.635C58.2627 77.635 54.2642 72.3441 48.6674 77.942C48.6674 77.942 41.7423 88.146 30.8646 85.545L68.0139 101.26L68.2089 101.437L65.7056 107.337C65.3629 107.876 65.0705 108.446 64.8321 109.039C63.0785 113.465 66.3906 117.867 69.5216 119.107C72.6526 120.346 76.6126 117.763 78.3663 113.338C80.0959 108.972 78.4055 103.427 75.3543 102.087Z" fill="#3F3D56"/>
<path d="M95.2939 190.715C81.8083 183.008 84.5069 166.097 84.5069 166.097C84.1676 155.11 75.0861 156.665 75.0861 156.665L71.7809 157.419C70.2455 156.707 68.5548 156.394 66.8661 156.511L61.8383 157.356C73.2869 160.045 72.3463 169.617 72.3463 169.617L73.9502 180.81L43.952 168.714L47.3962 160.597C47.8722 159.848 48.2784 159.056 48.6095 158.232C51.0451 152.085 46.445 145.971 42.0962 144.25C37.7474 142.528 32.2475 146.116 29.8119 152.263C27.4094 158.325 29.7573 166.028 33.9951 167.889L33.9915 167.896L43.0156 171.652L43.0828 171.44L95.2939 190.715ZM80.0603 171.049L81.0256 181.799C75.3616 174.284 76.5193 165.356 76.5193 165.356C76.4395 163.282 75.7397 161.28 74.5103 159.608C81.0166 163.5 80.0603 171.049 80.0603 171.049H80.0603Z" fill="#3F3D56"/>
</g>
<defs>
<clipPath id="clip0">
<rect width="662" height="576" fill="white"/>
</clipPath>
</defs>
</svg>
