<svg width="972" height="800" viewBox="0 0 972 800" fill="none" xmlns="http://www.w3.org/2000/svg">
<path d="M81.2517 717.112C8.8094 606.12 24.304 438.523 110.274 378.917C227.746 297.47 79.8971 169.303 282.778 81.7451C367.224 45.3003 465.702 121.864 551.333 125.186C628.064 128.163 707.439 60.7259 785.345 91.9659C837.444 109.95 898.362 172.189 894.478 232.533C892.471 263.715 847.912 339.295 912.469 405.332C1000.57 495.458 954.801 624.359 913.527 715.712C913.531 715.705 81.2517 717.112 81.2517 717.112Z" fill="#E3EAFF"/>
<path d="M184.285 342.542C184.104 342.542 183.919 342.507 183.74 342.434C182.973 342.12 182.595 341.219 182.897 340.422C183.659 338.404 184.639 336.324 185.811 334.236C186.226 333.496 187.14 333.246 187.852 333.678C188.564 334.11 188.804 335.06 188.389 335.801C187.294 337.751 186.381 339.688 185.674 341.558C185.443 342.168 184.881 342.542 184.285 342.542ZM190.667 331.051C190.35 331.051 190.031 330.946 189.76 330.73C189.106 330.209 188.983 329.235 189.484 328.554C190.828 326.73 192.281 324.993 193.802 323.392C194.381 322.782 195.326 322.775 195.912 323.378C196.499 323.98 196.505 324.962 195.926 325.572C194.492 327.082 193.121 328.721 191.853 330.443C191.559 330.842 191.116 331.051 190.667 331.051ZM263.232 324.484C262.414 324.484 261.568 324.466 260.72 324.43C259.896 324.396 259.256 323.674 259.289 322.817C259.322 321.96 260.017 321.294 260.84 321.329C263.019 321.421 265.116 321.388 267.058 321.233C267.88 321.167 268.597 321.807 268.66 322.662C268.723 323.516 268.108 324.262 267.287 324.328C265.99 324.432 264.625 324.484 263.232 324.484ZM254.41 323.862C254.347 323.862 254.283 323.858 254.219 323.85C252.151 323.575 249.992 323.207 247.805 322.756C246.996 322.589 246.471 321.773 246.631 320.932C246.791 320.091 247.576 319.544 248.385 319.711C250.506 320.148 252.596 320.505 254.597 320.771C255.415 320.88 255.993 321.657 255.888 322.507C255.793 323.291 255.15 323.862 254.41 323.862ZM273.482 323.304C272.814 323.304 272.205 322.833 272.036 322.128C271.836 321.297 272.322 320.454 273.121 320.246C275.203 319.704 277.092 318.959 278.736 318.034C279.46 317.625 280.366 317.906 280.759 318.659C281.151 319.413 280.882 320.355 280.157 320.763C278.294 321.813 276.171 322.652 273.846 323.257C273.724 323.289 273.602 323.304 273.482 323.304ZM199.658 321.633C199.208 321.633 198.763 321.423 198.47 321.022C197.97 320.34 198.096 319.367 198.752 318.847C200.568 317.407 202.45 316.153 204.345 315.122C205.075 314.724 205.976 315.017 206.359 315.776C206.741 316.535 206.46 317.473 205.73 317.871C203.983 318.822 202.245 319.981 200.561 321.315C200.291 321.53 199.973 321.633 199.658 321.633ZM241.86 321.301C241.736 321.301 241.611 321.285 241.485 321.252C239.429 320.698 237.336 320.075 235.264 319.397C234.478 319.139 234.041 318.268 234.288 317.45C234.535 316.633 235.373 316.178 236.159 316.436C238.183 317.097 240.226 317.706 242.233 318.246C243.031 318.461 243.51 319.307 243.304 320.137C243.13 320.838 242.524 321.301 241.86 321.301ZM229.659 317.315C229.487 317.315 229.311 317.283 229.141 317.217C228.38 316.924 227.634 316.628 226.903 316.329C225.705 315.839 224.483 315.445 223.271 315.156C222.467 314.965 221.965 314.133 222.149 313.297C222.333 312.462 223.133 311.939 223.936 312.13C225.293 312.454 226.658 312.894 227.994 313.44C228.707 313.731 229.436 314.02 230.178 314.307C230.951 314.605 231.345 315.498 231.059 316.301C230.835 316.927 230.265 317.315 229.659 317.315ZM284.459 316.882C284.105 316.882 283.75 316.752 283.465 316.487C282.85 315.916 282.798 314.934 283.347 314.296C284.485 312.972 285.42 311.44 286.126 309.742C286.453 308.956 287.331 308.593 288.088 308.934C288.844 309.274 289.193 310.187 288.865 310.974C288.032 312.979 286.924 314.793 285.572 316.366C285.277 316.708 284.869 316.882 284.459 316.882ZM210.958 315.573C210.306 315.573 209.708 315.126 209.522 314.442C209.298 313.617 209.76 312.76 210.553 312.527C212.761 311.879 215.001 311.515 217.211 311.444C218.034 311.418 218.723 312.091 218.748 312.948C218.773 313.805 218.126 314.52 217.302 314.547C215.335 314.61 213.337 314.935 211.364 315.514C211.228 315.554 211.092 315.573 210.958 315.573Z" fill="white"/>
<path d="M181.785 336.766L185.519 343.073L153.65 365.863L181.785 336.766Z" fill="#BDCDFF"/>
<path d="M188.839 350.648L186.931 357.905L155.067 364.813L188.839 350.648Z" fill="#BDCDFF"/>
<path d="M153.65 365.863L207.46 346.56L188.802 339.815L153.65 365.863Z" fill="white"/>
<path d="M181.785 336.766L153.65 365.864L170.057 331.668L181.785 336.766Z" fill="white"/>
<path d="M376.966 248.506C376.637 248.506 376.307 248.401 376.021 248.184C375.308 247.641 375.153 246.599 375.676 245.857C376.798 244.263 377.945 242.692 379.083 241.19C379.63 240.467 380.637 240.343 381.331 240.912C382.025 241.481 382.145 242.528 381.598 243.25C380.483 244.723 379.36 246.262 378.259 247.825C377.945 248.27 377.459 248.506 376.966 248.506ZM384.708 238.387C384.336 238.387 383.962 238.253 383.659 237.98C382.992 237.376 382.92 236.324 383.5 235.63C385.041 233.785 386.62 231.994 388.192 230.306C388.807 229.645 389.82 229.628 390.455 230.268C391.09 230.908 391.107 231.962 390.492 232.622C388.96 234.267 387.421 236.014 385.917 237.814C385.601 238.193 385.156 238.387 384.708 238.387ZM394.258 228.158C393.824 228.158 393.392 227.975 393.076 227.616C392.48 226.937 392.525 225.884 393.178 225.263C394.915 223.613 396.697 222.03 398.475 220.558C399.167 219.986 400.174 220.105 400.725 220.824C401.275 221.544 401.161 222.591 400.469 223.164C398.747 224.589 397.021 226.122 395.338 227.722C395.03 228.013 394.644 228.158 394.258 228.158ZM568.245 222.124C567.722 222.124 567.198 222.116 566.674 222.1C566.227 222.087 565.78 222.072 565.333 222.055C564.45 222.022 563.759 221.249 563.792 220.33C563.824 219.411 564.568 218.693 565.45 218.727C565.889 218.744 566.327 218.758 566.767 218.772C567.26 218.787 567.753 218.794 568.246 218.794C568.246 218.794 568.247 218.794 568.248 218.794C569.527 218.794 570.835 218.743 572.133 218.643C573.015 218.575 573.783 219.264 573.848 220.18C573.914 221.098 573.252 221.896 572.37 221.964C570.991 222.07 569.604 222.124 568.245 222.124ZM558.54 221.663C558.501 221.663 558.462 221.662 558.422 221.659C556.178 221.488 553.86 221.272 551.534 221.015C550.655 220.918 550.017 220.098 550.11 219.184C550.204 218.269 550.992 217.607 551.872 217.704C554.164 217.957 556.446 218.17 558.655 218.338C559.537 218.405 560.2 219.202 560.135 220.12C560.073 220.995 559.371 221.663 558.54 221.663ZM579.04 221.024C578.287 221.024 577.617 220.47 577.469 219.672C577.302 218.77 577.871 217.897 578.74 217.723C580.861 217.3 583.047 216.741 585.238 216.062C586.085 215.799 586.977 216.301 587.23 217.182C587.482 218.063 587 218.99 586.152 219.253C583.86 219.964 581.568 220.549 579.343 220.994C579.241 221.014 579.14 221.024 579.04 221.024ZM544.891 220.167C544.82 220.167 544.748 220.162 544.675 220.152C542.472 219.843 540.175 219.489 537.847 219.102C536.973 218.956 536.379 218.102 536.519 217.194C536.658 216.286 537.48 215.668 538.353 215.814C540.655 216.197 542.927 216.546 545.104 216.852C545.98 216.976 546.594 217.814 546.476 218.726C546.367 219.561 545.68 220.167 544.891 220.167ZM404.992 219.296C404.48 219.296 403.977 219.04 403.667 218.566C403.17 217.806 403.36 216.77 404.091 216.254C406.031 214.882 408.027 213.591 410.023 212.414C410.792 211.961 411.769 212.242 412.205 213.042C412.641 213.843 412.37 214.859 411.601 215.312C409.681 216.443 407.76 217.687 405.891 219.007C405.615 219.202 405.302 219.296 404.992 219.296ZM531.337 217.921C531.242 217.921 531.146 217.913 531.05 217.894C528.883 217.487 526.669 217.052 524.281 216.564C523.413 216.387 522.848 215.511 523.019 214.609C523.19 213.706 524.032 213.12 524.9 213.296C527.271 213.782 529.469 214.214 531.619 214.618C532.49 214.781 533.068 215.648 532.91 216.552C532.77 217.357 532.096 217.921 531.337 217.921ZM592.175 216.994C591.535 216.994 590.932 216.593 590.684 215.936C590.362 215.08 590.768 214.114 591.591 213.778C593.603 212.96 595.688 212.022 597.785 210.991C598.585 210.598 599.539 210.954 599.917 211.785C600.294 212.617 599.952 213.609 599.153 214.002C596.99 215.065 594.837 216.033 592.758 216.88C592.567 216.958 592.369 216.994 592.175 216.994ZM517.865 215.177C517.757 215.177 517.647 215.166 517.537 215.142C515.284 214.655 513.042 214.16 510.813 213.664C509.948 213.472 509.397 212.587 509.582 211.688C509.767 210.789 510.617 210.216 511.482 210.408C513.706 210.903 515.942 211.396 518.189 211.882C519.055 212.069 519.61 212.95 519.431 213.851C519.274 214.637 518.607 215.177 517.865 215.177ZM416.917 212.283C416.31 212.283 415.729 211.922 415.46 211.31C415.092 210.474 415.445 209.486 416.249 209.103C418.364 208.096 420.545 207.176 422.733 206.368C423.566 206.06 424.481 206.513 424.777 207.38C425.073 208.246 424.637 209.198 423.804 209.506C421.705 210.281 419.612 211.164 417.582 212.131C417.366 212.234 417.14 212.283 416.917 212.283ZM504.44 212.204C504.329 212.204 504.216 212.192 504.103 212.167C501.856 211.666 499.622 211.17 497.398 210.686C496.533 210.498 495.978 209.615 496.159 208.715C496.34 207.815 497.189 207.238 498.054 207.426C500.282 207.912 502.523 208.408 504.774 208.91C505.638 209.103 506.189 209.988 506.003 210.887C505.843 211.669 505.179 212.204 504.44 212.204ZM604.589 210.932C604.02 210.932 603.469 210.616 603.179 210.059C602.758 209.251 603.048 208.24 603.825 207.802C605.727 206.731 607.712 205.552 609.724 204.299C610.482 203.826 611.465 204.083 611.92 204.872C612.374 205.66 612.128 206.683 611.369 207.155C609.318 208.434 607.293 209.636 605.35 210.73C605.107 210.867 604.846 210.932 604.589 210.932ZM491.005 209.294C490.902 209.294 490.797 209.284 490.692 209.263C488.29 208.768 486.094 208.335 483.978 207.939C483.108 207.776 482.529 206.911 482.686 206.006C482.843 205.1 483.675 204.499 484.545 204.662C486.679 205.062 488.894 205.498 491.314 205.996C492.181 206.174 492.745 207.05 492.574 207.952C492.423 208.745 491.754 209.294 491.005 209.294ZM429.822 207.512C429.111 207.512 428.461 207.015 428.274 206.266C428.052 205.375 428.565 204.466 429.421 204.235C431.641 203.636 433.938 203.121 436.248 202.705C437.119 202.549 437.948 203.156 438.099 204.063C438.249 204.968 437.665 205.83 436.793 205.987C434.57 206.387 432.361 206.882 430.226 207.458C430.091 207.495 429.955 207.512 429.822 207.512ZM477.497 206.783C477.416 206.783 477.333 206.777 477.25 206.763C474.923 206.388 472.654 206.06 470.506 205.787C469.628 205.675 469.003 204.845 469.111 203.932C469.218 203.02 470.017 202.37 470.894 202.482C473.077 202.759 475.38 203.092 477.74 203.473C478.614 203.614 479.213 204.464 479.077 205.373C478.955 206.195 478.274 206.783 477.497 206.783ZM463.878 205.072C463.834 205.072 463.79 205.07 463.746 205.066C461.432 204.87 459.155 204.734 456.976 204.662C456.092 204.633 455.398 203.864 455.427 202.946C455.455 202.026 456.191 201.305 457.078 201.334C459.308 201.408 461.639 201.547 464.006 201.747C464.887 201.822 465.543 202.625 465.472 203.542C465.403 204.412 464.703 205.072 463.878 205.072ZM443.315 205.07C442.499 205.07 441.802 204.424 441.723 203.562C441.639 202.647 442.285 201.834 443.165 201.747C445.418 201.524 447.758 201.378 450.12 201.311C451.002 201.286 451.74 202.011 451.764 202.931C451.788 203.85 451.09 204.615 450.206 204.64C447.916 204.704 445.649 204.847 443.468 205.062C443.417 205.067 443.365 205.07 443.315 205.07ZM616.372 203.616C615.847 203.616 615.332 203.347 615.025 202.854C614.545 202.082 614.758 201.052 615.501 200.552C617.307 199.338 619.218 198.015 621.18 196.62C621.91 196.101 622.906 196.296 623.405 197.055C623.905 197.814 623.717 198.85 622.987 199.369C621.002 200.78 619.069 202.119 617.239 203.349C616.97 203.529 616.669 203.616 616.372 203.616ZM810.277 199.944C809.734 199.944 809.205 199.656 808.904 199.136C807.761 197.16 806.518 195.19 805.21 193.281C804.697 192.532 804.865 191.493 805.584 190.959C806.304 190.425 807.304 190.599 807.818 191.348C809.174 193.326 810.462 195.369 811.648 197.42C812.105 198.208 811.86 199.23 811.102 199.704C810.843 199.867 810.559 199.944 810.277 199.944ZM627.714 195.572C627.214 195.572 626.72 195.329 626.408 194.872C625.896 194.123 626.065 193.083 626.785 192.55C628.502 191.281 630.318 189.919 632.338 188.386C633.052 187.844 634.054 188.007 634.575 188.75C635.096 189.493 634.939 190.534 634.225 191.076C632.195 192.617 630.368 193.987 628.641 195.264C628.359 195.472 628.035 195.572 627.714 195.572ZM802.327 188.33C801.868 188.33 801.412 188.126 801.095 187.73C799.675 185.952 798.163 184.191 796.601 182.496C795.99 181.832 796.011 180.778 796.65 180.142C797.288 179.506 798.302 179.529 798.914 180.192C800.527 181.944 802.089 183.764 803.558 185.601C804.123 186.308 804.03 187.358 803.35 187.946C803.05 188.204 802.688 188.33 802.327 188.33ZM638.819 187.166C638.329 187.166 637.844 186.932 637.53 186.49C637.005 185.75 637.155 184.708 637.867 184.162L643.387 179.915C644.098 179.368 645.101 179.525 645.626 180.265C646.152 181.004 646.002 182.047 645.29 182.593L639.769 186.84C639.483 187.06 639.15 187.166 638.819 187.166ZM649.868 178.69C649.374 178.69 648.887 178.454 648.574 178.007C648.052 177.265 648.208 176.223 648.922 175.681C650.955 174.136 652.778 172.766 654.495 171.492C655.215 170.959 656.215 171.133 656.729 171.881C657.242 172.63 657.074 173.67 656.354 174.204C654.647 175.47 652.834 176.833 650.81 178.37C650.526 178.586 650.195 178.69 649.868 178.69ZM792.845 178.028C792.46 178.028 792.074 177.885 791.767 177.594C790.121 176.033 788.392 174.498 786.628 173.032C785.937 172.458 785.825 171.41 786.377 170.692C786.929 169.974 787.937 169.856 788.628 170.43C790.445 171.942 792.227 173.523 793.924 175.133C794.578 175.752 794.624 176.806 794.029 177.485C793.713 177.846 793.28 178.028 792.845 178.028ZM661.05 170.417C660.54 170.417 660.039 170.165 659.728 169.694C659.227 168.936 659.413 167.9 660.142 167.379C662.125 165.963 664.056 164.62 665.88 163.386C666.622 162.885 667.613 163.104 668.095 163.875C668.577 164.646 668.367 165.677 667.625 166.178C665.823 167.396 663.915 168.724 661.954 170.125C661.677 170.322 661.361 170.417 661.05 170.417ZM782.135 169.119C781.818 169.119 781.497 169.021 781.218 168.818C779.387 167.482 777.485 166.184 775.564 164.957C774.811 164.476 774.575 163.45 775.038 162.667C775.5 161.884 776.486 161.638 777.24 162.119C779.215 163.381 781.173 164.717 783.056 166.091C783.78 166.619 783.955 167.658 783.448 168.41C783.136 168.872 782.64 169.119 782.135 169.119ZM672.568 162.651C672.025 162.651 671.497 162.364 671.196 161.847C670.739 161.06 670.982 160.036 671.739 159.561C673.785 158.276 675.805 157.064 677.743 155.961C678.519 155.52 679.492 155.815 679.916 156.622C680.34 157.429 680.055 158.44 679.28 158.882C677.382 159.963 675.402 161.15 673.394 162.411C673.135 162.574 672.849 162.651 672.568 162.651ZM770.449 161.654C770.194 161.654 769.935 161.591 769.695 161.457C767.716 160.358 765.678 159.304 763.635 158.326C762.832 157.942 762.481 156.953 762.851 156.118C763.22 155.283 764.172 154.918 764.974 155.302C767.074 156.307 769.17 157.39 771.204 158.52C771.984 158.954 772.278 159.962 771.861 160.774C771.574 161.335 771.02 161.654 770.449 161.654ZM684.614 155.823C684.017 155.823 683.445 155.474 683.169 154.878C682.787 154.048 683.124 153.054 683.92 152.656C684.644 152.295 685.367 151.944 686.092 151.602C687.475 150.95 688.905 150.333 690.344 149.768C691.17 149.444 692.095 149.878 692.406 150.738C692.719 151.598 692.301 152.559 691.474 152.884C690.1 153.422 688.735 154.012 687.414 154.635C686.711 154.967 686.008 155.308 685.305 155.658C685.082 155.77 684.846 155.823 684.614 155.823ZM757.99 155.688C757.796 155.688 757.599 155.651 757.408 155.574C755.311 154.722 753.167 153.927 751.035 153.211C750.194 152.928 749.732 151.99 750.004 151.115C750.276 150.24 751.178 149.76 752.02 150.042C754.212 150.779 756.417 151.596 758.573 152.472C759.396 152.807 759.803 153.772 759.481 154.629C759.235 155.286 758.63 155.688 757.99 155.688ZM744.939 151.305C744.807 151.305 744.673 151.288 744.539 151.252C742.353 150.668 740.133 150.151 737.942 149.716C737.073 149.544 736.504 148.671 736.669 147.768C736.835 146.865 737.673 146.272 738.542 146.445C740.799 146.893 743.085 147.425 745.336 148.027C746.192 148.256 746.708 149.164 746.488 150.054C746.303 150.806 745.652 151.305 744.939 151.305ZM697.433 150.795C696.729 150.795 696.083 150.308 695.889 149.568C695.657 148.681 696.16 147.766 697.013 147.524C699.231 146.894 701.529 146.357 703.843 145.924C704.713 145.762 705.545 146.364 705.702 147.269C705.858 148.174 705.279 149.04 704.409 149.202C702.188 149.617 699.983 150.133 697.855 150.736C697.714 150.776 697.572 150.795 697.433 150.795ZM731.467 148.635C731.401 148.635 731.335 148.631 731.268 148.622C729.024 148.333 726.76 148.122 724.543 147.995C723.66 147.945 722.984 147.16 723.032 146.242C723.081 145.323 723.837 144.62 724.719 144.67C727.009 144.801 729.345 145.019 731.662 145.318C732.54 145.43 733.162 146.262 733.053 147.175C732.953 148.018 732.264 148.635 731.467 148.635ZM710.92 148.262C710.105 148.262 709.407 147.616 709.329 146.754C709.245 145.839 709.89 145.026 710.771 144.939C713.054 144.713 715.4 144.576 717.744 144.533C718.634 144.518 719.357 145.249 719.373 146.168C719.388 147.088 718.684 147.846 717.8 147.862C715.539 147.904 713.275 148.036 711.074 148.254C711.022 148.259 710.971 148.262 710.92 148.262Z" fill="white"/>
<path d="M811.643 188.481L806.458 197.311L851.088 228.978L811.643 188.481Z" fill="#BDCDFF"/>
<path d="M801.857 207.91L804.559 218.037L849.103 227.518L801.857 207.91Z" fill="#BDCDFF"/>
<path d="M851.088 228.978L775.825 202.299L801.856 192.778L851.088 228.978Z" fill="white"/>
<path d="M811.643 188.481L851.088 228.978L828.001 181.298L811.643 188.481Z" fill="white"/>
<path d="M498.672 743.228C731.297 743.228 919.877 732.141 919.877 718.464C919.877 704.787 731.297 693.699 498.672 693.699C266.047 693.699 77.4668 704.787 77.4668 718.464C77.4668 732.141 266.047 743.228 498.672 743.228Z" fill="#95A6DB"/>
<path d="M598.507 562.153C652.51 562.153 696.287 516.624 696.287 460.462C696.287 404.299 652.51 358.77 598.507 358.77C544.504 358.77 500.727 404.299 500.727 460.462C500.727 516.624 544.504 562.153 598.507 562.153Z" fill="#A52422"/>
<path d="M669.172 454.893L602.203 409.491C598.37 406.893 593.294 409.753 593.294 414.512V506.42C593.294 511.178 598.37 514.039 602.203 511.44L669.172 466.039C673.044 463.415 673.044 457.518 669.172 454.893Z" fill="white"/>
<path d="M558.79 408.5H573.959C576.251 408.5 578.109 410.432 578.109 412.816V507.813C578.109 510.196 576.251 512.129 573.959 512.129H558.79C556.498 512.129 554.641 510.196 554.641 507.813V412.816C554.64 410.432 556.498 408.5 558.79 408.5Z" fill="white"/>
<path d="M391.963 714.945H272.024C267.967 714.945 265.665 710.113 268.123 706.757L273.654 699.199C277.816 693.513 285.478 690.014 293.768 690.014H369.142C376.802 690.014 383.97 693.006 388.309 698.012L395.605 706.431C398.448 709.712 396.209 714.945 391.963 714.945Z" fill="#4D6AC4"/>
<path d="M345.517 626.78H319.596V704.838H345.517V626.78Z" fill="#4D6AC4"/>
<path d="M399.533 204.047V411.196H266.798V207.543C266.741 206.364 266.712 205.175 266.712 203.986C266.712 165.848 296.443 134.932 333.114 134.932C369.785 134.932 399.513 165.848 399.513 203.986V204.046H399.533V204.047Z" fill="#3C3F75"/>
<path d="M399.484 397.477H266.797V406.825H399.484V397.477Z" fill="#323461"/>
<path d="M411.575 397.055V496.539V538.29H411.499C411.499 538.358 411.499 538.437 411.486 538.516C410.068 582.845 375.057 618.327 332.087 618.327C289.118 618.327 254.12 582.845 252.702 538.516C252.689 538.437 252.689 538.358 252.689 538.29H252.472V496.818V397.055H243.135V533.602C243.058 535.182 243.02 536.777 243.02 538.371C243.02 589.528 282.898 631 332.087 631C381.277 631 421.155 589.528 421.155 538.371V538.291H421.18V397.055H411.575Z" fill="#627CCC"/>
<path d="M406.393 406.657V534.263H406.369V534.331C406.369 563.574 390.746 589.021 367.705 602.137C357.132 608.161 344.995 611.584 332.087 611.584C291.064 611.584 257.809 576.995 257.809 534.331C257.809 533.001 257.838 531.672 257.904 530.354V406.657H406.393V406.657Z" fill="#627CCC"/>
<path d="M412.075 403.226H425.076V365.992H412.075C404.998 365.992 399.261 371.958 399.261 379.317V389.9C399.261 397.26 404.998 403.226 412.075 403.226Z" fill="#627CCC"/>
<path d="M253.979 403.226H240.978V365.992H253.979C261.056 365.992 266.793 371.958 266.793 379.317V389.9C266.793 397.26 261.056 403.226 253.979 403.226Z" fill="#627CCC"/>
<path d="M206.969 361.485V404.596C206.969 404.698 206.969 404.795 206.978 404.893C207.022 406.656 207.5 408.304 208.305 409.731C210.004 412.759 213.157 414.79 216.767 414.79H243.15V351.292H216.767C213.157 351.292 210.004 353.322 208.305 356.35C207.5 357.778 207.023 359.43 206.978 361.192C206.969 361.29 206.969 361.388 206.969 361.485Z" fill="#3C3F75"/>
<path d="M206.977 361.192H243.165V356.35H208.303C207.499 357.778 207.021 359.43 206.977 361.192Z" fill="#323461"/>
<path d="M243.168 366.058H207.061V370.899H243.168V366.058Z" fill="#323461"/>
<path d="M243.168 375.766H207.061V380.608H243.168V375.766Z" fill="#323461"/>
<path d="M243.168 385.475H207.061V390.316H243.168V385.475Z" fill="#323461"/>
<path d="M243.168 395.183H207.061V400.024H243.168V395.183Z" fill="#323461"/>
<path d="M206.977 404.893C207.021 406.656 207.499 408.304 208.304 409.731H243.165V404.893H206.977Z" fill="#323461"/>
<path d="M332.1 446.271C338.927 446.271 344.461 440.515 344.461 433.415C344.461 426.315 338.927 420.559 332.1 420.559C325.273 420.559 319.738 426.315 319.738 433.415C319.738 440.515 325.273 446.271 332.1 446.271Z" fill="#323461"/>
<path d="M368.485 524.772H257.896V530.134H368.485V524.772Z" fill="#7991DB"/>
<path d="M399.533 312.4V406.657H369.418C369.562 347.801 398.415 313.092 398.415 313.092L399.533 312.4Z" fill="#323461"/>
<path d="M406.394 406.657V534.263H406.369V534.331C406.369 563.574 390.746 589.021 367.706 602.137C368.357 545.563 369.352 453.315 369.414 411.196C369.417 409.772 369.417 408.407 369.417 407.103V406.657H406.394V406.657Z" fill="#4D6AC4"/>
<path d="M406.326 524.772H368.551V530.134H406.326V524.772Z" fill="#627CCC"/>
<path d="M332.514 159.625L327.911 154.802L290.42 193.496L295.023 198.32L332.514 159.625Z" fill="#323461"/>
<path d="M360.388 159.745L355.768 154.94L288.728 224.661L293.349 229.466L360.388 159.745Z" fill="#323461"/>
<path d="M350.158 189.932L313.287 154.262L308.836 159.238L345.708 194.908L350.158 189.932Z" fill="#323461"/>
<path d="M342.459 219.813L296.584 174.781L292.099 179.722L337.973 224.755L342.459 219.813Z" fill="#323461"/>
<path d="M331.764 247.953L288.859 204.423L284.297 209.287L327.201 252.817L331.764 247.953Z" fill="#323461"/>
<path d="M446.265 126.635L405.588 163.171C403.044 165.455 399.202 165.163 397.006 162.518C394.809 159.873 395.09 155.877 397.633 153.593L438.31 117.056C440.854 114.772 444.696 115.064 446.892 117.709C449.089 120.354 448.808 124.35 446.265 126.635Z" fill="#A52422"/>
<path d="M458.495 168.62L417.718 186.266C414.94 187.468 411.751 186.101 410.596 183.212L410.298 182.468C409.142 179.58 410.457 176.263 413.235 175.061L454.011 157.414C456.789 156.212 459.978 157.58 461.134 160.468L461.431 161.212C462.587 164.101 461.273 167.417 458.495 168.62Z" fill="#A52422"/>
<path d="M235.882 241.331L190.639 237.677C187.557 237.428 185.253 234.628 185.492 231.423L185.554 230.597C185.793 227.392 188.486 224.996 191.568 225.244L236.811 228.898C239.893 229.148 242.197 231.948 241.958 235.153L241.896 235.978C241.657 239.183 238.964 241.58 235.882 241.331Z" fill="#A52422"/>
<path d="M241.005 269.788L205.792 285.063C203.45 286.078 202.343 288.876 203.32 291.312L203.467 291.678C204.444 294.114 207.134 295.264 209.475 294.248L244.689 278.974C247.03 277.958 248.137 275.16 247.16 272.724L247.013 272.358C246.037 269.923 243.347 268.772 241.005 269.788Z" fill="#A52422"/>
<path d="M239.057 260.807L180.691 270.53C177.422 271.075 174.346 268.76 173.823 265.36V265.36C173.299 261.96 175.525 258.762 178.795 258.217L237.16 248.494C240.43 247.95 243.505 250.264 244.028 253.664C244.552 257.065 242.327 260.262 239.057 260.807Z" fill="#A52422"/>
<path d="M815.278 417.722H777.989C768.363 177.117 432.997 176.81 423.238 417.722H385.945C397.211 125.621 804.111 125.832 815.278 417.722Z" fill="#95A6DB"/>
<path d="M778.041 417.357C722.557 417.407 731.483 309.287 657.941 273.406C600.189 241.588 522.726 265.616 491.173 325.146C477.298 358.645 455.405 416.843 423.288 417.357C433.048 176.448 768.415 176.751 778.041 417.357Z" fill="#494C7F"/>
<path d="M815.279 417.512H777.988V544.928H815.279V417.512Z" fill="#95A6DB"/>
<path d="M777.91 480.896V550.704H815.202V522.292C811.371 519.917 807.251 518.174 802.926 517.131L804.058 511.372C806.658 498.166 798.468 485.276 785.774 482.572L777.91 480.896Z" fill="#8397D6"/>
<path d="M767.089 685.938L768.474 686.234C781.994 689.113 796.351 684.938 808.507 674.593L818.582 666.018L836.631 578.196L830.471 564.484C823.346 548.623 811.179 537.901 796.841 534.848L767.089 685.938Z" fill="#BBC8F0"/>
<path d="M799.02 529.331L766.821 692.854C764.221 706.057 751.815 714.573 739.119 711.869L698.663 703.253C685.968 700.549 677.79 687.649 680.39 674.445L712.59 510.923C715.19 497.718 727.583 489.212 740.279 491.916L780.735 500.532C793.43 503.237 801.621 516.127 799.02 529.331Z" fill="#494C7F"/>
<path d="M760.874 496.302L719.258 707.639L698.663 703.253C685.968 700.549 677.79 687.649 680.39 674.445L712.59 510.923C715.19 497.718 727.583 489.212 740.279 491.916L760.874 496.302Z" fill="#3C3F75"/>
<path d="M423.218 417.397H385.926V544.815H423.218V417.397Z" fill="#95A6DB"/>
<path d="M423.218 480.896V550.704H385.926V522.292C389.757 519.917 393.877 518.174 398.202 517.131L397.069 511.372C394.47 498.166 402.66 485.276 415.354 482.572L423.218 480.896Z" fill="#8397D6"/>
<path d="M434.116 685.825L432.732 686.12C419.211 689 404.854 684.825 392.699 674.48L382.624 665.904L364.575 578.082L370.735 564.37C377.861 548.51 390.027 537.788 404.365 534.734L434.116 685.825Z" fill="#BBC8F0"/>
<path d="M402.185 529.218L434.385 692.741C436.985 705.944 449.39 714.46 462.087 711.756L502.542 703.139C515.238 700.435 523.415 687.535 520.816 674.332L488.616 510.809C486.015 497.605 473.622 489.099 460.927 491.802L420.471 500.419C407.775 503.123 399.584 516.014 402.185 529.218Z" fill="#494C7F"/>
<path d="M440.332 496.189L481.947 707.526L502.542 703.139C515.237 700.435 523.415 687.535 520.815 674.332L488.615 510.809C486.015 497.605 473.622 489.099 460.926 491.802L440.332 496.189Z" fill="#3C3F75"/>
<path d="M859.217 704.035C863.021 720.646 876.616 711.51 873.773 722.008C873.563 722.782 872.856 723.3 872.083 723.33L864.1 723.648C863.33 723.678 862.571 723.45 861.935 722.997C857.723 719.998 854.866 715.774 845.77 715.261C845.839 711.222 845.662 705.455 846.945 703.394L859.217 704.035Z" fill="#8A284C"/>
<path d="M838.18 587.471C838.18 587.471 861.397 624.298 864.602 635.754C867.807 647.209 861.102 666.62 862.315 705.738C855.059 707.697 845.383 706.014 845.383 706.014C845.383 706.014 839.56 656.946 846.41 645.36C836.147 629.073 810.368 593.517 810.368 593.517L838.18 587.471Z" fill="#4364CC"/>
<path d="M825.304 709.39C831.212 717.753 845.957 712.807 845.366 724.031C823.016 723.662 813.725 723.712 813.725 723.712C813.779 721.133 814.278 715.016 814.815 712.624L825.304 709.39Z" fill="#8A284C"/>
<path d="M832.229 580.026C832.229 580.026 839.633 640.109 837.924 651.907C836.215 663.704 830.92 672.938 830.734 712.076C823.413 713.753 812.224 715.261 812.224 715.261C812.224 715.261 807.506 668.054 817.21 655.058C814.46 635.796 801.353 587.348 801.353 587.348L832.229 580.026Z" fill="#768FDB"/>
<path d="M870.157 553.577L879.183 543.051C879.379 542.824 879.657 542.692 879.952 542.687L887.383 542.642C887.595 542.637 888.25 543.86 888.108 544.022L881.742 549.906C881.712 549.94 881.675 549.965 881.633 549.978L870.715 554.191C870.481 554.265 869.993 553.766 870.157 553.577Z" fill="#C4204A"/>
<path d="M870.846 554.283L879.445 544.358C879.642 544.132 879.92 544 880.214 543.994L887.875 543.852C888.087 543.848 888.201 544.109 888.059 544.272L882.004 551.214C881.975 551.248 881.937 551.272 881.895 551.286L871.096 554.692C870.862 554.765 870.682 554.472 870.846 554.283Z" fill="#E62552"/>
<path d="M853.857 563.334L860.075 560.163C860.075 560.163 866.209 553.707 867.12 552.265C868.485 551.546 871.066 549.738 871.647 549.67C872.227 549.601 873.417 549.787 873.417 549.787L870.537 553.194C870.537 553.194 871.905 553.476 873.65 552.323C875.394 551.17 878.476 548.08 879.985 548.679C880.521 549.171 880.521 549.171 880.521 549.171C880.521 549.171 881.474 548.113 882.372 548.506C883.271 548.9 881.484 553.56 876.414 558.5C876.077 559.819 874.406 562.13 874.406 562.13L864.154 565.875L853.857 563.334Z" fill="#F37A50"/>
<path d="M879.674 546.002C879.955 546.294 880.479 546.225 880.843 545.846C881.207 545.467 881.274 544.923 880.993 544.63C880.711 544.337 880.188 544.407 879.823 544.785C879.459 545.164 879.392 545.709 879.674 546.002Z" fill="#C4204A"/>
<path d="M824.9 515.777C826.744 518.264 812.293 520.969 810.356 515.8C808.418 510.631 811.745 496.415 811.745 496.415L824.922 499.323C824.922 499.323 822.499 512.54 824.9 515.777Z" fill="#F37A50"/>
<path d="M825.949 466.542C817.646 465.635 810.015 473.813 808.905 484.808C807.796 495.802 813.627 505.45 821.93 506.357C830.233 507.263 837.864 499.085 838.974 488.09C840.084 477.096 834.252 467.448 825.949 466.542Z" fill="#F37A50"/>
<path d="M835.508 492.412C836.377 492.412 837.082 491.679 837.082 490.775C837.082 489.871 836.377 489.139 835.508 489.139C834.639 489.139 833.934 489.871 833.934 490.775C833.934 491.679 834.639 492.412 835.508 492.412Z" fill="black"/>
<path d="M825.311 490.157C826.252 490.157 827.014 489.364 827.014 488.385C827.014 487.407 826.252 486.614 825.311 486.614C824.37 486.614 823.607 487.407 823.607 488.385C823.607 489.364 824.37 490.157 825.311 490.157Z" fill="black"/>
<path d="M831.021 490.987C831.355 493.564 831.819 496.734 831.819 496.734C831.819 496.734 830.191 498.52 827.49 497.286C828.841 497.332 830.311 497.065 830.534 495.27C830.756 493.475 831.021 490.987 831.021 490.987Z" fill="#DE623C"/>
<path d="M834.489 487.592C834.666 487.702 834.892 487.715 835.086 487.606C835.105 487.596 835.761 487.248 836.375 487.492C836.808 487.664 837.155 488.106 837.405 488.806C837.522 489.132 837.869 489.297 838.182 489.176C838.494 489.056 838.654 488.694 838.537 488.369C838.158 487.307 837.57 486.615 836.79 486.312C835.647 485.869 834.556 486.476 834.511 486.502C834.218 486.669 834.111 487.05 834.27 487.355C834.323 487.456 834.399 487.536 834.489 487.592Z" fill="#201D40"/>
<path d="M826.638 485.802C826.436 485.845 826.218 485.78 826.069 485.611C826.054 485.595 825.545 485.042 824.888 485.062C824.425 485.075 823.958 485.375 823.499 485.951C823.287 486.218 822.907 486.256 822.65 486.034C822.393 485.813 822.357 485.417 822.569 485.15C823.264 484.277 824.038 483.825 824.87 483.806C826.09 483.779 826.927 484.726 826.962 484.766C827.186 485.023 827.166 485.421 826.92 485.653C826.837 485.73 826.739 485.78 826.638 485.802Z" fill="#201D40"/>
<path d="M811.95 491.793C817.42 487.03 815.909 479.754 815.909 479.754C818.562 479.934 819.305 481.114 819.305 481.114C821.438 478.566 820.918 476.168 820.918 476.168C826.667 475.516 828.351 479.745 832.738 482.241C838.747 485.658 847.378 485.216 850.235 477.264C850.648 476.113 849.598 474.998 848.478 475.392C847.44 475.758 846.144 475.926 844.701 475.476C844.701 475.476 846.457 474.274 847.092 472.107C847.443 470.912 846.253 469.881 845.161 470.403C843.525 471.186 840.763 471.584 836.566 469.484C833.772 468.087 828.307 461.3 823.864 461.082C820.232 460.903 816.724 463.176 814.428 467.193C814.428 467.193 805.762 465.74 802.418 475.151C799.132 484.398 811.448 498.683 811.448 498.683C811.448 498.683 811.735 494.19 811.95 491.793Z" fill="#201D40"/>
<path d="M830.353 501.492C830.696 501.261 830.61 500.719 830.214 500.618C829.207 500.362 827.554 499.904 826.032 499.31C824.511 498.717 822.975 497.932 822.054 497.436C821.692 497.242 821.285 497.592 821.397 497.999C821.743 499.254 822.652 501.307 824.984 502.216C827.317 503.126 829.3 502.2 830.353 501.492Z" fill="white"/>
<path d="M816.465 491.316C817.902 489.801 817.624 487.093 815.845 485.268C814.065 483.442 811.458 483.19 810.021 484.704C808.584 486.219 808.863 488.926 810.642 490.752C812.422 492.578 815.029 492.83 816.465 491.316Z" fill="#F37A50"/>
<path d="M812.9 490.632C814.006 490.632 814.903 489.727 814.903 488.609C814.903 487.492 814.006 486.587 812.9 486.587C811.794 486.587 810.897 487.492 810.897 488.609C810.897 489.727 811.794 490.632 812.9 490.632Z" fill="white"/>
<path d="M815.169 493.535L815.081 493.579C814.682 493.781 814.202 493.608 814.007 493.193L812.474 489.915C812.28 489.5 812.446 489 812.845 488.798L812.933 488.755C813.332 488.552 813.813 488.725 814.007 489.14L815.54 492.418C815.734 492.833 815.568 493.333 815.169 493.535Z" fill="white"/>
<path d="M840.962 591.883C830.654 594.07 812.121 597.846 802.32 593.873C798.611 588.334 797.671 557.016 797.671 557.016C796.598 524.781 800.315 519.998 808.698 509.197C812.215 510.878 821.02 512.311 824.891 512.342C824.891 512.342 833.662 525.007 835.374 534.204C837.109 543.529 837.305 560.109 837.466 569.606C837.646 580.153 839.649 585.239 840.962 591.883Z" fill="#E62552"/>
<path d="M807.477 518.983C801.447 531.19 802.812 544.708 820.344 571.32C832.622 570.206 835.029 559.564 835.029 559.564C835.029 559.564 831.656 546.351 827.274 529.73C822.892 513.109 810.115 513.641 807.477 518.983Z" fill="#8A284C"/>
<path d="M861.076 557.016L834.788 559.198C834.788 559.198 823.514 557.059 820.344 571.32C825.986 575.889 840.551 577.602 864.441 568.379C861.914 564.8 861.076 557.016 861.076 557.016Z" fill="#8A284C"/>
<path d="M246.741 562.895C245.606 562.895 244.284 562.769 242.748 562.462C233.812 561.884 233.006 551.504 232.226 541.466C231.74 535.202 231.237 528.726 228.765 524.921C222.743 515.652 214.234 521.356 213.875 521.602L212.961 520.174C213.062 520.103 223.184 513.265 230.132 523.96C232.847 528.138 233.368 534.844 233.871 541.328C234.629 551.085 235.345 560.3 242.898 560.753L243.008 560.767C250.284 562.232 251.819 559.349 251.833 559.319L253.323 560.056C253.261 560.195 251.989 562.894 246.741 562.895Z" fill="#323461"/>
<path d="M234.672 606.945H273.083C273.083 603.116 270.098 600.012 266.416 600.012H241.339C237.657 600.012 234.672 603.116 234.672 606.945Z" fill="#494C7F"/>
<path d="M255.202 551.224H249.53V600.012H255.202V551.224Z" fill="#323461"/>
<path d="M198.179 515.774L200.388 513.617L261.024 565.555L258.815 567.711L198.179 515.774Z" fill="#323461"/>
<path d="M216.852 527.871L198.799 550.062C197.38 551.806 194.87 552.024 193.193 550.549L188.369 546.303C186.692 544.828 186.483 542.218 187.902 540.474L205.955 518.282L216.852 527.871Z" fill="#95A6DB"/>
<path d="M197.488 527.348L204.713 518.412C204.839 518.23 204.978 518.057 205.13 517.896L205.199 517.812L205.207 517.819C205.966 517.057 207.027 516.567 208.332 516.47C211.987 516.198 216.159 519.094 217.65 522.938C218.639 525.485 218.2 527.81 216.728 529.166L209.621 537.958L197.488 527.348Z" fill="#323461"/>
<path d="M189.694 542.846L189.565 542.736C189.192 542.419 189.137 541.848 189.442 541.461L197.331 531.429C197.635 531.041 198.185 530.984 198.558 531.301L198.687 531.411C199.059 531.727 199.114 532.299 198.81 532.686L190.921 542.718C190.616 543.106 190.067 543.163 189.694 542.846Z" fill="#E3EAFF"/>
<path d="M327.327 714.253C325.734 714.253 324.442 712.91 324.442 711.253V658.105H330.211V711.253C330.211 712.91 328.92 714.253 327.327 714.253Z" fill="#413D83"/>
<path d="M347.566 714.253C345.973 714.253 344.681 712.91 344.681 711.253V658.105H350.45V711.253C350.45 712.91 349.159 714.253 347.566 714.253Z" fill="#413D83"/>
<path d="M374.123 714.253C372.53 714.253 371.239 712.91 371.239 711.253V658.105H377.008V711.253C377.008 712.91 375.716 714.253 374.123 714.253Z" fill="#413D83"/>
<path d="M394.363 714.253C392.77 714.253 391.478 712.91 391.478 711.253V658.105H397.247V711.253C397.247 712.91 395.956 714.253 394.363 714.253Z" fill="#413D83"/>
<path d="M362.449 579.228V642.475C362.449 643.194 361.888 643.777 361.196 643.777H323.49C319.685 643.777 316.602 646.985 316.602 650.941C316.602 654.897 319.685 658.105 323.49 658.105H362.449H369.337C373.141 658.105 376.225 654.897 376.225 650.941V643.777V579.228C376.225 575.271 373.141 572.064 369.337 572.064C365.533 572.064 362.449 575.272 362.449 579.228Z" fill="#673AB7"/>
<path d="M399.149 572.064H369.337V644.939H399.149V572.064Z" fill="#673AB7"/>
<path d="M392.26 579.228V642.475C392.26 643.194 391.7 643.777 391.007 643.777H353.301C349.497 643.777 346.413 646.985 346.413 650.941C346.413 654.897 349.497 658.105 353.301 658.105H392.26H399.148C402.952 658.105 406.036 654.897 406.036 650.941V643.777V579.228C406.036 575.271 402.952 572.064 399.148 572.064C395.344 572.064 392.26 575.272 392.26 579.228Z" fill="#413D83"/>
<path d="M332.557 594.673C335.42 596.331 335.452 606.651 334.464 607.257C301.441 609.645 293.11 608.391 293.11 608.391L293.526 602.547C293.527 602.546 312.575 596.302 332.557 594.673Z" fill="#F37A50"/>
<path d="M363.657 575.796C358.585 584.232 337.499 607.057 334.054 607.381L330.16 594.937C330.16 594.937 349.933 567.726 353.444 563.531C359.508 556.254 371.964 562.04 363.657 575.796Z" fill="#F37A50"/>
<path d="M287.46 601.717C289.299 601.769 291.25 601.925 293.87 602.395L295.784 603.434L295.581 606.814C292.829 610.742 284.59 611.378 283.836 611.378C281.876 611.378 280.956 611.504 280.827 611.22C280.697 610.936 280.373 609.092 283.225 608.997C286.803 608.878 284.7 605.72 277.28 607.866C275.422 608.403 272.114 607.183 273.454 605.928C274.93 604.545 279.095 601.485 287.46 601.717Z" fill="#F37A50"/>
<path d="M351.524 530.722C350.914 522.085 353.315 514.455 359.937 510.569C366.648 506.631 375.056 510.494 375.056 510.494C375.057 510.494 382.173 507.861 388.622 515.249C395.072 522.639 390.193 529.14 392.832 534.529C394.394 537.72 402.339 538.377 400.287 548.772C399.695 551.769 396.229 553.787 393.292 553.988C388.133 554.341 383.329 552.266 381.238 554.341C374.347 561.175 359.075 558.703 356.938 552.451C356.276 550.513 342.538 554.264 343.909 541.061C344.603 534.37 352.069 538.44 351.524 530.722Z" fill="#0D0C1A"/>
<path d="M364.112 558.641L375.018 556.547L379.108 562.206L370.416 580.739L357.632 569.455L364.112 558.641Z" fill="#F37A50"/>
<path d="M354.116 543.77L352.16 543.091C352.083 543.33 352.112 543.524 352.119 543.56L352.097 543.458C351.963 542.842 351.556 540.97 352.584 539.294C353.309 538.114 354.564 537.317 356.313 536.926L356.747 539.023C355.555 539.289 354.74 539.769 354.323 540.448C353.758 541.37 354.004 542.501 354.109 542.984C354.16 543.221 354.214 543.466 354.116 543.77Z" fill="#673AB7"/>
<path d="M354.176 547.24C355.563 547.24 356.688 546.098 356.688 544.689C356.688 543.28 355.563 542.138 354.176 542.138C352.788 542.138 351.664 543.28 351.664 544.689C351.664 546.098 352.788 547.24 354.176 547.24Z" fill="#95A6DB"/>
<path d="M349.975 603.326C350.161 599.801 344.682 585.319 347.566 578.03C349.667 572.167 353.176 562.325 357.474 560.683C359.502 559.907 361.586 559.368 364.113 558.641C364.113 558.641 362.687 566.03 365.657 566.277C371.374 566.754 375.019 556.547 375.019 556.547C378.101 556.241 392.241 561.073 392.234 562.28C392.201 571.738 384.813 585.537 382.396 595.763C381.446 606.807 385.15 620.023 385.164 621.279C385.164 621.279 362.417 627.929 348.934 620.209C348.652 619.135 349.717 608.196 349.975 603.326Z" fill="#A52422"/>
<path d="M381.742 609.932C381.742 609.932 386.764 623.107 387.988 631.402C389.213 639.695 382.302 645.017 382.302 645.017H324.831C324.831 645.017 318.679 634.64 320.451 627.475C322.223 620.309 326.299 619.17 326.299 619.17L381.742 609.932Z" fill="#A52422"/>
<path d="M324.061 618.803C331.399 617.727 352.694 626.328 361.774 645.017H336.371L324.061 618.803Z" fill="#DE623C"/>
<path d="M332.107 625.682C331.159 624.602 330.298 623.272 329.54 621.883C327.399 617.959 322.237 617.297 319.322 620.638C308.73 632.783 286.151 660.47 281.117 663.915C279.695 664.888 271.396 669.858 263.507 668.875C263.507 668.875 259.613 670.417 262.207 673.633C263.542 675.288 283.591 676.998 283.591 676.998L285.154 670.876C296.825 661.893 311.353 662.538 323.672 646.116C330.456 637.072 332.107 625.682 332.107 625.682Z" fill="#DE623C"/>
<path d="M279.531 680.53L271.463 685.976L270.354 684.601L276.898 678.254C273.181 675.204 264.571 677.749 264.571 677.749C261.751 675.855 256.253 669.71 255.686 666.418C257.492 664.077 263.506 668.892 263.506 668.892C263.285 669.935 265.185 673.547 266.696 674.164C273.266 675.638 279.813 673.697 285.154 670.875C285.154 670.875 289.618 677.911 279.531 680.53Z" fill="#201D40"/>
<path d="M332.225 627.331C333.695 627.742 334.791 629.023 335.003 630.589C335.578 634.828 338.545 643.413 334.53 652.401C324.675 674.471 318.855 689.012 317.822 694.709C320.396 699.723 310.13 713.42 309.977 714.317L302.589 711.911C302.589 711.911 306.828 705.353 308.355 702.785C311.99 696.669 312.585 689.164 313.175 683.347C315.698 658.512 311.361 642.832 328.639 628.263C329.661 627.402 330.955 626.975 332.225 627.331Z" fill="#F37A50"/>
<path d="M321.502 705.213L320.773 715.187L319.05 715.27L318.165 706.01C313.579 707.236 310.304 715.899 310.304 715.899C307.146 717.082 299.114 717.903 296.253 716.375C295.558 713.462 302.886 711.408 302.886 711.408C303.55 712.223 307.463 712.842 308.851 711.966C313.962 707.428 316.738 700.837 317.821 694.709C317.821 694.708 325.616 695.283 321.502 705.213Z" fill="#201D40"/>
<path d="M366.868 549.378L375.724 547.998L375.018 556.547C375.018 556.547 373.323 560.421 371.357 560.683L364.112 558.641L366.868 549.378Z" fill="#F37A50"/>
<path d="M366.174 551.626C373.673 553.493 381.606 546.958 383.892 537.028C386.179 527.098 381.953 517.534 374.454 515.666C366.955 513.799 359.022 520.334 356.736 530.264C354.449 540.194 358.675 549.758 366.174 551.626Z" fill="#F37A50"/>
<path d="M359.076 533.635C359.816 533.635 360.417 533.011 360.417 532.241C360.417 531.47 359.816 530.846 359.076 530.846C358.335 530.846 357.734 531.47 357.734 532.241C357.734 533.011 358.335 533.635 359.076 533.635Z" fill="black"/>
<path d="M369.509 536.401C370.311 536.401 370.961 535.725 370.961 534.891C370.961 534.058 370.311 533.382 369.509 533.382C368.707 533.382 368.058 534.058 368.058 534.891C368.058 535.725 368.707 536.401 369.509 536.401Z" fill="black"/>
<path d="M372.414 534.315C372.314 534.263 372.231 534.178 372.181 534.065C371.454 532.433 369.488 532.115 369.468 532.112C369.193 532.07 369.002 531.804 369.041 531.518C369.081 531.231 369.336 531.032 369.611 531.073C369.714 531.088 372.136 531.467 373.097 533.624C373.214 533.887 373.104 534.199 372.851 534.322C372.707 534.391 372.546 534.383 372.414 534.315Z" fill="#0D0C1A"/>
<path d="M357.351 530.841C357.303 530.816 357.258 530.783 357.218 530.74C357.022 530.534 357.023 530.201 357.222 529.998C358.762 528.416 360.66 529.072 360.74 529.101C361.003 529.195 361.143 529.494 361.052 529.768C360.961 530.042 360.676 530.187 360.413 530.094C360.35 530.073 359.014 529.632 357.931 530.745C357.773 530.907 357.539 530.939 357.351 530.841Z" fill="#0D0C1A"/>
<path d="M361.138 535.895C360.403 536.682 359.757 537.494 359.055 537.954C358.818 538.109 358.742 538.437 358.88 538.69C359.447 539.737 361.104 540.598 362.12 541.048C362.268 541.113 362.39 540.911 362.269 540.8C361.244 539.865 360.803 539.177 360.618 538.798C360.526 538.61 360.529 538.39 360.62 538.202C360.83 537.77 361.248 536.889 361.532 536.159C361.63 535.908 361.321 535.701 361.138 535.895Z" fill="#DE623C"/>
<path d="M385.674 537.223C384.514 535.672 382.096 535.61 380.274 537.085C378.452 538.559 377.915 541.012 379.076 542.563C380.236 544.114 382.654 544.175 384.476 542.701C386.298 541.226 386.835 538.774 385.674 537.223Z" fill="#F37A50"/>
<path d="M381.347 542.107C381.279 542.072 381.218 542.02 381.169 541.953C380.47 540.984 380.404 539.897 380.994 539.043C381.597 538.168 382.718 537.768 383.659 538.092C383.923 538.184 384.067 538.48 383.979 538.755C383.892 539.03 383.606 539.18 383.342 539.089C382.827 538.912 382.156 539.161 381.814 539.655C381.486 540.13 381.543 540.722 381.976 541.322C382.144 541.554 382.099 541.883 381.876 542.057C381.718 542.181 381.513 542.193 381.347 542.107Z" fill="#DE623C"/>
<path d="M369.428 543.813C369.64 543.517 369.411 543.102 369.059 543.146C368.163 543.257 366.683 543.409 365.27 543.409C363.856 543.409 362.375 543.257 361.48 543.146C361.128 543.102 360.899 543.517 361.111 543.813C361.76 544.724 363.103 546.108 365.27 546.108C367.436 546.108 368.779 544.725 369.428 543.813Z" fill="white"/>
<path d="M384.103 536.139C375.152 534.892 362.628 525.408 361.601 520.541C363.332 514.694 372.557 511.756 377.765 514.464C382.974 517.173 387.894 528.781 384.103 536.139Z" fill="#0D0C1A"/>
<path d="M435.457 562.146C431.657 558.159 434.149 554.071 434.149 554.071C432.064 553.606 421.064 570.935 416.321 581.948C408.048 573.276 393.47 561.565 389.528 560.882C389.528 560.882 384.21 559.395 382.299 566.082C380.593 572.05 387.245 576.279 387.245 576.279C387.245 576.279 415.7 597.172 419.908 595.316C426.457 592.425 432.383 567.559 435.457 562.146Z" fill="#F37A50"/>
<path d="M441.397 561.653C439.075 561.8 436.204 560.607 435.309 562.772L430.727 560.448L430.449 557.574C434.387 551.012 443.985 549.149 444.936 549.063C447.405 548.837 448.551 548.573 448.744 548.916C448.937 549.259 449.542 551.545 445.959 551.993C441.463 552.554 444.448 556.293 453.57 552.734C455.853 551.843 460.151 553 458.597 554.736C456.884 556.648 451.963 560.983 441.397 561.653Z" fill="#F37A50"/>
<path d="M384.796 530.07C382.094 529.742 379.528 532.824 379.064 536.954C378.599 541.085 380.413 544.699 383.115 545.028C385.817 545.356 388.383 542.274 388.847 538.144C389.312 534.013 387.498 530.399 384.796 530.07Z" fill="#413D83"/>
<path d="M386.897 530.342C384.195 530.013 381.629 533.095 381.165 537.225C380.701 541.356 382.514 544.97 385.216 545.298C387.918 545.627 390.484 542.545 390.948 538.415C391.413 534.285 389.599 530.67 386.897 530.342Z" fill="#673AB7"/>
<path d="M384.364 531.456C384.364 531.456 380.73 509.755 361.627 517.596C362.815 514.271 382.085 507.076 387.648 530.744C386.527 532.163 384.364 531.456 384.364 531.456Z" fill="#673AB7"/>
<path d="M186.158 716.175H186.388C188.254 716.175 189.767 714.602 189.767 712.661V652.566H182.778V712.661C182.778 714.602 184.291 716.175 186.158 716.175Z" fill="#413D83"/>
<path d="M161.637 716.175H161.868C163.734 716.175 165.247 714.602 165.247 712.661V652.566H158.258V712.661C158.258 714.602 159.771 716.175 161.637 716.175Z" fill="#413D83"/>
<path d="M126.084 712.777C126.084 714.654 127.649 716.175 129.579 716.175C131.509 716.175 133.073 714.654 133.073 712.777V652.566H126.084V712.777H126.084Z" fill="#413D83"/>
<path d="M104.944 716.175H105.175C107.041 716.175 108.554 714.602 108.554 712.661V652.566H101.565V712.661C101.565 714.602 103.078 716.175 104.944 716.175Z" fill="#413D83"/>
<path d="M143.722 557.008V633.631C143.722 634.503 144.401 635.21 145.24 635.21H190.92C195.529 635.21 199.265 639.095 199.265 643.888C199.265 648.681 195.529 652.566 190.92 652.566H143.722H135.377C130.768 652.566 127.032 648.681 127.032 643.888V635.21V557.008C127.032 552.215 130.768 548.329 135.377 548.329C139.986 548.329 143.722 552.214 143.722 557.008Z" fill="#673AB7"/>
<path d="M135.377 548.328H99.2603V636.616H135.377V548.328Z" fill="#673AB7"/>
<path d="M107.606 557.008V633.631C107.606 634.503 108.285 635.21 109.124 635.21H154.804C159.413 635.21 163.149 639.095 163.149 643.888C163.149 648.681 159.413 652.566 154.804 652.566H107.606H99.2605C94.6521 652.566 90.9155 648.681 90.9155 643.888V635.21V557.008C90.9155 552.215 94.6517 548.329 99.2605 548.329C103.869 548.329 107.606 552.214 107.606 557.008Z" fill="#413D83"/>
<path d="M164.586 545.092C173.791 548 178.372 568.153 182.291 589.248C187.586 596.476 193.265 600.447 201.565 608.97C195.941 610.295 189.989 608.743 189.989 608.743C189.989 608.743 174.698 608.879 168.064 593.843C166.546 590.402 166.029 583.479 165.169 580.402C164.791 570.755 164.586 545.092 164.586 545.092Z" fill="#C4204A"/>
<path d="M218.431 705.784L226.722 707.968L230.108 700.288C229.756 700.017 229.213 694.912 228.88 691.026L215.498 692.946C216.154 696.866 217.26 701.994 218.431 705.784Z" fill="#F37A50"/>
<path d="M233.062 710.311C233.062 710.311 235.929 705.298 239.561 704.983C239.561 704.983 246.416 705.391 248.821 708.389C249.576 709.331 249.286 711.341 248.988 712.627C248.801 713.431 248.146 714.303 246.12 714.965C243.128 715.945 239.091 716.544 231.656 714.54C222.735 712.135 221.312 713.126 218.015 712.021C214.598 710.876 215.696 706.533 216.628 702.302C216.628 702.302 219.115 707.479 233.062 710.311Z" fill="#201D40"/>
<path d="M230.333 699.537C230.333 699.537 234.314 702.045 239.52 703.288C242.432 703.983 250.196 705.549 248.946 710.932C248.759 711.735 248.105 712.607 246.079 713.27C243.086 714.249 239.05 714.849 231.614 712.845C222.694 710.44 221.27 711.43 217.974 710.325C214.557 709.18 216.134 704.25 217.066 700.02C217.15 701.094 217.628 703.911 223.826 706.435C225.676 707.188 224.164 698.703 230.333 699.537Z" fill="#2C2858"/>
<path d="M229.174 706.022C229.471 706.002 229.735 705.785 229.81 705.468C230.44 702.835 233.056 702.649 233.167 702.641C233.554 702.618 233.852 702.273 233.832 701.871C233.811 701.469 233.483 701.159 233.095 701.179C231.795 701.243 229.152 702.153 228.444 705.115C228.35 705.507 228.58 705.905 228.957 706.002C229.03 706.021 229.103 706.027 229.174 706.022Z" fill="#494C7F"/>
<path d="M232.443 707.385C232.74 707.364 233.004 707.148 233.079 706.83C233.709 704.198 236.325 704.012 236.436 704.004C236.823 703.981 237.121 703.637 237.101 703.234C237.08 702.831 236.751 702.522 236.364 702.542C235.064 702.606 232.421 703.517 231.713 706.478C231.619 706.87 231.849 707.268 232.226 707.365C232.299 707.384 232.372 707.39 232.443 707.385Z" fill="#494C7F"/>
<path d="M186.045 709.031L194.167 711.817L198.065 704.403C197.731 704.107 196.565 698.715 196.495 694.815L183.987 696.01C184.377 699.969 185.133 705.165 186.045 709.031Z" fill="#F37A50"/>
<path d="M172.564 612.871C191.083 616.389 217.384 628.864 219.978 631.702C225.337 637.564 227.961 657.727 230.488 693.636L214.281 694.761C208.299 666.708 202.671 654.477 201.753 643.084C201.753 643.084 187.55 644.106 166.18 635.529C155.645 631.302 144.667 626.369 147.827 616.471C150.344 608.585 154.907 609.517 172.564 612.871Z" fill="#201D40"/>
<path d="M151.852 614.548C167.237 616.202 187.759 634.511 190.353 637.349C195.712 643.211 196.387 663.23 198.914 699.14L182.785 700.687C180.173 682.083 172.54 660.767 172.562 647.108C172.562 647.108 158.125 643.852 135.777 638.626C123.552 635.766 119.883 633.796 117.545 625.494C116.749 622.669 115.671 616.125 116.891 614.665C122.29 608.203 137.289 612.984 151.852 614.548Z" fill="#2C2858"/>
<path d="M200.333 714.618C200.333 714.618 203.532 709.827 207.177 709.778C207.177 709.778 213.988 710.687 216.183 713.854C216.873 714.849 216.448 716.832 216.063 718.093C215.822 718.881 215.11 719.703 213.044 720.216C209.993 720.974 205.926 721.276 198.644 718.733C189.909 715.681 188.421 716.565 185.208 715.222C181.877 713.83 183.266 709.578 184.482 705.426C184.482 705.426 186.612 710.772 200.333 714.618Z" fill="#201D40"/>
<path d="M198.34 703.67C198.34 703.67 202.142 706.464 207.251 708.084C210.109 708.991 217.747 711.121 216.136 716.4C215.895 717.187 215.184 718.008 213.117 718.522C210.066 719.28 205.999 719.583 198.718 717.039C189.982 713.988 188.495 714.871 185.281 713.528C181.95 712.136 183.857 707.334 185.073 703.182C185.084 704.259 185.37 707.105 191.382 710.076C193.177 710.962 192.242 702.388 198.34 703.67Z" fill="#2C2858"/>
<path d="M195.383 710.336C195.68 710.315 195.944 710.098 196.019 709.782C196.649 707.149 199.265 706.963 199.376 706.955C199.763 706.932 200.061 706.587 200.04 706.185C200.02 705.782 199.692 705.473 199.304 705.492C198.004 705.556 195.361 706.467 194.653 709.429C194.559 709.821 194.789 710.218 195.166 710.316C195.239 710.334 195.312 710.341 195.383 710.336Z" fill="#494C7F"/>
<path d="M198.653 711.698C198.95 711.678 199.214 711.462 199.289 711.144C199.919 708.512 202.535 708.326 202.646 708.318C203.033 708.295 203.331 707.95 203.311 707.548C203.29 707.145 202.962 706.836 202.574 706.856C201.274 706.92 198.631 707.83 197.923 710.792C197.829 711.184 198.059 711.581 198.436 711.679C198.509 711.697 198.582 711.704 198.653 711.698Z" fill="#494C7F"/>
<path d="M141.692 528.962H141.7L147.838 528.986L149.229 544.065L142.062 548L134.421 544.109L135.656 528.986L141.692 528.962Z" fill="#DE623C"/>
<path d="M140.889 527.198C135.597 529.137 131.198 522.578 131.198 522.578C127.745 522.782 127.563 519.202 127.563 519.202C125.874 519.067 123.389 517.794 123.391 514.5C123.393 511.711 125.923 511.252 125.576 508.068C125.296 505.513 122.257 499.799 129.813 497.542C129.813 497.542 129.002 492.861 133.363 490.681C138.709 488.009 140.863 491.209 143.47 491.265C146.383 491.328 151.751 487.305 153.956 493.771C153.956 493.771 157.918 492.949 160.373 495.511C162.66 497.897 162.435 501.679 161.581 503.25C161.581 503.25 164.983 503.634 166.38 506.579C167.316 508.553 167.115 511.433 165.398 513.208C164.305 514.338 163.113 514.696 163.113 514.696C161.87 515.216 162.563 518.83 161.575 519.79C159.99 521.33 158.176 522.579 156.294 523.671L140.889 527.198Z" fill="#2C2858"/>
<path d="M130.291 518.997C131.303 529.52 139.817 538.073 147.764 537.247C155.711 536.42 160.081 526.527 159.069 516.004C158.058 505.48 150.795 497.619 142.848 498.446C134.901 499.273 129.279 508.473 130.291 518.997Z" fill="#F37A50"/>
<path d="M156.266 520.805C157.033 520.805 157.655 520.159 157.655 519.361C157.655 518.563 157.033 517.916 156.266 517.916C155.499 517.916 154.877 518.563 154.877 519.361C154.877 520.159 155.499 520.805 156.266 520.805Z" fill="black"/>
<path d="M145.657 521.107C146.487 521.107 147.16 520.406 147.16 519.543C147.16 518.679 146.487 517.979 145.657 517.979C144.826 517.979 144.153 518.679 144.153 519.543C144.153 520.406 144.826 521.107 145.657 521.107Z" fill="black"/>
<path d="M150.581 520.112C151.975 522.133 153.735 524.595 153.735 524.595C153.735 524.595 153.13 526.864 150.317 527.082C151.478 526.49 152.605 525.578 152.018 523.957C151.43 522.338 150.581 520.112 150.581 520.112Z" fill="#DE623C"/>
<path d="M142.363 518.222C142.312 518.206 142.261 518.184 142.213 518.156C141.88 517.96 141.763 517.52 141.951 517.174C142.466 516.228 143.978 514.598 146.011 515.198C146.38 515.313 146.593 515.705 146.489 516.088C146.384 516.471 146.001 516.693 145.633 516.585C144.127 516.141 143.167 517.867 143.158 517.885C142.996 518.18 142.664 518.312 142.363 518.222Z" fill="#2C2858"/>
<path d="M154.85 516.935C154.755 516.906 154.666 516.851 154.592 516.772C154.372 516.531 154.382 516.151 154.613 515.923C154.649 515.887 155.515 515.047 156.676 515.165C157.469 515.246 158.175 515.736 158.777 516.621C158.961 516.892 158.899 517.267 158.638 517.459C158.378 517.65 158.017 517.585 157.833 517.315C157.434 516.727 157.007 516.406 156.562 516.361C155.932 516.296 155.413 516.788 155.409 516.794C155.255 516.945 155.041 516.992 154.85 516.935Z" fill="#2C2858"/>
<path d="M160.92 505.311L143.154 494.838L126.326 509.163L131.637 522.833C130.745 516.164 135.053 517.405 136.648 515.035C138.265 512.633 138.51 509.397 143.833 511.002C143.833 511.002 147.119 507.36 149.918 510.81C152.082 513.479 154.044 512.429 156.152 512.117C158.638 511.75 158.573 514.355 160.051 513.936L160.92 505.311Z" fill="#2C2858"/>
<path d="M132.972 523.797C134.366 522.368 134.135 519.775 132.457 518.003C130.779 516.232 128.289 515.954 126.895 517.382C125.501 518.81 125.731 521.404 127.409 523.176C129.087 524.947 131.578 525.225 132.972 523.797Z" fill="#F37A50"/>
<path d="M130.76 523.031C130.834 523.004 130.904 522.959 130.963 522.898C131.808 522.002 132.018 520.894 131.524 519.934C131.018 518.952 129.92 518.382 128.912 518.581C128.628 518.638 128.442 518.922 128.496 519.217C128.549 519.512 128.823 519.706 129.107 519.65C129.659 519.541 130.316 519.892 130.602 520.448C130.877 520.982 130.74 521.581 130.217 522.136C130.014 522.35 130.018 522.694 130.224 522.905C130.369 523.054 130.579 523.096 130.76 523.031Z" fill="#DE623C"/>
<path d="M153.853 530.407C154.11 530.081 153.871 529.595 153.466 529.625C152.438 529.701 150.739 529.789 149.125 529.709C147.511 529.627 145.829 529.369 144.812 529.191C144.412 529.122 144.13 529.581 144.355 529.932C145.049 531.009 146.509 532.666 148.983 532.79C151.456 532.913 153.062 531.411 153.853 530.407Z" fill="white"/>
<path d="M131.208 527.988C133.928 527.988 136.133 524.617 136.133 520.458C136.133 516.3 133.928 512.929 131.208 512.929C128.488 512.929 126.283 516.3 126.283 520.458C126.283 524.617 128.488 527.988 131.208 527.988Z" fill="black"/>
<path d="M129.071 527.988C131.792 527.988 133.997 524.617 133.997 520.458C133.997 516.3 131.792 512.929 129.071 512.929C126.351 512.929 124.146 516.3 124.146 520.458C124.146 524.617 126.351 527.988 129.071 527.988Z" fill="#673AB7"/>
<path d="M131.466 514.375C131.466 514.375 133.966 495.833 158.152 504.549C157.344 501.102 136.452 490.436 128.284 513.272C129.238 514.816 131.466 514.375 131.466 514.375Z" fill="#673AB7"/>
<path d="M128.802 547.83C133.26 546.266 137.95 545.539 142.653 545.683C158.581 545.683 161.02 549.868 161.02 549.771L149.199 583.529L142.653 586.889L135.488 584.681C135.488 584.681 126.199 548.836 128.802 547.83Z" fill="#FFD0B7"/>
<path d="M116.895 614.955C116.895 614.955 129.741 616.334 141.779 616.417C153.818 616.325 166.664 613.896 166.664 613.896C166.664 613.896 165.046 590.904 165.211 582.073C165.445 571.934 164.586 558.49 164.586 545.091C164.586 545.091 156.047 543.662 151.23 543.044C150.447 542.943 149.763 542.865 149.228 542.817C149.228 542.817 146.484 548.805 134.525 542.817C133.897 542.752 133.119 542.755 132.25 542.808C127.226 543.12 119.135 545.092 119.135 545.092C119.135 558.455 118.616 571.55 118.79 581.691C118.256 590.736 116.895 614.955 116.895 614.955Z" fill="#E62552"/>
<path d="M148.566 574.057L151.481 572.301C151.481 572.301 152.288 568.001 156.968 567.898C158.255 569.415 154.35 570.669 155.66 572.301C155.66 572.301 156.762 574.251 162.906 571.803C165.318 570.788 167.432 570.969 168.591 573.833C169.616 576.368 166.516 581.078 161.183 581.895C154.283 582.952 149.396 581.661 149.396 581.661L148.566 574.057Z" fill="#F37A50"/>
<path d="M121.597 578.65C131.338 577.942 147.956 572.938 147.956 572.938C150.615 577.18 149.879 582.815 149.879 582.815C134.752 596.608 111.984 601.067 104.999 597.747C98.621 594.716 103.123 554.34 119.136 545.092L119.691 545.146C125.181 554.806 121.597 578.65 121.597 578.65Z" fill="#C4204A"/>
<path d="M132.25 542.808V542.81C133.082 544.254 134.259 545.347 135.919 546.215C138.547 547.594 142.119 548.179 144.318 548C146.059 547.858 147.991 547.119 149.229 546.099C150.543 545.014 151.114 543.631 151.231 543.045C150.448 542.944 149.644 542.817 149.109 542.769C149.109 542.769 146.485 548.806 134.526 542.817C133.898 542.752 133.12 542.755 132.25 542.808Z" fill="#C4204A"/>
<path d="M85.1078 616.38H403.59C406.059 616.38 408.061 614.298 408.061 611.729C408.061 609.161 406.059 607.079 403.59 607.079H85.1078C82.6381 607.079 80.6362 609.161 80.6362 611.729C80.6362 614.298 82.6381 616.38 85.1078 616.38Z" fill="white"/>
<path d="M171.666 607.2H223.157L233.321 573.591C233.791 572.038 232.676 570.459 231.111 570.459H184.476C183.464 570.459 182.57 571.142 182.266 572.146L171.666 607.2Z" fill="#413D83"/>
<path d="M175.572 607.2H227.063L237.227 573.591C237.697 572.038 236.582 570.459 235.018 570.459H188.383C187.371 570.459 186.476 571.142 186.173 572.146L175.572 607.2Z" fill="#673AB7"/>
<path d="M210.185 586.721C208.372 586.185 206.443 587.434 205.876 589.51C205.309 591.586 206.319 593.703 208.131 594.239C209.944 594.774 211.873 593.526 212.44 591.45C213.008 589.374 211.998 587.257 210.185 586.721Z" fill="#55AB65"/>
<path d="M142.412 603.691H175.571V607.116H139.119C139.119 605.224 140.593 603.691 142.412 603.691Z" fill="#413D83"/>
<path d="M265.259 454.584H311.856C315.531 454.584 318.511 451.485 318.511 447.662V426.984C318.511 423.16 315.531 420.062 311.856 420.062H265.259C261.584 420.062 258.604 423.16 258.604 426.984V447.662C258.604 451.485 261.584 454.584 265.259 454.584Z" fill="white"/>
<path d="M342.411 514.374H281.919C277.147 514.374 273.279 510.351 273.279 505.388V478.542C273.279 473.579 277.148 469.556 281.919 469.556H342.411C347.183 469.556 351.051 473.579 351.051 478.542V505.388C351.051 510.351 347.183 514.374 342.411 514.374Z" fill="white"/>
<path d="M300.792 454.584V472.531L311.539 454.584H300.792Z" fill="white"/>
<path d="M340.038 512.365V529.05C340.038 530.39 338.305 530.821 337.722 529.627L329.29 512.365H340.038Z" fill="white"/>
<path d="M268.305 434.073H308.81C310.773 434.073 312.364 432.419 312.364 430.378C312.364 428.337 310.773 426.683 308.81 426.683H268.305C266.343 426.683 264.752 428.337 264.752 430.378C264.752 432.419 266.343 434.073 268.305 434.073Z" fill="#E3EAFF"/>
<path d="M268.305 446.007H308.81C310.773 446.007 312.364 444.352 312.364 442.312C312.364 440.27 310.773 438.617 308.81 438.617H268.305C266.343 438.617 264.752 440.271 264.752 442.312C264.752 444.352 266.343 446.007 268.305 446.007Z" fill="#E3EAFF"/>
<path d="M340.91 483.563H284.149C281.966 483.563 280.196 481.722 280.196 479.452C280.196 477.182 281.966 475.342 284.149 475.342H340.91C343.093 475.342 344.863 477.183 344.863 479.452C344.863 481.723 343.093 483.563 340.91 483.563Z" fill="#E3EAFF"/>
<path d="M340.91 496.603H284.149C281.966 496.603 280.196 494.762 280.196 492.492C280.196 490.222 281.966 488.381 284.149 488.381H340.91C343.093 488.381 344.863 490.222 344.863 492.492C344.863 494.762 343.093 496.603 340.91 496.603Z" fill="#E3EAFF"/>
<path d="M341.491 509.642H305.065C303.202 509.642 301.692 508.072 301.692 506.135V504.928C301.692 502.991 303.202 501.42 305.065 501.42H341.491C343.353 501.42 344.863 502.991 344.863 504.928V506.135C344.863 508.072 343.353 509.642 341.491 509.642Z" fill="#E3EAFF"/>
<path d="M163.832 473.774H211.214C214.952 473.774 217.982 470.623 217.982 466.736V445.707C217.982 441.821 214.952 438.669 211.214 438.669H163.832C160.094 438.669 157.064 441.821 157.064 445.707V466.736C157.064 470.623 160.094 473.774 163.832 473.774Z" fill="white"/>
<path d="M165.691 472.202V485.27C165.691 486.319 167.048 486.657 167.505 485.722L174.109 472.202H165.691Z" fill="white"/>
<path d="M165.008 449.641H209.468C211.178 449.641 212.564 448.199 212.564 446.421C212.564 444.642 211.178 443.201 209.468 443.201H165.008C163.298 443.201 161.912 444.642 161.912 446.421C161.912 448.199 163.298 449.641 165.008 449.641Z" fill="#E3EAFF"/>
<path d="M165.008 459.854H209.468C211.178 459.854 212.564 458.413 212.564 456.635C212.564 454.857 211.178 453.415 209.468 453.415H165.008C163.298 453.415 161.912 454.857 161.912 456.635C161.912 458.413 163.298 459.854 165.008 459.854Z" fill="#E3EAFF"/>
<path d="M164.553 470.068H193.084C194.543 470.068 195.726 468.839 195.726 467.321V466.376C195.726 464.859 194.543 463.629 193.084 463.629H164.553C163.094 463.629 161.911 464.859 161.911 466.376V467.321C161.912 468.839 163.094 470.068 164.553 470.068Z" fill="#E3EAFF"/>
<path d="M644.079 136.501C642.891 137.89 640.702 139.955 639.277 141.497L635.035 140.259C633.762 134.465 636.392 128.497 636.624 127.773C637.225 125.894 637.395 124.972 637.687 124.936C637.978 124.899 639.713 125.154 638.923 127.917C637.931 131.386 641.621 131.667 644.737 124.589C645.517 122.817 647.828 122.886 647.885 124.708C647.948 126.715 649.487 130.183 644.079 136.501Z" fill="#F37A50"/>
<path d="M611.052 159.29C609.977 162.093 615.501 169.198 616.505 169.041C627.718 162.937 639.276 141.497 639.276 141.497L637.317 137.02C637.317 137.02 624.414 150.026 611.052 159.29Z" fill="#F37A50"/>
<path d="M591.129 140.337C595.189 148.069 613.717 168.554 616.747 169.027L619.961 158.256C619.961 158.256 603.664 133.948 600.771 130.05C595.777 123.288 584.477 127.727 591.129 140.337Z" fill="#F37A50"/>
<path d="M648.45 124.166L639.087 138.674C638.711 139.254 637.954 139.409 637.395 139.019L635.51 137.702C634.951 137.312 634.802 136.524 635.177 135.944L644.541 121.436C644.917 120.855 645.673 120.7 646.232 121.09L648.118 122.407C648.676 122.797 648.825 123.584 648.45 124.166Z" fill="#201D40"/>
<path d="M647.618 123.575L638.254 138.082C637.879 138.664 637.122 138.819 636.563 138.428L634.677 137.112C634.118 136.722 633.97 135.934 634.345 135.353L643.709 120.846C644.084 120.264 644.841 120.11 645.4 120.5L647.285 121.816C647.844 122.207 647.993 122.994 647.618 123.575Z" fill="#95A6DB"/>
<path d="M643.749 131.616C643.987 130.54 643.757 126.043 645.069 126.084C645.387 126.208 645.495 126.87 645.495 126.87C645.694 126.208 646.127 123.29 647.161 123.827C648.036 124.655 647.884 125.287 647.884 125.287L643.749 131.616Z" fill="#F37A50"/>
<path d="M594.053 80.582C589.105 71.5768 570.374 74.0696 569.088 85.018C567.803 95.9668 568.933 103.116 555.885 102.338C545.494 101.718 535.514 112.072 536.487 127.196C537.731 146.546 550.14 138.12 547.766 147.885C545.391 157.651 544.089 167.479 557.409 166.87C570.729 166.261 582.129 153.908 579.564 138.287C576.997 122.665 588.85 124.092 591.17 116.117C594.467 104.778 594.053 80.582 594.053 80.582Z" fill="#16142B"/>
<path d="M593.079 112.95C593.079 112.95 594.641 125.559 595.057 128.834L583.329 128.16C585.544 121.806 580.512 106.402 580.512 106.402L593.079 112.95Z" fill="#DE623C"/>
<path d="M595.946 83.19C587.86 82.8103 580.928 91.1824 580.464 101.89C579.999 112.597 586.177 121.584 594.263 121.964C602.349 122.344 609.281 113.972 609.746 103.264C610.211 92.5572 604.032 83.5696 595.946 83.19Z" fill="#F37A50"/>
<path d="M606.201 107.829C606.979 107.829 607.609 107.173 607.609 106.365C607.609 105.556 606.979 104.901 606.201 104.901C605.424 104.901 604.793 105.556 604.793 106.365C604.793 107.173 605.424 107.829 606.201 107.829Z" fill="black"/>
<path d="M596.009 105.47C596.85 105.47 597.533 104.76 597.533 103.885C597.533 103.01 596.85 102.3 596.009 102.3C595.167 102.3 594.485 103.01 594.485 103.885C594.485 104.76 595.167 105.47 596.009 105.47Z" fill="black"/>
<path d="M593.257 102.657C593.371 102.635 593.479 102.574 593.561 102.475C594.751 101.049 596.822 101.321 596.843 101.324C597.132 101.365 597.399 101.154 597.439 100.853C597.479 100.552 597.278 100.275 596.989 100.232C596.881 100.216 594.332 99.8675 592.76 101.754C592.569 101.983 592.593 102.332 592.814 102.531C592.941 102.645 593.104 102.685 593.257 102.657Z" fill="#2C2858"/>
<path d="M608.909 105.106C608.965 105.095 609.02 105.075 609.073 105.044C609.328 104.895 609.418 104.559 609.275 104.294C608.163 102.233 606.066 102.322 605.977 102.327C605.685 102.343 605.46 102.602 605.475 102.906C605.491 103.209 605.738 103.442 606.029 103.428C606.098 103.425 607.569 103.384 608.351 104.833C608.465 105.044 608.693 105.147 608.909 105.106Z" fill="#2C2858"/>
<path d="M602.279 107.32C602.802 108.337 603.227 109.35 603.807 110.026C604.002 110.254 603.987 110.608 603.778 110.822C602.914 111.706 601.002 112.075 599.852 112.222C599.684 112.243 599.618 112.003 599.771 111.928C601.066 111.294 601.702 110.732 601.994 110.407C602.14 110.245 602.199 110.022 602.159 109.804C602.068 109.305 601.891 108.29 601.809 107.468C601.781 107.184 602.15 107.069 602.279 107.32Z" fill="#DE623C"/>
<path d="M594.106 113.2C594.173 112.799 594.375 112.467 594.726 112.647C595.619 113.106 597.107 113.831 598.579 114.373C600.05 114.914 601.646 115.323 602.617 115.55C602.999 115.64 602.965 116.036 602.766 116.386C601.937 117.837 599.657 118.969 597.401 118.139C595.145 117.309 593.855 114.695 594.106 113.2Z" fill="white"/>
<path d="M580.546 102.46C586.503 103.377 591.519 99.3063 595.782 96.3843C600.455 96.0631 606.068 92.0987 606.942 90.4203C606.827 83.9999 603.161 78.0655 590.764 80.4903C584.756 81.6655 573.831 92.3331 580.546 102.46Z" fill="#201D40"/>
<path d="M592.514 95.0203C592.514 95.0203 604.608 97.7119 609.756 103.262C615.858 98.4207 611.776 92.2651 606.692 88.7087C602.29 89.0607 592.514 95.0203 592.514 95.0203Z" fill="#201D40"/>
<path d="M583.779 108.905C585.382 107.69 585.525 105.054 584.098 103.017C582.671 100.98 580.215 100.313 578.612 101.528C577.009 102.742 576.866 105.378 578.292 107.415C579.719 109.452 582.176 110.119 583.779 108.905Z" fill="#F37A50"/>
<path d="M581.648 107.799C581.726 107.784 581.803 107.75 581.87 107.697C582.847 106.931 583.217 105.854 582.86 104.815C582.495 103.75 581.476 103.009 580.437 103.051C580.144 103.063 579.917 103.319 579.928 103.623C579.94 103.927 580.186 104.165 580.478 104.152C581.048 104.129 581.656 104.583 581.862 105.185C582.061 105.763 581.837 106.343 581.233 106.817C580.999 107 580.952 107.346 581.128 107.589C581.254 107.761 581.456 107.835 581.648 107.799Z" fill="#DE623C"/>
<path d="M668.377 238.466L672.551 244.537C672.551 244.537 676.279 249.478 680.722 247.158C685.166 244.838 683.196 237.415 683.196 237.415L678.091 230.425L668.377 238.466Z" fill="#F37A50"/>
<path d="M683.022 236.612C683.022 236.612 687.509 236.568 692.384 234.84C695.111 233.874 702.24 231.063 703.84 236.136C704.079 236.893 703.967 237.953 702.63 239.565C700.654 241.947 697.637 244.568 690.563 246.847C682.077 249.581 681.392 251.144 678.151 251.978C674.792 252.841 673.68 247.968 672.38 244.007C672.973 244.843 674.739 246.901 681.052 245.701C682.936 245.342 677.557 239.182 683.022 236.612Z" fill="#2C2858"/>
<path d="M633.032 259.338V263.455C633.032 263.455 633.301 269.73 638.214 270.53C643.125 271.331 645.673 264.101 645.673 264.101L645.493 257.616L633.032 259.338Z" fill="#F37A50"/>
<path d="M597.536 200.075L645.207 197.958C645.207 197.958 647.559 185.584 645.79 180.678C644.021 175.773 600.222 176.784 600.222 176.784L597.536 200.075Z" fill="#211F43"/>
<path d="M583.516 168.305C582.225 171.41 577.19 180.65 577.677 188.14C578.178 195.872 583.423 202.602 592.3 202.456C592.3 202.456 609.031 192.565 605.409 172.304C605.409 172.304 596.651 168.746 583.516 168.305Z" fill="#413D83"/>
<path d="M590.977 204.22L632.969 208.34C632.969 208.34 647.373 202.018 647.291 196.649C647.209 191.281 604.899 176.59 604.899 176.59C580.084 169.064 571.812 201.095 590.977 204.22Z" fill="#413D83"/>
<path d="M647.29 196.65L646.449 258.249C646.449 258.249 635.966 262.844 632.292 258.284C630.559 237.378 622.304 218.857 631.52 206.111C643.863 189.041 647.29 196.65 647.29 196.65Z" fill="#413D83"/>
<path d="M645.688 180.534L680.632 230.442C680.632 230.442 672.833 241.282 667.387 240.013C657.991 227.649 638.979 213.15 638.857 197.59C638.695 176.75 645.688 180.534 645.688 180.534Z" fill="#211F43"/>
<path d="M583.447 123.108C583.447 123.108 593.356 130.013 594.501 125.13C597.184 127.064 606.558 133.306 607.642 139.395C608.695 145.312 605.45 172.568 605.45 172.568C595.577 176.395 586.988 177.036 579.764 174.294C581.485 158.679 566.927 143.005 573.872 131.088C575.605 128.115 582.46 126.537 583.447 123.108Z" fill="#E62552"/>
<path d="M645.981 263.342C645.981 263.342 649.656 266.02 654.587 267.564C657.346 268.427 664.717 270.452 663.183 275.547C662.954 276.308 662.271 277.102 660.281 277.605C657.341 278.346 653.421 278.654 646.392 276.23C637.96 273.321 636.529 274.178 633.426 272.896C630.21 271.566 632.031 266.929 633.189 262.922C633.204 263.96 633.49 266.703 639.296 269.544C641.029 270.392 640.098 262.128 645.981 263.342Z" fill="#2C2858"/>
<path d="M561.677 174.118C563.879 172.626 570.375 178.74 570.42 179.694C565.46 190.987 551.78 203.703 551.78 203.703L548.421 200.142C548.421 200.142 556.149 188.103 561.677 174.118Z" fill="#F37A50"/>
<path d="M583.566 143.552C582.488 151.957 572.815 177.738 570.42 179.694L561.677 174.118C561.677 174.118 570.181 142.318 571.485 137.776C573.725 129.906 585.351 129.833 583.566 143.552Z" fill="#F37A50"/>
<path d="M543.464 201.812C545.244 201.414 547.429 201.693 548.421 200.142L552.094 203.388C549.79 208.948 542.877 211.805 542.152 211.989C540.267 212.466 539.409 212.811 539.221 212.569C539.034 212.328 538.306 210.632 541.028 209.847C544.444 208.861 541.71 206.334 535.055 210.206C533.388 211.174 529.931 210.806 530.938 209.273C532.046 207.583 535.364 203.626 543.464 201.812Z" fill="#F37A50"/>
<path d="M580.492 111.502C583.137 111.502 585.282 108.224 585.282 104.18C585.282 100.136 583.137 96.8585 580.492 96.8585C577.847 96.8585 575.703 100.136 575.703 104.18C575.703 108.224 577.847 111.502 580.492 111.502Z" fill="black"/>
<path d="M578.415 111.502C581.06 111.502 583.205 108.224 583.205 104.18C583.205 100.136 581.06 96.8585 578.415 96.8585C575.77 96.8585 573.625 100.136 573.625 104.18C573.625 108.224 575.77 111.502 578.415 111.502Z" fill="#673AB7"/>
<path d="M580.744 98.2648C580.744 98.2648 583.174 80.234 606.693 88.7092C605.907 85.3576 585.592 74.9856 577.649 97.192C578.577 98.6936 580.744 98.2648 580.744 98.2648Z" fill="#673AB7"/>
<path d="M660.836 611.085L648.254 624.454L662.103 617.98L660.836 611.085Z" fill="#413D83"/>
<path d="M677.558 674.408C672.427 673.545 664.241 675.892 659.664 673.332C650.772 678.001 639.551 684.306 639.551 684.306C645.11 690.542 662.807 701.252 662.807 701.252C672.195 696.632 681.486 691.723 691.786 690.347C690.795 684.997 688.912 679.805 686.442 675.001C683.471 675.103 680.492 674.902 677.558 674.408Z" fill="#201D40"/>
<path d="M670.957 604.407C666.473 606.675 664.814 608.046 660.836 611.084C661.298 618.666 659.999 627.871 662.153 635.131C665.67 646.984 662.991 664.92 655.981 674.957C661.359 692.388 687.334 691.56 698.649 689.649C704.297 676.806 704.18 661.02 708.426 638.107L706.946 608.922C700.388 604.162 690.313 602.709 690.313 602.709C690.313 602.709 676.499 601.604 670.957 604.407Z" fill="#673AB7"/>
<path d="M631.049 692.325C639.302 699.074 648.888 705.434 658.262 710.351C662.352 706.869 662.82 705.654 663.915 700.276C656.838 693.637 649.564 687.814 642.245 681.465C637.905 685.455 631.049 692.325 631.049 692.325Z" fill="#F37A50"/>
<path d="M628.527 709.956C629.415 713.952 630.534 717.771 631.71 721.686C640.623 720.384 649.633 718.232 657.971 714.71C657.335 709.073 656.846 703.426 656.21 697.788C647.871 703.684 638.404 707.844 628.527 709.956Z" fill="#F37A50"/>
<path d="M695.138 676.277L655.739 699.612L660.71 711.103C666.025 713.882 684.245 716.586 693.103 711.33C703.302 705.278 702.018 679.289 695.138 676.277Z" fill="#201D40"/>
<path d="M676.3 720.737L683.177 706.778C683.177 706.778 679.014 706.847 676.686 711.573C675.119 714.753 675.423 718.708 676.3 720.737Z" fill="white"/>
<path d="M663.888 706.037C662.781 708.274 663.492 712.345 663.813 712.548C665.116 713.371 667.508 715.278 668.54 716.044C669.448 716.718 674.498 721.561 674.498 721.561L677.136 722.088L681.847 713.096L683.165 705.712C683.165 705.712 679.839 705.417 677.779 704.863C675.01 704.118 672.006 702.532 669.279 701.53C668.854 701.374 665.387 703.01 663.888 706.037Z" fill="#E62552"/>
<path d="M678.619 712.547C676.854 716.124 676.351 722.047 674.498 721.561C674.498 721.561 676.236 725.22 679.607 725.343C681.049 724.048 683.255 720.493 685.317 716.852C687.379 713.21 688.583 708.431 688.583 708.431C688.583 708.431 685.276 705.889 683.165 705.712C683.543 706.471 680.1 709.544 678.619 712.547Z" fill="white"/>
<path d="M695.138 676.277C686.798 670.787 672.283 689.825 639.17 705.113C641.344 709.32 643.634 715.538 645.55 720.089C645.55 720.089 673.583 714.324 689.833 702.414C699.044 704.224 700.188 697.318 700.252 696.87C701.321 687.888 698.871 678.734 695.138 676.277Z" fill="#2C2858"/>
<path d="M615.459 684.798C619.989 691.167 645.216 703.817 645.216 703.817L654.324 690.011C650.144 686.754 628.527 669.514 621.55 669.516C617.585 670.456 609.585 676.538 615.459 684.798Z" fill="#2C2858"/>
<path d="M616.446 712.008L621.551 728.473C621.551 728.473 624.747 725.043 623.018 719.468C621.855 715.716 618.653 712.878 616.446 712.008Z" fill="white"/>
<path d="M637.152 713.405C636.338 710.763 632.73 708.163 632.329 708.265C630.695 708.68 627.399 709.133 626.019 709.373C624.806 709.584 617.234 709.903 617.234 709.903L614.782 711.631L617.851 722.466L622.361 729.295C622.361 729.295 625.176 726.826 627.198 725.587C629.916 723.921 633.449 722.723 636.327 721.293C636.776 721.069 638.253 716.981 637.152 713.405Z" fill="#E62552"/>
<path d="M620.78 720.276C619.474 716.054 615.424 711.028 617.234 709.903C617.234 709.903 613.134 708.459 610.412 711.097C610.258 713.277 611.205 717.839 612.327 722.352C613.45 726.865 616.095 731.568 616.095 731.568C616.095 731.568 620.58 730.869 622.36 729.295C621.497 729.009 621.878 723.82 620.78 720.276Z" fill="white"/>
<path d="M684.438 580.423C683.691 580.452 682.952 580.591 682.243 580.837C682.048 580.904 681.942 581.122 682.007 581.324C682.06 581.486 682.204 581.589 682.359 581.589C682.399 581.589 682.438 581.582 682.477 581.569C683.12 581.346 683.789 581.22 684.465 581.194C684.67 581.186 684.83 581.007 684.822 580.794C684.815 580.581 684.64 580.412 684.438 580.423Z" fill="white"/>
<path d="M676.619 663.797C676.554 663.797 676.49 663.795 676.425 663.792C674.157 663.682 671.661 661.532 669.579 657.894L670.24 657.484C672.188 660.888 674.455 662.896 676.461 662.993C677.811 663.058 679.078 662.262 680.224 660.626C683.663 655.722 679.991 636.714 676.221 631C672.434 625.262 676.493 618.906 676.534 618.842L677.171 619.29C677.133 619.35 673.368 625.264 676.854 630.547C680.429 635.965 684.729 655.559 680.846 661.098C679.59 662.89 678.168 663.797 676.619 663.797Z" fill="white"/>
<path d="M683.311 590.645H683.304L677.138 590.669L675.742 605.813C675.742 605.813 677.878 609.962 682.939 609.766C688.001 609.57 690.614 605.858 690.614 605.858L689.658 590.533L683.311 590.645Z" fill="#F37A50"/>
<path d="M678.297 599.129C686.285 599.901 693.525 591.953 694.47 581.376C695.415 570.8 689.706 561.601 681.719 560.829C673.732 560.057 666.491 568.006 665.546 578.582C664.601 589.158 670.31 598.358 678.297 599.129Z" fill="#F37A50"/>
<path d="M668.209 581.741C668.979 581.741 669.604 581.091 669.604 580.29C669.604 579.489 668.979 578.839 668.209 578.839C667.439 578.839 666.814 579.489 666.814 580.29C666.814 581.091 667.439 581.741 668.209 581.741Z" fill="black"/>
<path d="M679.33 582.989C680.164 582.989 680.84 582.286 680.84 581.418C680.84 580.551 680.164 579.848 679.33 579.848C678.496 579.848 677.82 580.551 677.82 581.418C677.82 582.286 678.496 582.989 679.33 582.989Z" fill="black"/>
<path d="M672.197 582.34C670.811 584.38 669.06 586.865 669.06 586.865C669.06 586.865 669.682 589.14 672.51 589.338C671.34 588.752 670.201 587.845 670.78 586.213C671.359 584.581 672.197 582.34 672.197 582.34Z" fill="#DE623C"/>
<path d="M683.141 580.194C683.192 580.178 683.243 580.156 683.291 580.127C683.624 579.928 683.739 579.485 683.547 579.138C683.024 578.192 681.495 576.566 679.457 577.183C679.086 577.301 678.876 577.696 678.983 578.08C679.091 578.464 679.477 578.685 679.846 578.573C681.355 578.116 682.331 579.842 682.341 579.86C682.505 580.157 682.839 580.287 683.141 580.194Z" fill="#201D40"/>
<path d="M670.096 577.372C670.191 577.343 670.281 577.288 670.354 577.206C670.573 576.963 670.561 576.581 670.327 576.354C670.291 576.318 669.416 575.48 668.251 575.608C667.455 575.696 666.748 576.192 666.15 577.086C665.967 577.36 666.032 577.735 666.295 577.926C666.558 578.116 666.92 578.049 667.103 577.775C667.5 577.182 667.927 576.856 668.373 576.808C669.006 576.738 669.529 577.229 669.534 577.235C669.689 577.386 669.905 577.431 670.096 577.372Z" fill="#201D40"/>
<path d="M697.425 572.802C697.907 562.742 688.919 559.814 688.919 559.814C688.919 559.814 690.877 559.006 690.28 555.995C688.913 556.948 687.216 557.432 685.575 557.331C674.511 556.647 667.646 558.816 668.913 563.263C669.363 564.846 662.269 565.828 665.855 576.304C666.09 575.542 666.9 570.428 669.004 569.304C671.115 568.178 669.978 571.898 674.824 571.128C679.713 570.352 682.83 568.102 686.485 569.972C689.415 571.683 694.34 585.236 693.692 585.758C695.703 584.137 697.213 577.223 697.425 572.802Z" fill="#201D40"/>
<path d="M665.684 584.347C665.684 584.347 666.84 590.025 668.098 591.504C668.265 589.032 670.655 590.862 672.332 590.586C676.387 589.921 683.039 586.399 685.47 592.27C690.684 592.37 693.127 580.873 693.127 580.873C696.778 592.645 690.585 600.172 677.986 601.628C668.972 602.669 664.51 593.093 665.684 584.347Z" fill="#201D40"/>
<path d="M677.145 593.181C677.862 592.752 678.573 592.177 679.273 591.457C679.456 591.27 679.458 590.964 679.278 590.775C679.098 590.585 678.805 590.583 678.622 590.77C677.067 592.365 675.495 593.168 673.949 593.155C672.037 593.139 670.799 591.849 670.786 591.836C670.607 591.646 670.313 591.642 670.13 591.828C669.947 592.013 669.942 592.317 670.121 592.508C670.181 592.573 671.621 594.092 673.924 594.12C675.004 594.133 676.082 593.818 677.145 593.181Z" fill="#DE623C"/>
<path d="M696.67 578.934C695.26 577.509 692.76 577.806 691.087 579.597C689.413 581.389 689.2 583.995 690.609 585.42C692.019 586.845 694.518 586.547 696.192 584.756C697.865 582.965 698.079 580.358 696.67 578.934Z" fill="#F37A50"/>
<path d="M692.51 581.283C691.643 581.922 691.453 583.194 692.086 584.123C692.72 585.052 693.936 585.287 694.804 584.647C695.671 584.008 695.861 582.736 695.228 581.807C694.594 580.878 693.378 580.643 692.51 581.283Z" fill="white"/>
<path d="M691.116 587.635L691.031 587.587C690.646 587.368 690.505 586.865 690.716 586.464L692.384 583.3C692.596 582.899 693.079 582.752 693.464 582.972L693.549 583.02C693.934 583.24 694.075 583.742 693.864 584.143L692.196 587.308C691.984 587.708 691.501 587.855 691.116 587.635Z" fill="white"/>
<path d="M645.838 657.52C645.763 657.544 645.687 657.559 645.612 657.567H645.366C644.914 657.517 644.512 657.196 644.368 656.717L632.815 617.98C632.792 617.902 632.778 617.823 632.77 617.745C632.764 617.693 632.767 617.643 632.768 617.592C632.769 617.562 632.765 617.531 632.768 617.5C632.77 617.473 632.779 617.447 632.783 617.421C632.853 616.981 633.149 616.595 633.587 616.453C633.657 616.431 633.73 616.413 633.806 616.404C633.891 616.395 633.975 616.396 634.057 616.404H663.14L674.794 657.567H645.817L645.838 657.52Z" fill="#E62552"/>
<path d="M662.876 616.452C663.495 616.253 664.152 616.612 664.345 617.256L675.825 655.896L675.851 655.987C676.041 656.629 675.697 657.308 675.083 657.51L675.082 657.512C674.463 657.712 673.805 657.353 673.613 656.709L662.103 617.98C661.911 617.336 662.256 616.652 662.876 616.452Z" fill="#8A284C"/>
<path d="M639.489 623.338C640.486 623.005 640.983 621.728 640.599 620.484C640.215 619.241 639.096 618.503 638.1 618.836C637.103 619.168 636.606 620.446 636.99 621.689C637.373 622.932 638.492 623.67 639.489 623.338Z" fill="#95A6DB"/>
<path d="M643.507 622.601C644.183 622.375 644.52 621.509 644.26 620.665C644 619.822 643.241 619.321 642.565 619.547C641.888 619.773 641.551 620.639 641.811 621.483C642.071 622.326 642.83 622.827 643.507 622.601Z" fill="#95A6DB"/>
<path d="M640.903 641.028C640.795 640.953 640.677 640.905 640.555 640.87C640.568 640.851 640.581 640.834 640.594 640.815C641.317 639.679 641.269 638.322 640.486 637.783C640.357 637.694 640.216 637.636 640.068 637.601C640.272 636.76 640.09 635.958 639.53 635.573C639.309 635.42 639.051 635.352 638.78 635.355C639.035 634.529 638.833 633.663 638.207 633.231C637.423 632.691 636.288 633.04 635.67 634.008C635.053 634.977 635.187 636.2 635.97 636.739C636.168 636.876 636.389 636.955 636.618 636.982C636.098 638.039 636.203 639.195 636.91 639.683C637.039 639.771 637.18 639.829 637.328 639.865C637.125 640.705 637.307 641.507 637.866 641.892C638.072 642.034 638.309 642.104 638.559 642.111C638.3 642.833 638.465 643.611 639.015 643.991C639.677 644.446 640.636 644.152 641.157 643.333C641.678 642.517 641.565 641.484 640.903 641.028Z" fill="#F37A50"/>
<path d="M676.658 638.58L674.006 636.982C674.006 636.982 673.272 633.072 669.015 632.977C669.503 634.618 670.205 636.982 670.205 636.982C670.205 636.982 668.11 638.674 663.14 635.779C658.281 634.643 660.357 638.327 658.746 638.591C656.37 638.982 660.478 643.837 665.329 644.581C671.606 645.542 672.351 644.205 672.351 644.205L675.903 645.497L676.658 638.58Z" fill="#F37A50"/>
<path d="M703.77 643.129C694.909 642.485 677.213 637.562 677.213 637.562C674.794 641.421 675.463 646.546 675.463 646.546C689.224 659.093 709.934 663.149 716.288 660.129C722.09 657.372 721.512 617.335 706.946 608.922L703.77 643.129Z" fill="#413D83"/>
<path d="M676.856 619.515L676.681 619.424C672.539 617.27 668.096 605.032 670.298 599.382L671.011 599.915C668.866 605.418 673.393 616.531 676.855 618.613C683.717 614.779 685.635 605.348 687.179 597.758C688.134 593.059 688.96 589.001 690.773 587.29L691.29 587.883C689.661 589.42 688.86 593.36 687.932 597.924C686.341 605.744 684.362 615.478 677.03 619.421L676.856 619.515Z" fill="white"/>
<path d="M685.647 607.173L685.265 607.077C684.958 607 684.769 606.678 684.843 606.358L685.66 602.851C685.734 602.531 686.044 602.334 686.351 602.412L686.733 602.508C687.04 602.585 687.229 602.907 687.155 603.227L686.339 606.734C686.264 607.054 685.954 607.25 685.647 607.173Z" fill="white"/>
<path d="M676.899 619.706C677.347 619.706 677.711 619.328 677.711 618.862C677.711 618.396 677.347 618.019 676.899 618.019C676.452 618.019 676.088 618.396 676.088 618.862C676.088 619.328 676.452 619.706 676.899 619.706Z" fill="white"/>
<path d="M893.622 485.999C888.163 485.999 883.722 481.38 883.722 475.703C883.722 470.026 888.163 465.407 893.622 465.407C899.081 465.407 903.522 470.026 903.522 475.703C903.522 481.38 899.081 485.999 893.622 485.999ZM893.622 468.243C889.667 468.243 886.449 471.589 886.449 475.703C886.449 479.817 889.667 483.163 893.622 483.163C897.578 483.163 900.795 479.817 900.795 475.703C900.795 471.59 897.578 468.243 893.622 468.243Z" fill="white"/>
<path d="M112.268 363.829C104.654 363.829 98.46 357.387 98.46 349.469C98.46 341.552 104.654 335.11 112.268 335.11C119.881 335.11 126.075 341.551 126.075 349.469C126.075 357.387 119.881 363.829 112.268 363.829ZM112.268 339.065C106.751 339.065 102.263 343.732 102.263 349.469C102.263 355.206 106.751 359.874 112.268 359.874C117.784 359.874 122.272 355.206 122.272 349.469C122.272 343.733 117.784 339.065 112.268 339.065Z" fill="#E3EAFF"/>
<path d="M539.945 645.905C534.487 645.905 530.045 641.287 530.045 635.609C530.045 629.933 534.487 625.314 539.945 625.314C545.404 625.314 549.845 629.933 549.845 635.609C549.846 641.287 545.405 645.905 539.945 645.905ZM539.945 628.149C535.99 628.149 532.772 631.496 532.772 635.609C532.772 639.723 535.99 643.07 539.945 643.07C543.901 643.07 547.118 639.723 547.118 635.609C547.119 631.496 543.901 628.149 539.945 628.149Z" fill="white"/>
<path d="M864.846 457.437C867.967 457.437 870.498 454.805 870.498 451.558C870.498 448.312 867.967 445.68 864.846 445.68C861.724 445.68 859.193 448.312 859.193 451.558C859.193 454.805 861.724 457.437 864.846 457.437Z" fill="white"/>
<path d="M67.4366 531.984C73.7728 531.984 78.9093 526.642 78.9093 520.053C78.9093 513.463 73.7728 508.121 67.4366 508.121C61.1004 508.121 55.9639 513.463 55.9639 520.053C55.9639 526.642 61.1004 531.984 67.4366 531.984Z" fill="white"/>
<path d="M901.433 360.172C908.381 360.172 914.014 354.314 914.014 347.088C914.014 339.861 908.381 334.003 901.433 334.003C894.484 334.003 888.852 339.861 888.852 347.088C888.852 354.314 894.484 360.172 901.433 360.172Z" fill="#E3EAFF"/>
<path d="M77.3758 503.9C81.041 503.9 84.0123 500.81 84.0123 496.998C84.0123 493.186 81.041 490.096 77.3758 490.096C73.7105 490.096 70.7393 493.186 70.7393 496.998C70.7393 500.81 73.7105 503.9 77.3758 503.9Z" fill="white"/>
<path d="M131.173 331.562C136.285 331.562 140.429 327.253 140.429 321.936C140.429 316.62 136.285 312.31 131.173 312.31C126.061 312.31 121.917 316.62 121.917 321.936C121.917 327.253 126.061 331.562 131.173 331.562Z" fill="#E3EAFF"/>
<path d="M550.543 617.444C554.208 617.444 557.179 614.354 557.179 610.542C557.179 606.73 554.208 603.64 550.543 603.64C546.878 603.64 543.906 606.73 543.906 610.542C543.906 614.354 546.878 617.444 550.543 617.444Z" fill="white"/>
<path d="M541.624 325.445C545.289 325.445 548.26 322.355 548.26 318.543C548.26 314.731 545.289 311.641 541.624 311.641C537.959 311.641 534.987 314.731 534.987 318.543C534.987 322.355 537.959 325.445 541.624 325.445Z" fill="white"/>
<path d="M901.144 649.493C904.81 649.493 907.781 646.403 907.781 642.591C907.781 638.779 904.81 635.689 901.144 635.689C897.479 635.689 894.508 638.779 894.508 642.591C894.508 646.403 897.479 649.493 901.144 649.493Z" fill="white"/>
</svg>
