<svg width="589" height="323" viewBox="0 0 589 323" fill="none" xmlns="http://www.w3.org/2000/svg">
<path d="M467.797 0H151.693C148.217 0 145.472 2.74479 145.472 6.22147V209.058C145.472 212.535 148.217 215.28 151.693 215.28H467.797C471.273 215.28 474.018 212.535 474.018 209.058V6.22147C474.018 2.83628 471.273 0 467.797 0Z" fill="#DBA8A7"/>
<path d="M467.797 0H151.693C150.046 0 148.491 0.640441 147.301 1.82983C146.112 3.01922 145.472 4.57462 145.472 6.22147V23.7878H474.018V6.22147C474.018 4.57462 473.377 3.01922 472.188 1.82983C470.999 0.640441 469.443 0 467.797 0Z" fill="#BB5A59"/>
<path d="M163.679 16.1942C166.058 16.1942 167.979 14.2727 167.979 11.8939C167.979 9.51515 166.058 7.59387 163.679 7.59387C161.3 7.59387 159.287 9.51515 159.287 11.8939C159.378 14.2727 161.3 16.1942 163.679 16.1942Z" fill="#ACAFE0"/>
<path d="M179.872 16.1942C182.251 16.1942 184.173 14.2727 184.173 11.8939C184.173 9.51515 182.251 7.59387 179.872 7.59387C177.494 7.59387 175.481 9.51515 175.481 11.8939C175.481 14.2727 177.494 16.1942 179.872 16.1942Z" fill="#ACAFE0"/>
<path d="M196.067 16.1942C198.445 16.1942 200.367 14.2727 200.367 11.8939C200.367 9.51515 198.445 7.59387 196.067 7.59387C193.688 7.59387 191.675 9.51515 191.675 11.8939C191.766 14.2727 193.688 16.1942 196.067 16.1942Z" fill="#ACAFE0"/>
<path d="M588.017 68.0699C588.108 68.0699 588.291 68.0699 588.382 68.0699C588.657 68.1614 588.84 68.3442 588.931 68.6187C589.023 68.8932 589.023 69.1677 588.931 69.3507C588.291 71.272 587.376 73.0105 586.37 74.7488C586.278 74.9318 586.004 75.1148 585.729 75.2063C585.455 75.2978 585.18 75.2062 584.997 75.1147C584.906 75.0232 584.814 74.9317 584.723 74.8402C584.631 74.7487 584.54 74.6573 584.54 74.4743C584.54 74.2913 584.54 74.1997 584.54 74.1082C584.54 74.0167 584.631 73.8338 584.631 73.7423C585.638 72.187 586.461 70.4486 587.01 68.7103C587.102 68.5273 587.193 68.3443 587.376 68.2528C587.65 68.1613 587.834 68.0699 588.017 68.0699Z" fill="#A52422"/>
<path d="M427.723 20.5856C427.814 20.5856 427.998 20.5856 428.089 20.5856L429.462 20.9517C432.664 21.8666 436.049 22.8729 439.526 23.8794C439.617 23.8794 439.8 23.9708 439.892 24.0623C439.983 24.1538 440.074 24.2453 440.166 24.3368C440.257 24.4283 440.258 24.6112 440.258 24.7027C440.258 24.7942 440.258 24.9773 440.258 25.0688C440.166 25.1603 440.166 25.3432 440.074 25.4347C439.983 25.5262 439.892 25.6177 439.8 25.7092C439.709 25.8007 439.526 25.8008 439.434 25.8008C439.343 25.8008 439.16 25.8007 439.068 25.7092C435.592 24.6113 432.298 23.6049 429.095 22.7815L427.723 22.4154C427.449 22.3239 427.266 22.1409 427.083 21.9579C426.991 21.6835 426.9 21.5007 426.991 21.2262C427.083 21.0432 427.174 20.8602 427.357 20.7687C427.357 20.6772 427.54 20.5856 427.723 20.5856ZM450.413 28.1794C450.596 28.1794 450.688 28.1794 450.871 28.1794C454.53 29.7348 458.098 31.5647 461.575 33.5776C461.666 33.669 461.758 33.7604 461.85 33.8518C461.941 33.9433 462.032 34.035 462.032 34.2179C462.032 34.3094 462.032 34.4923 462.032 34.5838C462.032 34.6753 461.941 34.8584 461.85 34.9499C461.758 35.0414 461.666 35.1327 461.575 35.2242C461.483 35.3157 461.3 35.4074 461.209 35.4074C461.118 35.4074 460.935 35.4074 460.843 35.4074C460.752 35.4074 460.569 35.3158 460.477 35.3158C457.092 33.303 453.615 31.5646 449.956 30.0092C449.681 29.9178 449.498 29.7349 449.407 29.4604C449.315 29.186 449.315 29.0029 449.407 28.7285C449.498 28.5455 449.59 28.3625 449.773 28.271C450.047 28.1795 450.139 28.0879 450.413 28.1794ZM470.816 40.4394C470.999 40.4394 471.09 40.4394 471.273 40.4394C471.365 40.4394 471.547 40.5309 471.639 40.6224C474.658 43.2756 477.495 46.2032 479.965 49.4054C480.148 49.5884 480.239 49.8629 480.148 50.1374C480.056 50.4119 479.965 50.5948 479.782 50.7778C479.691 50.8693 479.599 50.9609 479.416 50.9609C479.324 50.9609 479.141 50.9609 479.05 50.9609C478.958 50.9609 478.775 50.8694 478.684 50.8694C478.592 50.7779 478.501 50.6863 478.41 50.5948C476.031 47.4841 473.377 44.6479 470.358 42.0861C470.175 41.9031 470.084 41.6288 470.084 41.3543C470.084 41.0799 470.175 40.8053 470.358 40.6224C470.358 40.5309 470.541 40.4394 470.816 40.4394ZM485.088 59.1952C485.271 59.1952 485.546 59.1951 485.729 59.2865C485.912 59.378 486.003 59.561 486.095 59.744C487.833 63.4037 489.114 67.2464 489.937 71.272C489.937 71.5465 489.938 71.821 489.755 72.004C489.572 72.187 489.388 72.37 489.114 72.4615C488.839 72.553 488.565 72.4613 488.382 72.2783C488.199 72.0953 488.016 71.9124 487.925 71.6379C487.101 67.7953 485.82 64.1357 484.173 60.5676C484.082 60.2931 484.082 60.0186 484.173 59.8356C484.265 59.5611 484.448 59.378 484.723 59.2865C484.905 59.2865 484.997 59.1952 485.088 59.1952ZM479.599 72.2783C481.795 72.0953 484.082 72.0953 486.278 72.2783C486.552 72.2783 486.827 72.3698 487.01 72.5528C487.193 72.7358 487.284 73.0102 487.284 73.1932C487.284 73.3762 487.193 73.6509 487.01 73.8338C486.827 74.0168 486.552 74.1081 486.278 74.1081C484.173 74.0166 481.977 74.0166 479.873 74.1081C478.135 74.1996 476.397 74.4741 474.658 74.8401C474.384 74.9316 474.109 74.8402 473.926 74.6572C473.743 74.4742 473.56 74.2913 473.469 74.0168C473.469 73.9253 473.469 73.7422 473.469 73.6507C473.469 73.5592 473.56 73.3763 473.652 73.2848C473.743 73.1933 473.835 73.1018 473.926 73.0103C474.018 72.9188 474.11 72.9188 474.293 72.8273C476.122 72.4614 477.952 72.1869 479.782 72.0954H479.599V72.2783ZM497.806 74.2913H498.172C501.557 75.2062 505.033 76.3956 509.608 78.1339C509.699 78.1339 509.791 78.2253 509.883 78.3168C509.974 78.4083 510.066 78.4999 510.157 78.5914C510.248 78.6828 510.249 78.8657 510.249 78.9572C510.249 79.0487 510.248 79.2318 510.157 79.3233C510.066 79.4148 510.066 79.5977 509.974 79.6892C509.883 79.7807 509.791 79.8721 509.7 79.8721C509.608 79.9636 509.425 79.9637 509.334 79.9637C509.151 79.9637 509.059 79.9636 508.968 79.8721C504.485 78.2253 501.008 76.9446 497.714 76.1211C497.531 76.0296 497.348 75.938 497.165 75.755C497.074 75.572 496.982 75.2976 496.982 75.1146C496.982 74.9316 497.074 74.6572 497.257 74.4742C497.44 74.4742 497.623 74.2913 497.806 74.2913ZM463.13 77.4935C463.313 77.4935 463.588 77.4935 463.771 77.6764C463.954 77.7679 464.137 77.9509 464.137 78.1339C464.228 78.3169 464.228 78.5913 464.137 78.7743C464.045 78.9573 463.954 79.1403 463.679 79.2318C461.941 80.3297 460.386 81.6106 459.013 83.1659C457.824 84.4468 456.817 85.9106 456.085 87.466C455.994 87.649 455.994 87.7404 455.903 87.8319C455.811 87.9234 455.628 88.0149 455.537 88.1064C455.354 88.1979 455.262 88.198 455.079 88.198C454.896 88.198 454.805 88.1979 454.622 88.1064C454.439 88.0149 454.347 87.9234 454.256 87.8319C454.164 87.7404 454.073 87.5575 454.073 87.466C454.073 87.3745 454.073 87.1915 454.073 87.0085C454.073 86.8256 454.164 86.7341 454.256 86.6427C455.17 84.9043 456.269 83.2574 457.641 81.7936C459.105 80.2382 460.843 78.7742 462.673 77.5849C462.856 77.5849 463.039 77.4935 463.13 77.4935ZM489.937 82.3424C490.212 82.3424 490.395 82.434 490.578 82.7085C490.761 82.8915 490.852 83.166 490.852 83.4405C490.669 87.5576 489.846 91.5831 488.382 95.4257C488.291 95.5172 488.291 95.6088 488.199 95.7918C488.108 95.8833 488.016 95.9748 487.833 95.9748C487.742 96.0662 487.559 96.0661 487.467 96.0661C487.376 96.0661 487.193 96.0662 487.101 95.9748C486.827 95.8833 486.644 95.7002 486.552 95.4257C486.461 95.1512 486.461 94.8767 486.552 94.6937C488.016 91.1256 488.84 87.2831 488.931 83.4405C488.931 83.166 489.114 82.9828 489.297 82.7998C489.48 82.4339 489.663 82.3424 489.937 82.3424ZM520.313 82.3424C520.404 82.3424 520.587 82.3424 520.77 82.3424L524.704 83.8063C527.266 84.7212 529.645 85.5446 532.023 86.2766C532.115 86.2766 532.298 86.368 532.39 86.4595C532.481 86.551 532.573 86.6425 532.664 86.734C532.755 86.8255 532.756 87.0086 532.756 87.1001C532.756 87.1916 532.756 87.3745 532.756 87.466C532.664 87.7405 532.481 87.9235 532.298 88.015C532.024 88.1065 531.749 88.1979 531.566 88.1064C529.187 87.3745 526.809 86.5511 524.155 85.6362C522.783 85.1787 521.502 84.6297 520.221 84.1722C520.13 84.0807 519.947 84.0808 519.855 83.9893C519.764 83.8978 519.672 83.8062 519.672 83.7147C519.581 83.6233 519.581 83.4404 519.581 83.3489C519.581 83.2574 519.581 83.0745 519.672 82.983C519.764 82.8 519.946 82.7084 520.129 82.6169C520.312 82.5254 520.496 82.5255 520.679 82.5255L520.313 82.3424ZM577.403 81.8849C577.586 81.8849 577.861 81.8851 578.044 82.0681C578.227 82.1596 578.41 82.3426 578.41 82.5255C578.501 82.7085 578.501 82.983 578.41 83.1659C578.318 83.3489 578.227 83.5319 578.044 83.6234C574.75 86.0937 571.09 87.9235 567.248 89.2958C566.973 89.3873 566.699 89.3872 566.516 89.2042C566.333 89.1128 566.15 88.9299 566.058 88.6554C565.967 88.381 565.967 88.1064 566.15 87.9235C566.241 87.649 566.425 87.5575 566.699 87.466C570.359 86.2766 573.835 84.5383 576.946 82.251C577.129 82.1595 577.312 82.0681 577.495 82.0681V81.8849H577.403ZM543.186 88.9299H543.46C547.302 89.5704 551.328 89.7533 555.171 89.5703C555.445 89.5703 555.628 89.6619 555.811 89.8449C555.994 90.0278 556.086 90.2108 556.086 90.4853C556.086 90.7597 555.994 90.9427 555.903 91.1257C555.811 91.3086 555.537 91.4915 555.354 91.4915C551.328 91.6745 547.211 91.4916 543.277 90.8511C543.003 90.8511 542.819 90.6682 542.636 90.4853C542.454 90.3023 542.454 90.0278 542.454 89.7533C542.545 89.5703 542.637 89.3873 542.728 89.2958C542.911 89.2043 543.094 89.1128 543.277 89.0213V88.9299H543.186ZM452.883 97.713C453.066 97.713 453.158 97.713 453.25 97.713C453.341 97.713 453.432 97.8044 453.615 97.8959C453.707 97.9874 453.798 98.079 453.798 98.1705C453.89 98.262 453.89 98.4451 453.89 98.5366C454.164 101.647 455.628 104.483 457.915 106.588C458.373 107.045 458.83 107.411 459.379 107.686C459.471 107.777 459.654 107.869 459.745 107.96C459.837 108.052 459.928 108.235 459.928 108.326C460.02 108.509 460.02 108.601 459.928 108.784C459.928 108.967 459.837 109.058 459.745 109.149C459.654 109.241 459.562 109.332 459.471 109.424C459.379 109.515 459.196 109.515 459.013 109.607C458.83 109.607 458.739 109.607 458.556 109.607C458.373 109.607 458.281 109.515 458.19 109.424C457.55 109.058 457.001 108.601 456.452 108.143C453.798 105.764 452.152 102.471 451.786 98.9024C451.786 98.628 451.877 98.3534 451.968 98.1705C452.334 97.896 452.609 97.713 452.883 97.713ZM480.88 103.752C481.063 103.752 481.154 103.751 481.337 103.843C481.52 103.934 481.612 104.026 481.703 104.117C481.886 104.3 481.978 104.575 481.978 104.849C481.978 105.124 481.886 105.307 481.703 105.581C478.592 108.326 474.841 110.339 470.724 111.254C470.45 111.254 470.175 111.254 469.992 111.071C469.809 110.888 469.626 110.705 469.535 110.43C469.535 110.339 469.535 110.156 469.535 110.064C469.535 109.973 469.626 109.79 469.626 109.698C469.718 109.607 469.809 109.515 469.901 109.424C469.992 109.332 470.084 109.333 470.267 109.241C474.018 108.418 477.403 106.588 480.331 104.026C480.514 103.935 480.697 103.843 480.88 103.752Z" fill="#A52422"/>
<path d="M411.255 13.9982C411.529 13.9982 411.712 14.0897 411.895 14.1812C413.359 15.2791 415.006 16.1941 416.744 16.8346C417.018 16.926 417.202 17.1089 417.293 17.3834C417.385 17.6578 417.385 17.9324 417.293 18.1154C417.202 18.3898 417.018 18.5729 416.744 18.6644C416.47 18.7559 416.195 18.7559 416.012 18.6644C414.091 17.9325 412.353 16.9261 410.706 15.7367C410.523 15.5537 410.34 15.3706 410.34 15.0961C410.34 14.8216 410.34 14.5473 410.523 14.3643C410.614 14.2728 410.706 14.1813 410.889 14.0898C410.98 13.9983 411.072 13.9982 411.255 13.9982Z" fill="#A52422"/>
<path d="M151.144 156.085C150.87 155.993 150.595 155.81 150.504 155.536C150.321 155.261 150.321 154.987 150.412 154.712C150.504 154.438 150.595 154.163 150.87 153.98C151.144 153.797 151.419 153.706 151.693 153.706H157.914V147.576C158.006 147.301 158.097 147.027 158.372 146.753C158.555 146.57 158.921 146.478 159.195 146.478C159.47 146.478 159.836 146.57 160.019 146.753C160.293 146.936 160.385 147.21 160.476 147.576V156.359H151.602L151.144 156.085Z" fill="#A52422"/>
<path d="M24.0625 155.993C23.8795 155.902 23.605 155.719 23.5135 155.536C23.3305 155.353 23.3303 155.078 23.3303 154.895C23.3303 154.529 23.4222 154.255 23.6966 153.98C23.9711 153.706 24.2456 153.614 24.6116 153.614H40.531C40.897 153.614 41.1714 153.706 41.4459 153.98C41.7204 154.255 41.8118 154.529 41.8118 154.895C41.8118 155.261 41.7204 155.536 41.4459 155.81C41.1714 156.085 40.897 156.176 40.531 156.176H24.6116C24.4286 156.176 24.2455 156.085 24.0625 155.993ZM55.8098 155.993C55.6268 155.902 55.3527 155.719 55.2612 155.536C55.0783 155.353 55.0781 155.078 55.0781 154.804C55.0781 154.438 55.1695 154.163 55.444 153.889C55.7184 153.615 55.9929 153.523 56.3589 153.523H72.2783C72.6443 153.523 72.9188 153.615 73.1932 153.889C73.4677 154.163 73.5596 154.438 73.5596 154.804C73.5596 155.17 73.4677 155.444 73.1932 155.719C72.9188 155.993 72.6443 156.085 72.2783 156.085H56.3589C56.1759 156.176 55.9928 156.085 55.8098 155.993ZM87.6492 155.993C87.3747 155.902 87.1915 155.719 87.0085 155.444C86.8256 155.17 86.8255 154.895 86.917 154.621C87.0085 154.346 87.0999 154.072 87.3744 153.889C87.6489 153.706 87.9237 153.614 88.1982 153.614H104.118C104.484 153.614 104.758 153.797 104.941 154.072C105.124 154.346 105.215 154.621 105.215 154.895C105.215 155.17 105.124 155.536 104.941 155.719C104.758 155.993 104.484 156.085 104.118 156.176H88.2893C88.0149 156.176 87.8321 156.176 87.6492 155.993ZM119.396 155.993C119.122 155.902 118.939 155.719 118.848 155.536C118.665 155.353 118.665 155.078 118.665 154.895C118.665 154.529 118.848 154.255 119.031 153.98C119.305 153.706 119.58 153.614 119.946 153.614H135.865C136.231 153.614 136.505 153.706 136.78 153.98C137.054 154.255 137.146 154.529 137.146 154.895C137.146 155.261 136.963 155.536 136.78 155.81C136.505 156.085 136.231 156.176 135.865 156.176H119.946C119.763 156.176 119.579 156.176 119.396 155.993Z" fill="#A52422"/>
<path d="M0 156.085V147.301C0 146.935 0.183341 146.661 0.366324 146.387C0.549307 146.112 0.915184 146.021 1.18966 146.021C1.55562 146.021 1.8301 146.204 2.10457 146.387C2.37905 146.661 2.47045 146.935 2.47045 147.301V153.432H8.78328C9.05775 153.432 9.42399 153.615 9.51548 153.889C9.69846 154.163 9.88136 154.438 9.88136 154.712C9.88136 154.987 9.78996 155.353 9.51548 155.536C9.3325 155.81 9.05775 155.902 8.78328 155.993L0 156.085Z" fill="#A52422"/>
<path d="M0.732201 133.852C0.549217 133.761 0.274653 133.578 0.183162 133.395C0.000178692 133.212 0 132.937 0 132.663V118.024C0 117.658 0.0918489 117.384 0.366324 117.109C0.640798 116.835 0.915273 116.743 1.28124 116.743C1.64721 116.743 1.92168 116.835 2.19615 117.109C2.47063 117.384 2.56203 117.658 2.56203 118.024V132.663C2.56203 133.029 2.47063 133.303 2.19615 133.578C1.92168 133.852 1.64721 133.944 1.28124 133.944C1.00676 133.944 0.915184 133.944 0.732201 133.852ZM0.732201 104.484C0.457726 104.392 0.274653 104.209 0.183162 104.026C0.000178692 103.843 0 103.569 0 103.294V88.6555C0 88.381 0.182983 88.1064 0.457458 87.8319C0.731933 87.6489 1.00676 87.5576 1.28124 87.5576C1.55571 87.5576 1.92159 87.6489 2.10457 87.8319C2.37905 88.0149 2.47054 88.2895 2.56203 88.6555V103.294C2.56203 103.66 2.47063 103.935 2.19615 104.209C1.92168 104.484 1.64721 104.575 1.28124 104.575C1.09826 104.575 0.915184 104.575 0.732201 104.484V104.484ZM0.732201 75.2063C0.549217 75.1148 0.274653 74.9318 0.183162 74.7488C0.000178692 74.5658 0 74.2913 0 74.0168V59.3782C0 59.0122 0.0918489 58.7377 0.366324 58.4633C0.640798 58.1888 0.915273 58.0972 1.28124 58.0972C1.64721 58.0972 1.92168 58.1888 2.19615 58.4633C2.47063 58.7377 2.56203 59.0122 2.56203 59.3782V74.0168C2.56203 74.3828 2.47063 74.6573 2.19615 74.9318C1.92168 75.2062 1.64721 75.2976 1.28124 75.2976C1.09826 75.2061 1.00676 75.1146 0.823781 75.0231L0.732201 75.2063Z" fill="#A52422"/>
<path d="M0.732201 45.5628C0.549217 45.4713 0.274653 45.2883 0.183162 45.1054C0.000178692 44.9224 0 44.6479 0 44.3734V35.5903H8.78328C9.14925 35.5903 9.51521 35.7732 9.69819 35.9562C9.97267 36.2307 10.0641 36.5052 10.0641 36.8711C10.0641 37.2371 9.88118 37.5116 9.69819 37.786C9.42372 38.0605 9.05775 38.1521 8.78328 38.1521H2.56203V44.282C2.56203 44.648 2.47063 44.9225 2.19615 45.1969C1.92168 45.4714 1.64721 45.5628 1.28124 45.5628C1.09826 45.6543 0.915184 45.5628 0.732201 45.5628Z" fill="#A52422"/>
<path d="M24.1541 38.1522C23.8796 38.0607 23.605 37.8776 23.5135 37.6031C23.3305 37.3286 23.3303 37.0543 23.3303 36.7798C23.4218 36.5053 23.6048 36.2308 23.7878 36.0478C23.9708 35.8648 24.3371 35.7733 24.6116 35.7733H40.531C40.8055 35.7733 41.1713 35.9563 41.2628 36.2307C41.4457 36.5052 41.6286 36.7796 41.6286 37.0541C41.6286 37.3285 41.5372 37.6947 41.2628 37.8776C41.0798 38.1521 40.8055 38.2436 40.531 38.3351H24.6116C24.5201 38.2436 24.3371 38.2436 24.1541 38.1522ZM55.8098 38.1522C55.5354 38.0607 55.3527 37.8777 55.2612 37.6947C55.0783 37.5117 55.0781 37.2372 55.0781 36.9627C55.0781 36.5968 55.261 36.3223 55.444 36.0478C55.7184 35.7733 55.9929 35.6817 56.3589 35.6817H72.2783C72.6443 35.6817 72.9188 35.7733 73.1932 36.0478C73.4677 36.3223 73.5596 36.5968 73.5596 36.9627C73.5596 37.3287 73.3762 37.6032 73.1932 37.8776C72.9188 38.1521 72.6443 38.2435 72.2783 38.2435H56.3589C56.1759 38.2435 55.9928 38.2436 55.8098 38.1522ZM87.6492 38.1522C87.3747 38.0607 87.1 37.8776 87.0085 37.6031C86.8256 37.3286 86.8255 37.0543 86.917 36.7798C87.0085 36.5053 87.0999 36.2308 87.3744 36.0478C87.6489 35.8648 87.9237 35.7733 88.1982 35.7733H104.118C104.484 35.7733 104.758 35.8647 105.033 36.1392C105.307 36.4136 105.398 36.6881 105.398 37.0541C105.398 37.42 105.216 37.6945 105.033 37.969C104.758 38.2435 104.484 38.3351 104.118 38.3351H88.2893C88.0149 38.2436 87.8321 38.2436 87.6492 38.1522ZM119.396 38.1522C119.122 38.0607 118.939 37.8777 118.848 37.6947C118.756 37.5117 118.665 37.2372 118.665 36.9627C118.665 36.5968 118.848 36.3223 119.031 36.0478C119.305 35.7733 119.58 35.6817 119.946 35.6817H135.865C136.139 35.6817 136.414 35.8647 136.597 36.1392C136.78 36.4136 136.871 36.6882 136.871 36.9627C136.871 37.2372 136.78 37.6031 136.597 37.7861C136.414 38.0605 136.139 38.152 135.865 38.2435H120.037C119.854 38.2435 119.671 38.2436 119.396 38.1522Z" fill="#A52422"/>
<path d="M158.738 45.6544C158.463 45.5629 158.281 45.3799 158.189 45.197C158.098 45.014 158.006 44.7395 158.006 44.5566V38.2435H151.785C151.419 38.2435 151.144 38.1521 150.87 37.8776C150.596 37.6032 150.504 37.3287 150.504 36.9627C150.504 36.5968 150.687 36.3223 150.87 36.0478C151.144 35.7733 151.419 35.6817 151.785 35.6817H160.568V44.465C160.568 44.8309 160.385 45.1054 160.202 45.3799C159.927 45.6544 159.653 45.7458 159.287 45.7458C159.104 45.7458 158.921 45.6544 158.738 45.6544Z" fill="#A52422"/>
<path d="M158.738 133.944C158.463 133.852 158.281 133.669 158.189 133.486C158.098 133.303 158.006 133.029 158.006 132.846V118.207C158.006 117.841 158.189 117.567 158.372 117.292C158.646 117.018 158.921 116.926 159.287 116.926C159.653 116.926 159.927 117.018 160.202 117.292C160.476 117.567 160.568 117.841 160.568 118.207V132.846C160.568 133.212 160.385 133.486 160.202 133.761C159.927 134.035 159.653 134.127 159.287 134.127C159.104 134.035 158.921 134.035 158.738 133.944ZM158.738 104.575C158.463 104.483 158.281 104.3 158.189 104.117C158.098 103.934 158.006 103.66 158.006 103.385V88.7468C158.006 88.3808 158.189 88.1064 158.372 87.8319C158.646 87.5574 158.921 87.466 159.287 87.466C159.653 87.466 159.927 87.6489 160.202 87.8319C160.476 88.1064 160.568 88.3808 160.568 88.7468V103.385C160.568 103.751 160.385 104.026 160.202 104.3C159.927 104.575 159.653 104.666 159.287 104.666C159.012 104.666 158.921 104.575 158.738 104.575ZM158.738 75.2976C158.463 75.2061 158.281 75.0231 158.189 74.8401C158.006 74.6572 158.006 74.3826 158.006 74.1082V59.4695C158.006 59.1035 158.189 58.8291 158.372 58.5546C158.646 58.2801 158.921 58.1887 159.287 58.1887C159.653 58.1887 159.927 58.2801 160.202 58.5546C160.476 58.8291 160.568 59.1035 160.568 59.4695V74.1082C160.568 74.4741 160.385 74.7486 160.202 75.0231C159.927 75.2976 159.653 75.3892 159.287 75.3892C159.104 75.2977 158.921 75.2061 158.829 75.0231V75.2976H158.738Z" fill="#A52422"/>
<path d="M384.356 50.6865H68.2527C64.7761 50.6865 62.0315 53.4313 62.0315 56.9079V259.745C62.0315 263.221 64.7761 265.966 68.2527 265.966H384.356C387.833 265.966 390.578 263.221 390.578 259.745V56.9079C390.578 53.5227 387.741 50.6865 384.356 50.6865Z" fill="white"/>
<path d="M218.574 113.358V224.063C218.574 227.265 221.227 229.918 224.429 229.918C227.723 229.918 230.284 227.265 230.284 224.063V113.358C230.284 110.156 227.723 107.503 224.429 107.503C221.135 107.503 218.574 110.156 218.574 113.358Z" fill="#FF7A82"/>
<path d="M273.286 126.35V211.071C273.286 214.273 275.939 216.927 279.141 216.927C282.343 216.927 284.996 214.273 284.996 211.071V126.35C284.996 123.148 282.343 120.495 279.141 120.495C275.847 120.495 273.286 123.148 273.286 126.35Z" fill="#FF7A82"/>
<path d="M163.77 126.35V211.071C163.77 214.273 166.424 216.927 169.626 216.927C172.828 216.927 175.481 214.273 175.481 211.071V126.35C175.481 123.148 172.828 120.495 169.626 120.495C166.424 120.495 163.77 123.148 163.77 126.35Z" fill="#FF7A82"/>
<path d="M300.641 148.399V189.113C300.641 192.315 303.295 194.969 306.497 194.969C309.699 194.969 312.353 192.315 312.353 189.113V148.399C312.353 145.197 309.699 142.544 306.497 142.544C303.295 142.544 300.641 145.197 300.641 148.399Z" fill="#FF7A82"/>
<path d="M136.414 148.399V189.113C136.414 192.315 139.067 194.969 142.269 194.969C145.563 194.969 148.125 192.315 148.125 189.113V148.399C148.125 145.197 145.563 142.544 142.269 142.544C139.067 142.544 136.414 145.106 136.414 148.399Z" fill="#FF7A82"/>
<path d="M327.997 139.342V198.171C327.997 201.373 330.651 204.026 333.853 204.026C337.055 204.026 339.709 201.373 339.709 198.171V139.342C339.709 136.139 337.055 133.486 333.853 133.486C330.651 133.486 327.997 136.139 327.997 139.342Z" fill="#FF7A82"/>
<path d="M109.058 139.342V198.171C109.058 201.373 111.62 204.026 114.913 204.026C118.116 204.026 120.769 201.373 120.769 198.171V139.342C120.769 136.139 118.116 133.486 114.913 133.486C111.711 133.486 109.058 136.048 109.058 139.342Z" fill="#FF7A82"/>
<path d="M245.93 134.127V203.294C245.93 206.497 248.491 209.15 251.785 209.15C254.987 209.15 257.64 206.497 257.64 203.294V134.127C257.64 130.925 254.987 128.271 251.785 128.271C248.491 128.271 245.93 130.833 245.93 134.127Z" fill="#FF7A82"/>
<path d="M191.126 134.127V203.294C191.126 206.497 193.779 209.15 196.982 209.15C200.275 209.15 202.837 206.497 202.837 203.294V134.127C202.837 130.925 200.184 128.271 196.982 128.271C193.779 128.271 191.126 130.925 191.126 134.127Z" fill="#FF7A82"/>
<path d="M384.356 50.6865H68.2527C67.4293 50.6865 66.6058 50.8694 65.8739 51.1439C65.1419 51.4184 64.4103 51.8759 63.8613 52.5163C63.3124 53.0652 62.8549 53.7971 62.489 54.5291C62.123 55.261 62.0315 56.0845 62.0315 56.9079V74.4743H390.669V56.9079C390.669 56.0845 390.486 55.261 390.211 54.5291C389.845 53.7971 389.48 53.0652 388.839 52.5163C388.29 51.9673 387.558 51.5099 386.827 51.1439C386.003 50.8694 385.088 50.6865 384.356 50.6865Z" fill="#BB5A59"/>
<path d="M80.2383 66.8804C82.6171 66.8804 84.5386 64.9591 84.5386 62.5803C84.5386 60.2016 82.6171 58.2803 80.2383 58.2803C77.8596 58.2803 75.8469 60.2016 75.8469 62.5803C75.8469 64.9591 77.8596 66.8804 80.2383 66.8804Z" fill="#FF7A82"/>
<path d="M96.4325 66.8804C98.8113 66.8804 100.732 64.9591 100.732 62.5803C100.732 60.2016 98.8113 58.2803 96.4325 58.2803C94.0537 58.2803 92.0406 60.2016 92.0406 62.5803C92.0406 64.9591 94.0537 66.8804 96.4325 66.8804Z" fill="#FDB62F"/>
<path d="M112.626 66.8804C115.005 66.8804 117.018 64.9591 117.018 62.5803C117.018 60.2016 115.096 58.2803 112.626 58.2803C110.247 58.2803 108.326 60.2016 108.326 62.5803C108.235 64.9591 110.156 66.8804 112.626 66.8804Z" fill="#64A7B0"/>
<path d="M432.847 195.152C415.738 195.152 401.923 208.967 401.923 225.984V255.993C401.923 273.011 415.738 286.826 432.847 286.826C449.956 286.826 463.771 273.011 463.771 255.993V225.984C463.68 208.967 449.864 195.152 432.847 195.152Z" fill="#D29190"/>
<path d="M464.869 322.05C465.601 322.05 466.241 321.867 466.882 321.502C467.522 321.136 467.98 320.678 468.346 320.129C468.712 319.58 468.894 318.848 468.986 318.208C468.986 317.476 468.803 316.835 468.528 316.195C465.235 309.516 460.203 303.844 453.89 299.909C447.577 295.975 440.258 293.871 432.847 293.871C425.436 293.871 418.117 295.975 411.804 299.909C405.491 303.844 400.367 309.516 397.165 316.195C396.799 316.835 396.708 317.476 396.708 318.208C396.708 318.94 396.982 319.58 397.348 320.129C397.714 320.678 398.172 321.227 398.812 321.502C399.453 321.867 400.093 322.05 400.825 322.05H464.869Z" fill="#BB5A59"/>
<path d="M441.172 226.35C441.172 227.906 441.813 229.369 442.911 230.467C444.009 231.565 445.472 232.206 447.028 232.206H463.588V225.893C463.588 224.063 463.405 222.142 463.13 220.312H447.119C446.388 220.312 445.564 220.495 444.832 220.769C444.1 221.044 443.46 221.501 442.911 222.05C442.362 222.599 441.996 223.239 441.63 223.971C441.264 224.795 441.172 225.527 441.172 226.35Z" fill="#BB5A59"/>
<path d="M441.172 245.014C441.172 246.57 441.813 248.034 442.911 249.132C444.009 250.229 445.472 250.87 447.028 250.87H463.588V239.159H447.119C445.564 239.159 444.1 239.799 443.002 240.897C441.813 241.995 441.172 243.459 441.172 245.014Z" fill="#BB5A59"/>
<path d="M441.172 263.77C441.172 265.326 441.813 266.789 442.911 267.887C444.009 268.985 445.472 269.626 447.028 269.626H460.477C462.307 265.966 463.313 261.94 463.588 257.915H447.119C445.564 257.915 444.1 258.555 443.002 259.653C441.813 260.66 441.172 262.215 441.172 263.77Z" fill="#BB5A59"/>
<path d="M424.338 226.35C424.338 224.795 423.698 223.331 422.6 222.233C421.502 221.135 420.038 220.495 418.483 220.495H402.38C402.014 222.324 401.831 224.154 401.831 226.076V232.206H418.483C420.038 232.206 421.502 231.565 422.6 230.467C423.789 229.369 424.338 227.906 424.338 226.35Z" fill="#BB5A59"/>
<path d="M424.338 245.014C424.338 243.459 423.698 241.995 422.6 240.897C421.502 239.799 420.038 239.159 418.483 239.159H401.831V250.87H418.483C420.038 250.87 421.502 250.229 422.6 249.132C423.789 248.125 424.338 246.57 424.338 245.014Z" fill="#BB5A59"/>
<path d="M424.338 263.77C424.338 262.215 423.698 260.751 422.6 259.653C421.502 258.555 420.038 257.915 418.483 257.915H401.923C402.106 261.94 403.112 265.966 404.85 269.626H418.3C419.032 269.626 419.855 269.534 420.587 269.26C421.319 268.985 421.959 268.528 422.508 267.979C423.057 267.43 423.515 266.789 423.789 266.058C424.247 265.326 424.338 264.502 424.338 263.77Z" fill="#BB5A59"/>
<path d="M432.755 305.399C419.306 305.399 406.406 300.001 396.891 290.577C387.376 281.062 382.069 268.162 381.977 254.804V251.053C381.977 249.498 382.618 248.034 383.716 246.936C384.814 245.838 386.278 245.197 387.833 245.197C389.388 245.197 390.852 245.838 391.95 246.936C393.048 248.034 393.688 249.498 393.688 251.053V254.804C393.688 265.143 397.806 275.024 405.125 282.251C412.444 289.571 422.325 293.597 432.664 293.597C443.003 293.597 452.883 289.479 460.203 282.251C467.522 274.932 471.639 265.051 471.639 254.804V251.053C471.639 249.498 472.28 248.034 473.378 246.936C474.476 245.838 475.939 245.197 477.586 245.197C479.141 245.197 480.605 245.838 481.703 246.936C482.801 248.034 483.442 249.498 483.442 251.053V254.804C483.442 268.162 478.135 281.062 468.62 290.577C459.105 299.909 446.204 305.307 432.755 305.399Z" fill="#D29190"/>
<path d="M509.425 229.461H497.165C497.165 212.443 490.395 196.066 478.318 183.99C466.241 171.913 449.864 165.142 432.755 165.142C415.646 165.142 399.269 171.913 387.192 183.99C375.116 196.066 368.345 212.352 368.345 229.461H356.085C356.085 209.15 364.137 189.754 378.501 175.389C392.865 161.025 412.353 152.974 432.664 152.974C452.975 152.974 472.463 161.025 486.827 175.389C501.374 189.754 509.425 209.15 509.425 229.461Z" fill="#D29190"/>
<path d="M364.869 215.646H359.013C354.256 215.646 350.322 219.488 350.322 224.337V275.847C350.322 280.605 354.164 284.539 359.013 284.539H364.869C369.626 284.539 373.56 280.696 373.56 275.847V224.337C373.469 219.488 369.626 215.646 364.869 215.646Z" fill="#A52422"/>
<path d="M506.589 215.646H500.734C495.885 215.646 492.042 219.488 492.042 224.337V275.847C492.042 280.605 495.885 284.539 500.734 284.539H506.589C511.347 284.539 515.281 280.696 515.281 275.847V224.337C515.281 219.488 511.347 215.646 506.589 215.646Z" fill="#A52422"/>
<path opacity="0.8" d="M515.281 222.965V277.036C520.587 274.749 525.07 270.998 528.273 266.24C531.475 261.483 533.121 255.811 533.121 250.138C533.121 244.374 531.475 238.793 528.273 234.035C525.07 229.278 520.587 225.527 515.281 223.239V222.965Z" fill="#A52422"/>
<path opacity="0.8" d="M350.321 222.965V277.036C345.015 274.749 340.532 270.998 337.421 266.24C334.219 261.483 332.572 255.811 332.572 250.138C332.572 244.374 334.31 238.793 337.421 234.035C340.532 229.278 345.106 225.527 350.321 223.239V222.965Z" fill="#A52422"/>
</svg>
