<svg width="970" height="263" viewBox="0 0 970 263" fill="none" xmlns="http://www.w3.org/2000/svg">
<path d="M4 0H354L178.935 184" fill="#A52422"/>
<path d="M0 102L160 263H240L80 102H0Z" fill="#A52422"/>
<path d="M424 190.676C403.745 195.722 383.489 200.768 363.532 206.033C343.574 211.079 323.319 216.124 303.064 221.389C307.532 225.558 313.489 229.068 320.638 231.7C327.787 234.333 336.128 235.43 345.362 235.43C359.064 235.43 370.383 232.139 379.319 225.777L401.957 243.985C394.511 249.031 386.17 252.98 376.638 255.832C367.106 258.684 356.681 260 345.362 260C332.851 260 321.234 258.464 310.213 255.174C299.489 252.102 289.957 247.715 281.915 242.23C273.872 236.746 267.617 230.384 262.851 223.144C258.383 215.905 256 208.227 256 199.89C256 191.773 258.383 184.095 262.851 176.636C267.319 169.397 273.872 163.035 281.915 157.55C289.957 152.066 299.489 147.898 310.213 144.826C320.936 141.755 332.851 140 345.362 140C354.596 140 363.532 141.316 371.872 143.729C380.213 146.362 387.957 149.872 394.511 154.26C401.064 158.647 407.021 164.132 412.085 170.274C417.447 176.417 421.319 183.218 424 190.676ZM345.362 164.57C333.447 164.57 323.319 166.545 314.681 170.713C306.043 174.881 300.085 180.146 296.511 186.508C295.021 189.58 294.128 193.09 293.532 197.258C307.532 193.748 321.532 190.238 335.234 186.728C348.936 183.218 362.936 179.707 376.936 176.197C372.766 172.687 368 169.835 362.936 167.861C357.574 165.667 351.617 164.57 345.362 164.57Z" fill="#14000C"/>
<path d="M567.101 154.421C557.09 148.067 543.546 145 526.174 145C510.275 145 495.847 147.848 482.598 153.764C469.643 159.461 459.926 167.348 454.038 176.989C453.449 172.169 452.86 167.787 452.566 163.843C451.977 159.899 451.682 155.517 451.093 150.697V147.848H419V173.264C423.711 179.18 427.244 185.753 429.894 192.764C426.361 193.64 422.533 194.517 419 195.612V262H455.51V206.567C455.51 201.309 456.982 196.489 460.221 191.888C463.46 187.506 467.582 183.562 472.882 180.275C478.181 176.989 484.364 174.579 491.136 172.607C497.908 170.854 505.269 169.758 512.925 169.758C524.113 170.197 532.357 172.388 537.363 176.332C542.368 180.275 545.312 185.096 545.901 190.573V261.781H583V178.961C582.411 168.882 577.111 160.556 567.101 154.421Z" fill="#14000C"/>
<path d="M740.384 97.1934C740.384 85.8024 743.027 75.7259 748.606 66.9636L748.899 66.7445V26H712.49V137.719H740.678V97.1934H740.384Z" fill="#14000C"/>
<path d="M716.601 259.952H740.385V167.729H712.197V155.9C709.26 154.148 705.443 152.395 700.452 150.424C695.46 148.452 689.588 146.7 682.834 145.166C676.081 143.633 668.74 142.976 660.812 142.976C648.48 142.976 637.029 144.509 626.164 147.795C615.3 150.862 605.904 155.243 597.976 160.719C595.627 162.472 593.279 164.224 591.223 165.977C592.985 169.482 594.159 173.425 594.453 177.587V242.427C595.627 243.304 596.802 244.18 597.976 245.056C605.904 250.533 615.3 254.914 626.164 257.98C637.029 261.047 648.48 262.8 660.812 262.8C669.621 262.8 677.549 262.143 684.302 260.609C691.056 259.295 696.928 257.542 701.626 255.79C706.324 254.037 709.848 252.285 712.49 250.752C715.133 249.218 716.307 247.904 716.307 247.466V250.314V259.952H716.601ZM698.102 227.97C688.706 234.76 676.081 238.265 660.812 238.265C645.544 238.265 633.212 234.76 623.522 227.97C614.126 221.179 609.134 212.855 609.134 202.778C609.134 192.702 613.832 184.158 623.522 177.587C632.918 171.015 645.544 167.729 660.812 167.729C676.081 167.729 688.413 171.015 698.102 177.587C707.498 184.158 712.49 192.483 712.49 202.778C712.197 212.636 707.498 221.179 698.102 227.97Z" fill="#14000C"/>
<path d="M908.866 210.649C919.153 201.041 929.44 191.433 939.433 181.824C949.72 172.435 959.713 162.827 970 153H927.383C920.623 159.333 913.863 165.665 907.103 171.998C900.343 178.331 893.583 184.663 886.823 190.996C879.769 184.663 873.009 178.331 866.249 171.998C860.958 166.975 855.374 161.953 849.789 156.931V171.561H823.043C825.101 173.527 827.452 175.71 829.51 177.675C838.327 185.755 847.144 194.053 855.962 202.351C845.675 211.959 835.388 221.567 825.101 231.175C817.165 238.6 808.936 246.024 801 253.667V260H836.857C843.617 253.667 850.377 247.335 857.137 241.002C863.897 234.669 870.657 228.337 877.417 222.004C884.471 228.337 891.231 234.669 897.991 241.002C904.751 247.335 911.511 253.667 918.565 260H962.652C953.835 251.702 944.723 243.404 935.906 235.324C926.501 227.245 917.684 218.947 908.866 210.649Z" fill="#14000C"/>
<path d="M807.891 64.3427C820.86 56.0169 837.662 51.4158 858 50.5393V26C842.967 26.4382 828.819 28.191 815.849 31.4775C802.88 34.764 791.384 39.3652 781.952 45.5001C772.52 51.6349 765.151 59.0843 759.55 68.0674C754.245 77.0506 751.297 87.3483 751.297 98.9607V140.371H723V165.567H751.297V260H787.847V165.567H839.43V140.371H787.847V99.8371C788.142 84.5 794.627 72.6685 807.891 64.3427Z" fill="#14000C"/>
</svg>
