<svg width="150" height="50" viewBox="0 0 150 50" fill="none" xmlns="http://www.w3.org/2000/svg">
<path d="M0.829468 0H57.2355L29.022 34.9724" fill="white"/>
<path d="M0 19.5194L25.991 49.6119H38.9865L12.9955 19.5194H0Z" fill="white"/>
<path d="M62.6236 34.943C59.4412 35.9989 56.2587 37.0547 53.1231 38.1564C49.9875 39.2122 46.805 40.268 43.6226 41.3697C44.3246 42.2419 45.2606 42.9764 46.3838 43.5273C47.507 44.0781 48.8175 44.3077 50.2683 44.3077C52.4211 44.3077 54.1995 43.6191 55.6035 42.2878L59.1604 46.0979C57.9903 47.1538 56.6799 47.98 55.1823 48.5768C53.6847 49.1736 52.0467 49.449 50.2683 49.449C48.3027 49.449 46.4774 49.1277 44.7458 48.4391C43.061 47.7964 41.5634 46.8783 40.2998 45.7307C39.0362 44.5831 38.0534 43.2518 37.3046 41.737C36.6025 40.2221 36.2281 38.6154 36.2281 36.871C36.2281 35.1726 36.6025 33.5659 37.3046 32.0051C38.0066 30.4903 39.0362 29.159 40.2998 28.0114C41.5634 26.8638 43.061 25.9916 44.7458 25.3489C46.4306 24.7062 48.3027 24.339 50.2683 24.339C51.7191 24.339 53.1231 24.6144 54.4335 25.1194C55.7439 25.6702 56.9607 26.4047 57.9903 27.3228C59.02 28.2409 59.956 29.3885 60.7516 30.6739C61.594 31.9592 62.2024 33.3823 62.6236 34.943ZM50.2683 29.4804C48.3963 29.4804 46.805 29.8935 45.4478 30.7657C44.0906 31.6379 43.1546 32.7396 42.593 34.0709C42.359 34.7135 42.2186 35.448 42.125 36.3202C44.3246 35.5857 46.5242 34.8512 48.6771 34.1167C50.8299 33.3823 53.0295 32.6478 55.2291 31.9133C54.5739 31.1788 53.8251 30.5821 53.0295 30.1689C52.1871 29.7099 51.2511 29.4804 50.2683 29.4804Z" fill="white"/>
<path d="M85.8366 27.1852C84.2454 25.854 82.0926 25.2113 79.3314 25.2113C76.8041 25.2113 74.5109 25.8081 72.4049 27.0475C70.3457 28.241 68.8013 29.8936 67.8653 31.9134C67.7717 30.9035 67.6781 29.9854 67.6313 29.1591C67.5377 28.3328 67.4909 27.4147 67.3973 26.4048V25.8081H62.296V31.133C63.0448 32.3725 63.6064 33.7496 64.0276 35.2186C63.466 35.4022 62.8576 35.5858 62.296 35.8154V49.7246H68.0993V38.1106C68.0993 37.0089 68.3333 35.999 68.8481 35.035C69.3629 34.1169 70.0181 33.2906 70.8605 32.602C71.7029 31.9134 72.6857 31.4085 73.7621 30.9953C74.8385 30.6281 76.0085 30.3986 77.2254 30.3986C79.0038 30.4904 80.3142 30.9494 81.1098 31.7757C81.9054 32.602 82.3734 33.6119 82.467 34.7596V49.6787H88.3638V32.3266C88.2702 30.2149 87.4278 28.4706 85.8366 27.1852Z" fill="white"/>
<path d="M140.265 39.0746C141.903 37.0548 143.541 35.035 145.133 33.0151C146.771 31.0412 148.362 29.0214 150 26.9557H143.214C142.137 28.2869 141.061 29.6182 139.985 30.9494C138.908 32.2807 137.832 33.6119 136.755 34.9432C135.632 33.6119 134.556 32.2807 133.479 30.9494C132.637 29.8936 131.748 28.8378 130.859 27.782V30.8576H126.6C126.927 31.2708 127.302 31.7298 127.629 32.1429C129.033 33.8414 130.437 35.5858 131.841 37.3302C130.203 39.35 128.565 41.3699 126.927 43.3897C125.664 44.9504 124.353 46.5112 123.09 48.1179V49.4491H128.799C129.876 48.1179 130.952 46.7866 132.029 45.4554C133.105 44.1242 134.181 42.7929 135.258 41.4617C136.381 42.7929 137.457 44.1242 138.534 45.4554C139.61 46.7866 140.687 48.1179 141.81 49.4491H148.83C147.426 47.7047 145.975 45.9604 144.571 44.2619C143.073 42.5634 141.669 40.819 140.265 39.0746Z" fill="white"/>
<path d="M124.353 8.41009C126.413 6.66569 129.08 5.7017 132.31 5.51808V0.376709C129.923 0.468519 127.676 0.835759 125.617 1.52433C123.558 2.21291 121.733 3.17693 120.235 4.46227C118.737 5.74761 117.567 7.30837 116.678 9.19048C115.836 11.0726 115.368 13.2301 115.368 15.6631V24.3391H110.875V29.6182H115.368V49.4033H121.171V29.6182H129.361V24.3391H121.171V15.8467C121.218 12.6334 122.247 10.1545 124.353 8.41009Z" fill="white"/>
<path d="M113.402 15.2958C113.402 12.9088 113.823 10.7972 114.713 8.96096L114.759 8.91505V0.376709H108.956V23.7883H113.449V15.2958H113.402Z" fill="white"/>
<path d="M109.611 49.4032H113.402V30.0772H108.909V27.5983C108.441 27.231 107.833 26.8638 107.037 26.4507C106.242 26.0375 105.306 25.6703 104.229 25.3489C103.153 25.0276 101.983 24.8899 100.719 24.8899C98.7535 24.8899 96.9283 25.2112 95.1967 25.8998C93.4651 26.5425 91.9675 27.4606 90.7038 28.6082C90.3294 28.9754 89.955 29.3427 89.6274 29.7099C89.9082 30.4444 90.0954 31.2707 90.1422 32.1429V45.7308C90.3294 45.9144 90.5166 46.098 90.7038 46.2816C91.9675 47.4292 93.4651 48.3474 95.1967 48.99C96.9283 49.6327 98.7535 49.9999 100.719 49.9999C102.123 49.9999 103.387 49.8622 104.463 49.5409C105.54 49.2655 106.476 48.8982 107.224 48.531C107.973 48.1637 108.535 47.7965 108.956 47.4752C109.377 47.1538 109.564 46.8784 109.564 46.7866V47.3834V49.4032H109.611ZM106.663 42.701C105.165 44.1241 103.153 44.8586 100.719 44.8586C98.2855 44.8586 96.3199 44.1241 94.7755 42.701C93.2779 41.278 92.4823 39.5336 92.4823 37.422C92.4823 35.3103 93.2311 33.52 94.7755 32.1429C96.2731 30.7657 98.2855 30.0772 100.719 30.0772C103.153 30.0772 105.118 30.7657 106.663 32.1429C108.16 33.52 108.956 35.2644 108.956 37.422C108.909 39.4877 108.16 41.278 106.663 42.701Z" fill="white"/>
</svg>
