<svg width="784" height="633" viewBox="0 0 784 633" fill="none" xmlns="http://www.w3.org/2000/svg">
<path d="M592.769 567.541C592.769 567.541 619.763 567.418 649.697 533.015C675.853 502.928 626.204 409.779 598.373 388.354C570.542 366.929 516.369 483.945 522.661 513.587C531.615 555.822 570.206 566.466 592.769 567.541Z" fill="#92E3A9"/>
<path d="M636.573 509.67L595.022 543.751L599.21 630.587H585.453C585.286 629.988 585.807 570.167 586.254 500.394L554.401 475.191C556.822 475.191 552.54 471.781 552.056 471.443L586.403 491.071C586.682 447.469 586.942 412.36 586.942 412.36L590.051 409.15L591.783 455.778L621.159 438.331C620.731 438.669 616.393 442.078 618.813 442.078L592.08 464.01L594.575 531.187L639.924 504.264C639.31 504.786 633.092 509.67 636.573 509.67Z" stroke="#263238" stroke-miterlimit="10"/>
<path d="M716.269 595.815C716.269 595.815 749.107 593.865 765.49 568.17C783.175 540.387 740.041 474.484 718 469.6C693.799 464.209 655.599 516.873 663.417 557.788C668.779 585.71 701.096 595.109 716.269 595.815Z" fill="#92E3A9"/>
<path d="M740.916 545.44L718.019 560.445C717.311 525.213 716.715 497.076 716.715 497.076L713.904 494.435L712.862 530.419V531.203L693.427 518.624C693.427 518.624 696.536 521.235 694.935 521.25L712.62 537.116L711.428 578.491L682.071 559.431C682.071 559.431 686.464 563.133 684.212 563.148L711.149 587.322L711 592.099L710.833 597.244L709.921 629.88L719.415 629.788C719.191 619.298 718.987 608.286 718.782 597.29C718.596 587.921 718.372 578.537 718.223 569.522C718.223 568.846 718.223 568.216 718.223 567.556L739.26 548.558C737.323 548.573 740.916 545.44 740.916 545.44Z" stroke="#263238" stroke-miterlimit="10"/>
<path d="M675.369 616.012C672.316 613.985 666.824 614.031 662.003 614.2C662.356 611.665 663.641 609.162 664.013 606.613C664.308 605.297 664.149 603.94 663.553 602.696C662.957 601.452 661.949 600.372 660.644 599.578C655.357 596.507 646.049 597.705 638.751 599.455C639.756 593.496 632.068 587.691 621.773 586.769C611.479 585.848 600.03 589.995 597.014 595.816C592.844 592.529 584.522 591.208 577.579 592.744C570.635 594.28 565.701 598.565 566.055 602.696C560.731 602.404 554.792 602.205 550.38 604.094C543.902 606.889 544.349 612.541 539.36 616.196C537.748 615.942 536.083 616.054 534.542 616.519C533.001 616.984 531.642 617.785 530.61 618.838C528.916 620.665 528.618 622.754 527.594 624.72C525.509 628.652 518.584 629.143 511.975 630.863L677.361 632C680.954 631.048 684.026 629.02 683.877 626.824C683.728 624.628 679.278 622.846 675.834 623.937C677.026 623.983 678.925 618.346 675.369 616.012Z" fill="#92E3A9"/>
<path d="M749.722 621.987C747.86 620.758 744.472 620.773 741.531 620.881C741.735 619.345 742.517 617.809 742.759 616.273C742.942 615.466 742.845 614.633 742.48 613.87C742.114 613.106 741.495 612.444 740.693 611.958C737.454 610.084 731.739 610.806 727.271 611.881C727.885 608.225 723.175 604.662 716.864 604.109C710.553 603.556 703.535 606.075 701.692 609.638C699.142 607.626 694.022 606.828 689.778 607.78C685.533 608.732 682.499 611.343 682.722 613.923C679.446 613.739 675.816 613.601 673.116 614.768C669.133 616.488 669.393 619.944 666.359 622.186C665.367 622.031 664.344 622.101 663.396 622.388C662.449 622.674 661.614 623.167 660.979 623.814C660.178 624.943 659.552 626.15 659.117 627.408C657.851 629.819 653.532 630.111 649.548 631.171L750.913 631.862C753.11 631.278 754.99 630.034 754.916 628.698C754.841 627.362 752.086 626.256 749.982 626.932C750.727 626.886 751.9 623.43 749.722 621.987Z" fill="#92E3A9"/>
<path d="M340.297 356.67C335.728 354.084 330.388 352.579 324.856 352.317C319.325 352.055 313.811 353.046 308.913 355.183C304.015 357.32 299.918 360.521 297.066 364.44C294.214 368.36 292.716 372.848 292.733 377.419V377.573C291.809 376.595 290.643 375.79 289.315 375.21C287.986 374.631 286.523 374.29 285.023 374.21C283.523 374.13 282.02 374.313 280.612 374.747C279.204 375.181 277.923 375.856 276.854 376.728C276.216 371.708 273.27 367.082 268.622 363.8C263.974 360.519 257.979 358.833 251.869 359.088C245.76 359.344 240.001 361.523 235.78 365.176C231.559 368.829 229.196 373.678 229.178 378.724C228.181 378.144 227.022 377.782 225.809 377.672C224.596 377.562 223.369 377.708 222.243 378.097C221.118 378.485 220.13 379.103 219.373 379.892C218.616 380.682 218.114 381.617 217.915 382.61H387.08C387.079 379.242 385.908 375.945 383.705 373.109C381.503 370.274 378.361 368.018 374.652 366.611C370.944 365.203 366.824 364.702 362.781 365.166C358.737 365.631 354.94 367.042 351.839 369.233C350.815 366.813 349.352 364.534 347.502 362.475" stroke="#263238" stroke-linecap="round" stroke-linejoin="round"/>
<path d="M631.007 172.983C636.57 171.38 642.517 170.898 648.351 171.579C654.186 172.26 659.738 174.083 664.543 176.896C669.349 179.709 673.269 183.43 675.975 187.749C678.681 192.067 680.094 196.857 680.097 201.719V201.903C681.221 200.718 682.635 199.743 684.247 199.041C685.859 198.339 687.633 197.925 689.452 197.828C691.271 197.731 693.095 197.952 694.803 198.477C696.512 199.002 698.066 199.819 699.365 200.874C700.196 194.819 703.794 189.253 709.426 185.311C715.058 181.369 722.3 179.346 729.677 179.655C737.053 179.965 744.009 182.583 749.128 186.976C754.246 191.369 757.141 197.207 757.224 203.301C758.688 202.432 760.448 201.97 762.25 201.98C764.325 201.975 766.333 202.58 767.916 203.686C769.498 204.792 770.552 206.327 770.888 208.016H565.608C565.594 203.918 567.008 199.903 569.682 196.45C572.356 192.998 576.177 190.252 580.69 188.541C585.203 186.83 590.217 186.225 595.135 186.8C600.052 187.375 604.666 189.104 608.425 191.782C610.286 187.354 613.356 183.34 617.398 180.048" stroke="#263238" stroke-linecap="round" stroke-linejoin="round"/>
<path d="M1 137.628H206.28C206.295 133.531 204.881 129.516 202.207 126.063C199.533 122.61 195.711 119.864 191.198 118.153C186.685 116.442 181.671 115.838 176.754 116.413C171.836 116.987 167.222 118.717 163.463 121.394C160.611 114.597 154.932 108.854 147.434 105.183C139.936 101.512 131.105 100.151 122.506 101.343C113.908 102.534 106.099 106.2 100.466 111.689C94.8331 117.179 91.7396 124.138 91.735 131.331V131.516C90.6117 130.331 89.1977 129.356 87.5856 128.653C85.9735 127.951 84.1997 127.538 82.3805 127.441C80.5613 127.344 78.7378 127.565 77.0294 128.09C75.321 128.614 73.7663 129.431 72.4673 130.486C71.6361 124.432 68.038 118.866 62.4061 114.924C56.7742 110.981 49.5322 108.959 42.1556 109.268C34.7791 109.577 27.823 112.195 22.7047 116.589C17.5864 120.982 14.691 126.82 14.6084 132.913C13.1449 132.045 11.3848 131.582 9.58203 131.592C7.51747 131.599 5.52251 132.209 3.95136 133.314C2.38022 134.419 1.33454 135.947 1 137.628V137.628Z" fill="white" stroke="#263238" stroke-miterlimit="10"/>
<path d="M274.583 197.495L280.949 230.332" stroke="#92E3A9" stroke-miterlimit="10"/>
<path d="M250.512 209.122L277.003 235.584" stroke="#92E3A9" stroke-miterlimit="10"/>
<path d="M246.323 231.591L271.12 239.593" stroke="#92E3A9" stroke-miterlimit="10"/>
<path d="M120.516 288.739V263.444" stroke="#263238" stroke-linecap="round" stroke-linejoin="round"/>
<path d="M48.3222 288.74H120.516V270.079H48.3222V288.74Z" fill="white" stroke="#263238" stroke-linecap="round" stroke-linejoin="round"/>
<path d="M48.3222 288.739V263.444" stroke="#263238" stroke-linecap="round" stroke-linejoin="round"/>
<path d="M302.358 630.955H448.271L448.271 421.344H302.358V630.955Z" fill="white" stroke="#263238" stroke-linecap="round" stroke-linejoin="round"/>
<path d="M156.91 630.955H302.823L302.823 343.63H156.91L156.91 630.955Z" fill="white" stroke="#263238" stroke-linecap="round" stroke-linejoin="round"/>
<path d="M10.3267 630.97H156.24L156.24 288.232H10.3267L10.3267 630.97Z" fill="white" stroke="#263238" stroke-linecap="round" stroke-linejoin="round"/>
<path d="M129.079 309.842V617.978" stroke="#92E3A9" stroke-linecap="round" stroke-linejoin="round"/>
<path d="M97.1709 309.842V617.978" stroke="#92E3A9" stroke-linecap="round" stroke-linejoin="round"/>
<path d="M65.2629 309.842V617.978" stroke="#92E3A9" stroke-linecap="round" stroke-linejoin="round"/>
<path d="M33.3734 309.842V617.978" stroke="#92E3A9" stroke-linecap="round" stroke-linejoin="round"/>
<path d="M278.604 358.467V387.141V415.8V444.474V473.133V501.822V530.496V559.155V587.829V616.504V617.056" stroke="#92E3A9" stroke-linecap="round" stroke-linejoin="round"/>
<path d="M246.696 358.467V387.141V415.8V444.474V473.133V501.822V530.496V559.155V587.829V616.504V617.056" stroke="#92E3A9" stroke-linecap="round" stroke-linejoin="round"/>
<path d="M214.769 358.467V387.141V415.8V444.474V473.133V501.822V530.496V559.155V587.829V616.504V617.056" stroke="#92E3A9" stroke-linecap="round" stroke-linejoin="round"/>
<path d="M182.88 358.467V387.141V415.8V444.474V473.133V501.822V530.496V559.155V587.829V616.504V617.056" stroke="#92E3A9" stroke-linecap="round" stroke-linejoin="round"/>
<path d="M278.604 358.467H272.349H242.526H212.684H182.88" stroke="#92E3A9" stroke-linecap="round" stroke-linejoin="round"/>
<path d="M278.604 387.141H272.349H242.526H212.684H182.88" stroke="#92E3A9" stroke-linecap="round" stroke-linejoin="round"/>
<path d="M278.604 415.8H272.349H242.526H212.684H182.88" stroke="#92E3A9" stroke-linecap="round" stroke-linejoin="round"/>
<path d="M278.604 444.474H272.349H242.526H212.684H182.88" stroke="#92E3A9" stroke-linecap="round" stroke-linejoin="round"/>
<path d="M278.604 473.133H272.349H242.526H212.684H182.88" stroke="#92E3A9" stroke-linecap="round" stroke-linejoin="round"/>
<path d="M278.604 501.822H272.349H242.526H212.684H182.88" stroke="#92E3A9" stroke-linecap="round" stroke-linejoin="round"/>
<path d="M278.604 530.496H272.349H242.526H212.684H182.88" stroke="#92E3A9" stroke-linecap="round" stroke-linejoin="round"/>
<path d="M278.604 559.155H272.349H242.526H212.684H182.88" stroke="#92E3A9" stroke-linecap="round" stroke-linejoin="round"/>
<path d="M278.604 587.829H272.349H242.526H212.684H182.88" stroke="#92E3A9" stroke-linecap="round" stroke-linejoin="round"/>
<path d="M278.604 616.503H272.349H242.526H212.684H182.88" stroke="#92E3A9" stroke-linecap="round" stroke-linejoin="round"/>
<path d="M433.992 438.637H323.692" stroke="#92E3A9" stroke-linecap="round" stroke-linejoin="round"/>
<path d="M433.992 467.312H323.692" stroke="#92E3A9" stroke-linecap="round" stroke-linejoin="round"/>
<path d="M433.992 495.97H323.692" stroke="#92E3A9" stroke-linecap="round" stroke-linejoin="round"/>
<path d="M433.992 524.644H323.692" stroke="#92E3A9" stroke-linecap="round" stroke-linejoin="round"/>
<path d="M433.992 553.319H323.692" stroke="#92E3A9" stroke-linecap="round" stroke-linejoin="round"/>
<path d="M433.992 581.992H323.692" stroke="#92E3A9" stroke-linecap="round" stroke-linejoin="round"/>
<path d="M433.992 610.652H323.692" stroke="#92E3A9" stroke-linecap="round" stroke-linejoin="round"/>
<path d="M770.888 631.862H704.168H696.405H1" stroke="#263238" stroke-linecap="round" stroke-linejoin="round"/>
<path d="M254.496 630.08C253.509 630.464 246.342 630.679 237.201 630.802C218.585 631.063 191.797 630.94 191.797 630.94C191.797 630.94 190.345 630.94 189.786 624.95C189.228 618.961 192.802 614.199 193.211 611.696C195.073 600.208 190.326 595.416 190.252 594.571C190.177 593.727 216.314 593.251 216.314 593.251L224.877 592.774L223.016 602.88C222.899 603.454 222.837 604.034 222.83 604.616C222.653 608.19 224.01 611.701 226.663 614.53C229.316 617.359 233.094 619.325 237.332 620.082H237.723C238.337 619.606 248.892 615.582 253.211 621.141C255.575 624.167 254.496 630.08 254.496 630.08Z" fill="#263238"/>
<path opacity="0.2" d="M254.496 630.08C253.509 630.464 246.342 630.679 237.201 630.802C218.585 631.063 191.797 630.94 191.797 630.94C191.797 630.94 190.345 630.94 189.786 624.95C189.228 618.961 192.802 614.199 193.211 611.696C195.073 600.208 190.326 595.416 190.252 594.571C190.177 593.727 216.314 593.251 216.314 593.251L224.877 592.774L223.016 602.88C222.899 603.454 222.837 604.034 222.83 604.616C222.653 608.19 224.01 611.701 226.663 614.53C229.316 617.359 233.094 619.325 237.332 620.082H237.723C238.337 619.606 248.892 615.582 253.211 621.141C255.575 624.167 254.496 630.08 254.496 630.08Z" fill="#D9704C"/>
<path opacity="0.3" d="M237.201 630.832C218.585 631.093 191.797 630.97 191.797 630.97C191.797 630.97 190.345 630.97 189.786 624.981C189.228 618.991 192.802 614.23 193.211 611.726C195.073 600.238 190.326 595.446 190.252 594.602C190.177 593.757 216.314 593.281 216.314 593.281L224.877 592.805L223.016 602.911C222.899 603.484 222.837 604.064 222.83 604.646C216.928 608.67 212.237 611.911 212.237 611.911C212.237 611.911 236.159 618.423 237.201 630.832Z" fill="black"/>
<path d="M254.496 630.08C253.509 630.464 246.342 630.679 237.201 630.802C218.585 631.063 191.797 630.94 191.797 630.94C191.797 630.94 190.345 630.94 189.786 624.95C189.228 618.961 192.802 614.199 193.211 611.696C195.073 600.208 190.326 595.416 190.252 594.571C190.177 593.727 216.314 593.251 216.314 593.251L224.877 592.774L223.016 602.88C222.899 603.454 222.837 604.034 222.83 604.616C222.653 608.19 224.01 611.701 226.663 614.53C229.316 617.359 233.094 619.325 237.332 620.082H237.723C238.337 619.606 248.892 615.582 253.211 621.141C255.575 624.167 254.496 630.08 254.496 630.08Z" stroke="#263238" stroke-linecap="round" stroke-linejoin="round"/>
<path d="M230.537 579.566C231.412 583.421 233.59 584.512 232.175 586.324C231.97 586.6 231.765 586.923 231.561 587.261C230.462 589.135 229.29 591.776 224.971 592.775C219.888 593.957 195.557 595.048 190.307 594.51C185.058 593.973 182.079 589.903 181.781 586.462C181.483 583.022 183.754 580.872 183.401 577.017C183.047 573.162 179.398 572.041 179.156 569.476C178.914 566.911 181.93 563.179 181.893 560.614C181.893 555.208 182.005 561.106 183.308 530.373C184.034 512.849 189.172 509.041 183.308 489.167C181.185 481.994 158.399 352.139 158.399 352.139L228.675 355.61C228.675 355.61 229.792 377.726 231.058 403.851C232.659 437.086 234.502 476.803 234.558 485.742C234.67 503.895 232.696 529.329 231.039 551.906C230.351 561.536 229.178 568.17 231.039 571.872C231.26 572.258 231.393 572.675 231.43 573.1C231.747 575.542 229.643 575.711 230.537 579.566Z" fill="#673AB7"/>
<path opacity="0.3" d="M231.561 587.261C230.462 589.135 229.29 591.776 224.971 592.775C219.888 593.957 195.557 595.048 190.307 594.51C185.058 593.973 182.079 589.903 181.781 586.462C181.483 583.022 183.754 580.872 183.401 577.017C183.047 573.162 179.398 572.041 179.156 569.476C178.914 566.911 181.93 563.179 181.893 560.614C181.893 555.208 182.005 561.106 183.308 530.373C184.034 512.849 189.172 509.041 183.308 489.167C181.185 481.994 158.399 352.139 158.399 352.139L228.675 355.61C228.675 355.61 229.792 377.726 231.058 403.851C222.588 432.909 212.758 464.885 209.072 470.261L214.881 478.631C214.881 478.631 200.993 505.216 200.993 508.426C200.993 511.636 205.684 541.662 207.304 547.897C208.923 554.133 200.993 549.694 200.993 554.947C200.993 559.785 200.36 583.329 231.561 587.261Z" fill="black"/>
<path d="M230.537 579.566C231.412 583.421 233.59 584.512 232.175 586.324C231.97 586.6 231.765 586.923 231.561 587.261C230.462 589.135 229.29 591.776 224.971 592.775C219.888 593.957 195.557 595.048 190.307 594.51C185.058 593.973 182.079 589.903 181.781 586.462C181.483 583.022 183.754 580.872 183.401 577.017C183.047 573.162 179.398 572.041 179.156 569.476C178.914 566.911 181.93 563.179 181.893 560.614C181.893 555.208 182.005 561.106 183.308 530.373C184.034 512.849 189.172 509.041 183.308 489.167C181.185 481.994 158.399 352.139 158.399 352.139L228.675 355.61C228.675 355.61 229.792 377.726 231.058 403.851C232.659 437.086 234.502 476.803 234.558 485.742C234.67 503.895 232.696 529.329 231.039 551.906C230.351 561.536 229.178 568.17 231.039 571.872C231.26 572.258 231.393 572.675 231.43 573.1C231.747 575.542 229.643 575.711 230.537 579.566Z" stroke="#263238" stroke-linecap="round" stroke-linejoin="round"/>
<path d="M225.157 397.584C225.157 397.584 216.537 403.728 209.184 402.622" stroke="#263238" stroke-linecap="round" stroke-linejoin="round"/>
<path d="M224.3 409.196C224.3 409.196 209.78 406.308 208.123 403.882" stroke="#263238" stroke-linecap="round" stroke-linejoin="round"/>
<path d="M205.684 463.917C205.684 463.917 213.522 480.812 222.234 484.897" stroke="#263238" stroke-linecap="round" stroke-linejoin="round"/>
<path d="M222.625 576.049C222.625 576.049 205.219 580.488 196.562 577.247C187.906 574.007 203.394 584.665 219.665 583.729" stroke="#263238" stroke-linecap="round" stroke-linejoin="round"/>
<path d="M197.977 499.457C197.977 499.457 198.126 544.38 212.33 553.319" stroke="#263238" stroke-linecap="round" stroke-linejoin="round"/>
<path d="M212.572 600.193C215.931 599.088 219.495 598.47 223.109 598.365" stroke="#263238" stroke-linecap="round" stroke-linejoin="round"/>
<path d="M212.889 606.013C212.889 606.013 217.934 604.478 221.582 603.863" stroke="#263238" stroke-linecap="round" stroke-linejoin="round"/>
<path d="M213.838 611.589L221.973 609.577" stroke="#263238" stroke-linecap="round" stroke-linejoin="round"/>
<path d="M217.803 616.15L224.487 613.985" stroke="#263238" stroke-linecap="round" stroke-linejoin="round"/>
<path d="M225.38 620.066L229.271 617.594" stroke="#263238" stroke-linecap="round" stroke-linejoin="round"/>
<path d="M214.248 594.648C214.248 594.648 213.596 610.006 219.479 615.059C225.362 620.112 231.598 620.22 231.058 622.155" stroke="#263238" stroke-linecap="round" stroke-linejoin="round"/>
<path d="M160.577 592.851C160.577 592.851 134.254 593.297 134.161 594.157C134.068 595.017 137.884 599.793 133.547 611.266C132.616 613.769 127.962 618.515 127.366 624.489C126.771 630.464 128.129 630.464 128.129 630.464C128.129 630.464 187.701 630.74 190.996 629.619C190.996 629.619 193.305 623.722 191.61 620.788C188.26 614.967 175.954 619.667 176.345 619.728H175.954C166.777 618.054 162.16 610.513 165.287 602.527L169.252 592.437L160.577 592.851Z" fill="#263238"/>
<path opacity="0.25" d="M160.577 592.851C160.577 592.851 134.254 593.297 134.161 594.157C134.068 595.017 137.884 599.793 133.547 611.266C132.616 613.769 127.962 618.515 127.366 624.489C126.771 630.464 128.129 630.464 128.129 630.464C128.129 630.464 187.701 630.74 190.996 629.619C190.996 629.619 193.305 623.722 191.61 620.788C188.26 614.967 175.954 619.667 176.345 619.728H175.954C166.777 618.054 162.16 610.513 165.287 602.527L169.252 592.437L160.577 592.851Z" fill="#D9704C"/>
<path d="M160.577 592.851C160.577 592.851 134.254 593.297 134.161 594.157C134.068 595.017 137.884 599.793 133.547 611.266C132.616 613.769 127.962 618.515 127.366 624.489C126.771 630.464 128.129 630.464 128.129 630.464C128.129 630.464 187.701 630.74 190.996 629.619C190.996 629.619 193.305 623.722 191.61 620.788C188.26 614.967 175.954 619.667 176.345 619.728H175.954C166.777 618.054 162.16 610.513 165.287 602.527L169.252 592.437L160.577 592.851Z" stroke="#263238" stroke-linecap="round" stroke-linejoin="round"/>
<path d="M222.439 355.61L152.889 352.139C152.889 352.139 148.626 481.779 149.166 488.936C150.897 508.779 144.977 512.573 140.584 530.082C132.877 560.798 133.919 554.87 132.877 560.261C132.374 562.826 128.576 566.558 128.278 569.123C127.981 571.687 131.406 572.809 130.959 576.648C130.512 580.488 127.757 582.669 127.366 586.078C126.975 589.488 129.079 593.573 134.217 594.111C139.355 594.648 164.003 593.558 169.252 592.375C174.502 591.193 176.01 587.768 177.797 585.94C179.584 584.112 177.648 583.037 177.555 579.182C177.462 575.327 179.566 575.22 179.845 572.701C179.896 572.288 179.852 571.872 179.715 571.472C178.579 567.802 181.148 561.182 183.829 551.507C190.158 528.976 197.475 503.573 201.123 485.465C202.985 476.435 209.519 435.981 214.881 402.53C214.881 402.53 220.019 395.696 222.625 382.457" fill="#673AB7"/>
<path opacity="0.3" d="M152.665 356.639L152.051 376.006C163.822 376.794 175.651 376.794 187.422 376.006C210.394 374.317 224.375 365.916 224.375 365.916L222.513 355.61C222.513 355.61 196.451 361.4 183.624 360.586C170.798 359.772 158.511 358.498 152.665 356.639Z" fill="black"/>
<path d="M222.439 355.61L152.889 352.139C152.889 352.139 148.626 481.779 149.166 488.936C150.897 508.779 144.977 512.573 140.584 530.082C132.877 560.798 133.919 554.87 132.877 560.261C132.374 562.826 128.576 566.558 128.278 569.123C127.981 571.687 131.406 572.809 130.959 576.648C130.512 580.488 127.757 582.669 127.366 586.078C126.975 589.488 129.079 593.573 134.217 594.111C139.355 594.648 164.003 593.558 169.252 592.375C174.502 591.193 176.01 587.768 177.797 585.94C179.584 584.112 177.648 583.037 177.555 579.182C177.462 575.327 179.566 575.22 179.845 572.701C179.896 572.288 179.852 571.872 179.715 571.472C178.579 567.802 181.148 561.182 183.829 551.507C190.158 528.976 197.475 503.573 201.123 485.465C202.985 476.435 209.519 435.981 214.881 402.53C214.881 402.53 220.019 395.696 222.625 382.457" stroke="#263238" stroke-linecap="round" stroke-linejoin="round"/>
<path d="M188.073 512.404C188.073 512.404 164.021 546.192 140.286 557.235" stroke="#263238" stroke-linecap="round" stroke-linejoin="round"/>
<path d="M139.876 576.049L165.697 578.737C167.558 578.937 169.96 579.551 169.774 581.179C169.588 582.807 167.596 583.544 165.883 584.051C160.134 585.82 153.884 586.167 147.9 585.049" stroke="#263238" stroke-linecap="round" stroke-linejoin="round"/>
<path d="M140.639 565.805C149.915 570.193 160.386 572.57 171.077 572.716" stroke="#263238" stroke-linecap="round" stroke-linejoin="round"/>
<path d="M156.836 504.31C156.836 504.31 169.867 504.725 176.569 504.233C171.598 509.854 163.537 512.296 155.756 512.619" stroke="#263238" stroke-linecap="round" stroke-linejoin="round"/>
<path d="M166.59 368.204C166.59 368.204 164.729 423.402 164.059 446.363C163.388 469.324 162.197 496.093 162.197 496.093C161.565 496.913 161.136 497.827 160.935 498.784C160.734 499.741 160.764 500.721 161.024 501.669L162.067 504.495L161.508 512.466C160.76 513.19 160.217 514.043 159.917 514.962C159.618 515.881 159.57 516.843 159.777 517.78C160.67 520.682 153.447 540.909 153.447 540.909L152.2 542.245C150.924 543.506 150.071 545.019 149.725 546.636C149.378 548.253 149.552 549.916 150.227 551.461L147.639 568.785C146.248 569.724 145.316 571.047 145.015 572.51C144.714 573.972 145.064 575.475 146.001 576.74V576.74L143.581 585.771C142.353 586.63 141.532 587.819 141.263 589.128C140.994 590.438 141.294 591.783 142.11 592.928L142.52 593.435" stroke="#263238" stroke-linecap="round" stroke-linejoin="round"/>
<path d="M287.055 266.409C285.194 269.772 269.333 278.695 269.333 278.695C269.319 277.222 269.7 275.764 270.45 274.426C271.585 272.982 272.311 271.6 273.037 270.74C273.225 268.408 272.296 266.108 270.45 264.335C268.29 262.354 266.596 267.3 265.647 270.586C264.697 273.873 258.48 278.88 258.759 281.337C259.299 284.163 259.987 286.943 260.862 289.707C260.862 289.707 234.334 297.387 231.412 292.779C225.223 282.881 218.387 273.268 210.934 263.982C204.698 271.17 209.612 281.091 213.131 293.286C216.649 305.48 227.484 322.559 227.484 322.559C246.882 314.88 268.923 294.914 268.923 294.914C268.923 294.914 274.099 293.009 280.502 291.197C286.906 289.385 285.976 287.834 286.999 282.643C288.023 277.451 293.403 270.356 293.087 267.683C292.77 265.011 288.954 263.061 287.055 266.409Z" fill="#D9704C" stroke="#263238" stroke-linecap="round" stroke-linejoin="round"/>
<path d="M224.3 292.349C224.058 303.468 226.72 341.173 229.606 356.132L150.655 354.489V353.399C156.445 335.706 152.684 316.538 143.544 299.905C138.703 291.074 136.544 279.786 134.049 269.096C127.701 241.881 143.637 233.45 156.947 232.405C162.085 232.205 162.532 229.333 166.255 229.564C168.825 229.821 171.432 229.558 173.851 228.796C175.508 234.371 184.685 250.743 187.831 252.617C189.359 253.612 191.215 254.205 193.156 254.32C195.098 254.435 197.037 254.067 198.722 253.262C201.887 251.434 202.762 247.948 203.488 244.815C203.815 243.117 204.403 241.46 205.237 239.885C209.891 241.804 218.008 244.078 224.04 253.031C231.486 272.798 227.391 260.127 233.124 289.124C234.111 293.562 224.3 292.349 224.3 292.349Z" fill="#D9704C" stroke="#263238" stroke-linecap="round" stroke-linejoin="round"/>
<path d="M211.883 240.898L204.251 238.702C209.426 253.369 204.94 270.033 191.852 263.444C178.765 256.855 173.571 237.919 169.662 229.656C167.614 229.134 159.293 228.888 154.974 231.622C159.479 238.425 171.728 251.941 170.295 262.922C168.657 275.209 156.947 286.113 135.073 273.765C138.052 292.379 147.509 305.803 149.333 312.161C155.998 335.199 151.549 338.347 148.44 361.078C180.087 374.393 218.38 367.774 235.154 363.719C230.034 340.559 232.287 282.197 211.883 240.898Z" fill="#673AB7"/>
<path opacity="0.3" d="M163.649 338.67C163.649 338.67 215.272 357.253 222.625 339.207C209.075 341.635 195.117 342.108 181.372 340.605L163.649 338.67" fill="black"/>
<path opacity="0.3" d="M145.349 298.461L182.861 273.888C182.861 273.888 190.307 290.782 170.351 300.473C156.854 307.031 145.349 298.461 145.349 298.461Z" fill="black"/>
<path d="M211.883 240.898L204.251 238.702C209.426 253.369 204.94 270.033 191.852 263.444C178.765 256.855 173.571 237.919 169.662 229.656C167.614 229.134 159.293 228.888 154.974 231.622C159.479 238.425 171.728 251.941 170.295 262.922C168.657 275.209 156.947 286.113 135.073 273.765C138.052 292.379 147.509 305.803 149.333 312.161C155.998 335.199 151.549 338.347 148.44 361.078C180.087 374.393 218.38 367.774 235.154 363.719C230.034 340.559 232.287 282.197 211.883 240.898Z" stroke="#263238" stroke-linecap="round" stroke-linejoin="round"/>
<path d="M222.625 338.608C222.303 339.765 221.664 340.845 220.757 341.766C219.85 342.687 218.7 343.425 217.394 343.922" stroke="#263238" stroke-linecap="round" stroke-linejoin="round"/>
<path d="M209.072 345.581C193.371 346.761 177.592 344.157 163.649 338.086" stroke="#263238" stroke-linecap="round" stroke-linejoin="round"/>
<path d="M281.415 241.497L265.256 277.052C264.969 277.686 264.862 278.366 264.943 279.039C265.024 279.713 265.29 280.362 265.721 280.938L268.718 284.9C270.189 286.851 275.383 287.434 277.617 286.175C278.433 285.722 279.079 285.089 279.479 284.347L295.414 248.823C295.827 248.011 295.938 247.116 295.732 246.252C295.527 245.387 295.014 244.593 294.26 243.97L289.233 239.961C288.778 239.586 288.234 239.292 287.635 239.098C287.036 238.904 286.394 238.814 285.751 238.835C285.108 238.855 284.477 238.984 283.897 239.215C283.317 239.446 282.802 239.773 282.383 240.176C281.965 240.564 281.637 241.012 281.415 241.497V241.497Z" fill="#263238"/>
<path d="M135.036 251.065C135.422 256.372 136.973 261.576 139.616 266.424C147.379 281.659 177.015 319.579 183.512 322.144C190.009 324.709 256.413 295.221 261.216 291.182C262.582 289.923 263.502 288.38 263.876 286.719C264.25 285.059 264.064 283.346 263.338 281.767C263.338 281.767 263.245 285.545 267.155 284.839C269.612 284.393 267.583 278.127 267.583 278.127C267.583 278.127 272.088 275.501 267.788 270.647C267.788 270.647 273.856 270.647 273.372 266.869C273.205 265.333 255.333 265.134 252.597 269.388C249.265 274.548 245.951 288.002 245.951 288.002C245.951 288.002 202.687 297.217 193.714 298.584L170.314 256.241" fill="#D9704C"/>
<path d="M135.036 251.065C135.422 256.372 136.973 261.576 139.616 266.424C147.379 281.659 177.015 319.579 183.512 322.144C190.009 324.709 256.413 295.221 261.216 291.182C262.582 289.923 263.502 288.38 263.876 286.719C264.25 285.059 264.064 283.346 263.338 281.767C263.338 281.767 263.245 285.545 267.155 284.839C269.612 284.393 267.583 278.127 267.583 278.127C267.583 278.127 272.088 275.501 267.788 270.647C267.788 270.647 273.856 270.647 273.372 266.869C273.205 265.333 255.333 265.134 252.597 269.388C249.265 274.548 245.951 288.002 245.951 288.002C245.951 288.002 202.687 297.217 193.714 298.584L170.314 256.241" stroke="#263238" stroke-linecap="round" stroke-linejoin="round"/>
<path d="M261.905 293.47C263.254 290.667 265.579 288.257 268.588 286.544C272.088 285.177 276.91 284.747 280.726 284.148C280.726 284.148 283.704 273.735 285.324 274.027C290.257 274.871 286.404 284.44 286.404 284.44" fill="#D9704C"/>
<path d="M261.905 293.47C263.254 290.667 265.579 288.257 268.588 286.544C272.088 285.177 276.91 284.747 280.726 284.148C280.726 284.148 283.704 273.735 285.324 274.027C290.257 274.871 286.404 284.44 286.404 284.44" stroke="#263238" stroke-linecap="round" stroke-linejoin="round"/>
<path d="M292.342 270.279C291.705 269.753 290.853 269.444 289.953 269.413C289.053 269.382 288.172 269.63 287.483 270.11C285.082 271.907 281.433 276.99 277.542 279.709" stroke="#263238" stroke-linecap="round" stroke-linejoin="round"/>
<path d="M257.809 281.214C258.87 279.279 266.41 276.007 267.899 280.2" stroke="#263238" stroke-linecap="round" stroke-linejoin="round"/>
<path d="M257.809 276.053C257.809 276.053 266.54 272.121 268.29 276.99" stroke="#263238" stroke-linecap="round" stroke-linejoin="round"/>
<path d="M258.908 271.446C258.908 271.446 262.538 270.862 263.338 270.801C266.224 270.571 269.37 270.263 270.934 270.263" stroke="#263238" stroke-linecap="round" stroke-linejoin="round"/>
<path d="M214.881 402.622C214.881 402.622 203.246 394.16 196.488 392.547Z" fill="#673AB7"/>
<path d="M214.881 402.622C214.881 402.622 203.246 394.16 196.488 392.547" stroke="#263238" stroke-linecap="round" stroke-linejoin="round"/>
<path d="M156.128 600.285C159.558 599.175 163.189 598.547 166.87 598.426" stroke="#263238" stroke-linecap="round" stroke-linejoin="round"/>
<path d="M155.867 606.259C155.867 606.259 161.061 604.723 164.766 604.063" stroke="#263238" stroke-linecap="round" stroke-linejoin="round"/>
<path d="M156.221 611.865L164.561 609.838" stroke="#263238" stroke-linecap="round" stroke-linejoin="round"/>
<path d="M159.702 616.503L166.628 614.307" stroke="#263238" stroke-linecap="round" stroke-linejoin="round"/>
<path d="M166.87 620.481L171.021 617.977" stroke="#263238" stroke-linecap="round" stroke-linejoin="round"/>
<path d="M158.399 594.648C158.399 594.648 156.128 610.314 161.508 615.397C166.888 620.481 173.069 620.634 172.343 622.616" stroke="#263238" stroke-linecap="round" stroke-linejoin="round"/>
<path d="M203.525 238.072C203.525 238.072 211.381 263.337 198.778 265.257C181.595 267.867 169.662 229.61 169.662 229.61C172.287 229.471 172.603 228.565 174.893 227.49C174.893 227.49 194.086 259.159 203.525 238.072Z" fill="#263238"/>
<path d="M151.269 233.28C151.269 233.28 133.305 236.214 133.249 258.253C133.193 280.293 145.033 298.646 145.033 298.646C145.033 298.646 159.051 297.709 167.912 292.349C186.528 281.137 183.512 274.84 183.512 274.84L173.758 258.898C173.758 258.898 170.556 248.685 156.631 232.405L151.269 233.28Z" fill="#263238"/>
<path d="M212.982 241.774C222.774 264.704 223.221 273.289 224.989 283.871C224.989 283.871 234.576 282.335 236.047 280.585C236.047 280.585 231.393 261.817 226.367 252.11C223.165 245.951 218.958 243.801 212.982 241.774Z" fill="#263238"/>
<path d="M203.506 215.741C203.506 215.741 202.11 236.751 202.203 238.441C202.371 241.62 205.163 245.844 202.594 248.224C201.177 249.325 199.393 250.05 197.471 250.305C195.549 250.56 193.579 250.332 191.815 249.653C188.323 248.22 185.302 246.112 183.01 243.509C178.594 239.048 174.763 234.214 171.579 229.088C173.71 227.397 175.274 225.281 176.122 222.944C176.122 222.944 176.624 221.163 176.643 221.071C177.292 216.742 177.223 212.36 176.438 208.047C175.548 202.709 174.045 197.454 171.952 192.35L203.506 215.741Z" fill="#D9704C" stroke="#263238" stroke-linecap="round" stroke-linejoin="round"/>
<path d="M177.034 235.799C181.44 236.986 185.713 238.487 189.805 240.284Z" fill="#263238"/>
<path d="M177.034 235.799C181.44 236.986 185.713 238.487 189.805 240.284" stroke="#263238" stroke-linecap="round" stroke-linejoin="round"/>
<path d="M173.143 164.92C173.143 164.92 157.282 172.399 165.492 191.92C173.702 211.44 192.001 233.249 208.588 230.316C225.175 227.382 229.476 200.198 220.707 182.075C211.939 163.952 189.6 153.923 173.143 164.92Z" fill="#D9704C" stroke="#263238" stroke-linecap="round" stroke-linejoin="round"/>
<path d="M220.447 200.951C220.559 202.487 219.795 203.9 218.753 204.023C217.71 204.146 216.761 202.794 216.649 201.197C216.537 199.6 217.263 198.263 218.343 198.202C219.423 198.141 220.335 199.339 220.447 200.951Z" fill="#263238"/>
<path d="M204.269 200.322C204.381 201.857 203.636 203.255 202.613 203.316C201.589 203.378 200.602 202.088 200.49 200.506C200.379 198.924 201.123 197.557 202.184 197.434C203.246 197.311 204.139 198.694 204.269 200.322Z" fill="#263238"/>
<path d="M210.357 168.283C199.727 159.744 185.262 157.102 173.683 164.828C173.683 164.828 157.841 172.307 166.051 191.843C168.04 196.5 170.448 201.028 173.255 205.389L173.553 205.604C173.553 205.604 168.34 201.319 189.023 191.889C195.818 188.725 205.852 168.99 210.357 168.283Z" fill="#263238" stroke="#263238" stroke-linecap="round" stroke-linejoin="round"/>
<path d="M193.751 174.688C193.751 174.688 195.203 161.096 206.671 160.635C212.647 160.389 220.54 167.009 221.564 170.495C222.206 172.856 223.665 175.012 225.763 176.702C227.861 178.392 230.509 179.544 233.385 180.017V180.017C233.385 180.017 230.071 189.232 223.612 189.908C212.945 190.983 207.416 188.925 200.528 181.169C198.604 178.917 196.436 176.815 194.049 174.888L193.751 174.688Z" fill="#263238" stroke="#263238" stroke-linecap="round" stroke-linejoin="round"/>
<path d="M176.68 200.798C176.68 200.798 170.407 190.139 164.822 201.873C161.341 209.183 175.265 215.035 180.031 213.1" fill="#D9704C"/>
<path d="M176.68 200.798C176.68 200.798 170.407 190.139 164.822 201.873C161.341 209.183 175.265 215.035 180.031 213.1" stroke="#263238" stroke-linecap="round" stroke-linejoin="round"/>
<path d="M214.024 194.332C212.968 195.296 212.205 196.453 211.797 197.708C211.389 198.963 211.349 200.28 211.679 201.55C212.16 204.339 213.306 207.022 215.048 209.444L207.08 211.549" stroke="#263238" stroke-linecap="round" stroke-linejoin="round"/>
<path d="M200.099 216.355C201.352 217.387 202.935 218.102 204.663 218.418C206.39 218.733 208.191 218.636 209.854 218.137" stroke="#263238" stroke-linecap="round" stroke-linejoin="round"/>
<path d="M191.182 194.147C191.182 194.147 196.767 189.048 203.506 191.505" stroke="#263238" stroke-linecap="round" stroke-linejoin="round"/>
<path d="M217.096 192.796C217.096 192.796 224.412 190.907 223.481 196.236" stroke="#263238" stroke-linecap="round" stroke-linejoin="round"/>
<path d="M176.55 206.633C175.902 206.651 175.265 206.499 174.729 206.198C174.194 205.897 173.788 205.463 173.571 204.959C173.032 203.992 172.883 202.886 172.343 201.888C172.12 201.384 171.71 200.951 171.172 200.651C170.634 200.35 169.995 200.197 169.346 200.214" fill="#263238"/>
<path d="M176.55 206.633C175.902 206.651 175.265 206.499 174.729 206.198C174.194 205.897 173.788 205.463 173.571 204.959C173.032 203.992 172.883 202.886 172.343 201.888C172.12 201.384 171.71 200.951 171.172 200.651C170.634 200.35 169.995 200.197 169.346 200.214" stroke="#263238" stroke-linecap="round" stroke-linejoin="round"/>
<path d="M199.764 164.505C198.974 161.759 197.721 159.117 196.041 156.657C196.041 156.657 199.076 156.028 200.751 155.736C200.379 158.424 200.099 161.802 199.764 164.505Z" fill="#263238" stroke="#263238" stroke-linecap="round" stroke-linejoin="round"/>
<path d="M202.948 229.733L203.078 234.34C201.851 234.787 200.495 234.936 199.169 234.77C192.02 234.079 184.816 220.948 184.369 220.195L184.518 220.333C192.969 228.028 199.243 229.687 202.948 229.733Z" fill="#263238"/>
<path d="M444.455 273.934H491.498" stroke="#263238" stroke-linecap="round" stroke-linejoin="round"/>
<path d="M390.486 273.934H438.255" stroke="#263238" stroke-linecap="round" stroke-linejoin="round"/>
<path d="M365.038 273.934H379.726" stroke="#263238" stroke-linecap="round" stroke-linejoin="round"/>
<path d="M403.667 295.006H491.311" stroke="#263238" stroke-linecap="round" stroke-linejoin="round"/>
<path d="M379.726 295.006H390.486" stroke="#263238" stroke-linecap="round" stroke-linejoin="round"/>
<path d="M442.891 316.093H491.125" stroke="#263238" stroke-linecap="round" stroke-linejoin="round"/>
<path d="M394.415 316.093H435.761" stroke="#263238" stroke-linecap="round" stroke-linejoin="round"/>
<path d="M436.282 337.164H490.939" stroke="#263238" stroke-linecap="round" stroke-linejoin="round"/>
<path d="M409.103 337.164H428.519" stroke="#263238" stroke-linecap="round" stroke-linejoin="round"/>
<path d="M597.014 337.932H460.036L466.906 273.135H603.883L597.014 337.932Z" fill="white" stroke="#263238" stroke-linecap="round" stroke-linejoin="round"/>
<path d="M603.883 273.151H466.906" stroke="#263238" stroke-linecap="round" stroke-linejoin="round"/>
<path d="M597.014 337.932H460.036L506.856 301.257L530.647 317.982L558.497 300.934L597.014 337.932Z" fill="white" stroke="#263238" stroke-linecap="round" stroke-linejoin="round"/>
<path d="M603.883 273.135L558.497 300.934L530.647 317.982L506.856 301.256L466.906 273.135H603.883Z" fill="white" stroke="#263238" stroke-linecap="round" stroke-linejoin="round"/>
<path d="M351.933 273.934H317.549" stroke="#263238" stroke-linecap="round" stroke-linejoin="round"/>
<path d="M483.679 199.707C456.239 218.137 405.584 229.394 405.584 229.394L431.107 206.833C418.657 203.526 407.913 196.865 400.599 187.919C393.285 178.973 389.825 168.26 390.772 157.497C391.72 146.735 397.021 136.547 405.825 128.566C414.63 120.586 426.427 115.277 439.326 113.489C452.225 111.701 465.478 113.538 476.96 118.706C488.442 123.874 497.488 132.074 502.647 141.99C507.805 151.906 508.779 162.964 505.41 173.391C502.042 183.818 494.526 193.009 484.07 199.492" fill="white"/>
<path d="M483.679 199.707C456.239 218.137 405.584 229.394 405.584 229.394L431.107 206.833C418.657 203.526 407.913 196.865 400.599 187.919C393.285 178.973 389.825 168.26 390.772 157.497C391.72 146.735 397.021 136.547 405.825 128.566C414.63 120.586 426.427 115.277 439.326 113.489C452.225 111.701 465.478 113.538 476.96 118.706C488.442 123.874 497.488 132.074 502.647 141.99C507.805 151.906 508.779 162.964 505.41 173.391C502.042 183.818 494.526 193.009 484.07 199.492" stroke="#263238" stroke-linecap="round" stroke-linejoin="round"/>
<path d="M485.075 140.239C494.565 140.239 502.258 133.892 502.258 126.063C502.258 118.234 494.565 111.887 485.075 111.887C475.585 111.887 467.892 118.234 467.892 126.063C467.892 133.892 475.585 140.239 485.075 140.239Z" fill="#92E3A9" stroke="#263238" stroke-linecap="round" stroke-linejoin="round"/>
<path d="M475.115 122.899L485.075 132.145L507.731 110.029L506.93 109.338L485.075 124.85L479.285 119.643L475.115 122.899Z" fill="#263238" stroke="#263238" stroke-linecap="round" stroke-linejoin="round"/>
<path d="M418.802 149.332H482.971" stroke="#263238" stroke-linecap="round" stroke-linejoin="round"/>
<path d="M417.35 163H481.519" stroke="#263238" stroke-linecap="round" stroke-linejoin="round"/>
<path d="M415.916 176.669H480.067" stroke="#263238" stroke-linecap="round" stroke-linejoin="round"/>
<path d="M617.994 28.7065V52.9421L698.36 1.82935L617.994 28.7065Z" fill="#E62552" stroke="#263238" stroke-linecap="round" stroke-linejoin="round"/>
<path d="M617.994 28.7066L700.203 1L587.948 10.599L617.994 28.7066Z" fill="#E62552" stroke="#263238" stroke-linecap="round" stroke-linejoin="round"/>
<path d="M627.656 33.7288L666.359 57.35L700.203 1L627.656 33.7288Z" fill="#E62552" stroke="#263238" stroke-linecap="round" stroke-linejoin="round"/>
<path d="M627.656 33.7288L617.994 52.9421L638.584 40.3943L627.656 33.7288Z" fill="#E62552" stroke="#263238" stroke-linecap="round" stroke-linejoin="round"/>
<path d="M310.028 236.844C310.232 236.352 310.456 235.876 310.661 235.4" stroke="#263238" stroke-linecap="round" stroke-linejoin="round"/>
<path d="M313.099 229.594C330.412 186.944 327.303 161.311 355.414 119.997C360.999 111.642 389.276 72.1092 429.45 58.0102C450.337 50.6842 463.629 61.6194 458.249 69.36C446.242 86.5922 402.14 65.9351 446.242 45.5392C487.048 26.679 573.911 63.5546 614.625 52.9726" stroke="#263238" stroke-linecap="round" stroke-linejoin="round" stroke-dasharray="2 4"/>
<path d="M618.106 51.9131C618.683 51.7135 619.241 51.4984 619.8 51.2681" stroke="#263238" stroke-linecap="round" stroke-linejoin="round"/>
</svg>
