<svg width="70" height="70" viewBox="0 0 70 70" fill="none" xmlns="http://www.w3.org/2000/svg">
<path d="M40.4688 52.4974H29.5312C27.7129 52.4974 26.25 51.0343 26.25 49.2157V26.2436H14.2598C11.8262 26.2436 10.6094 23.3037 12.332 21.5808L33.127 0.769156C34.1523 -0.256385 35.834 -0.256385 36.8594 0.769156L57.668 21.5808C59.3906 23.3037 58.1738 26.2436 55.7402 26.2436H43.75V49.2157C43.75 51.0343 42.2871 52.4974 40.4688 52.4974ZM70 51.4035V66.7183C70 68.5369 68.5371 70 66.7188 70H3.28125C1.46289 70 0 68.5369 0 66.7183V51.4035C0 49.5849 1.46289 48.1218 3.28125 48.1218H21.875V49.2157C21.875 53.4409 25.3066 56.8731 29.5312 56.8731H40.4688C44.6934 56.8731 48.125 53.4409 48.125 49.2157V48.1218H66.7188C68.5371 48.1218 70 49.5849 70 51.4035ZM53.0469 63.4365C53.0469 61.9324 51.8164 60.7018 50.3125 60.7018C48.8086 60.7018 47.5781 61.9324 47.5781 63.4365C47.5781 64.9407 48.8086 66.1713 50.3125 66.1713C51.8164 66.1713 53.0469 64.9407 53.0469 63.4365ZM61.7969 63.4365C61.7969 61.9324 60.5664 60.7018 59.0625 60.7018C57.5586 60.7018 56.3281 61.9324 56.3281 63.4365C56.3281 64.9407 57.5586 66.1713 59.0625 66.1713C60.5664 66.1713 61.7969 64.9407 61.7969 63.4365Z" fill="#F3E2E2"/>
</svg>
