<svg width="100" height="100" viewBox="0 0 100 100" fill="none" xmlns="http://www.w3.org/2000/svg">
<g clip-path="url(#clip0)">
<path d="M61.3105 40.711L46.2855 54.9024L39.0746 47.4839C38.2751 46.6609 36.9588 46.6422 36.1366 47.4416C35.3136 48.2418 35.2949 49.5573 36.0943 50.3803L44.7428 59.2584C45.5463 60.0668 46.8447 60.0945 47.6816 59.3203L64.2077 43.7327C64.6091 43.3542 64.8435 42.8316 64.859 42.2805C64.8744 41.7293 64.6701 41.1945 64.2908 40.794C63.4865 39.958 62.1604 39.9213 61.3105 40.711V40.711Z" fill="#A52422"/>
<path d="M50.1613 18.8707C32.9896 18.8707 19.0269 32.8334 19.0269 50.0051C19.0269 67.1776 32.9896 81.1403 50.1613 81.1403C67.3338 81.1403 81.2965 67.1776 81.2965 50.0051C81.2965 32.8334 67.3338 18.8707 50.1613 18.8707V18.8707ZM50.1613 76.9723C35.2819 76.9723 23.1948 64.864 23.1948 50.0051C23.1948 35.1461 35.2819 23.0386 50.1613 23.0386C65.0552 23.0386 77.1285 35.1119 77.1285 50.0051C77.1285 64.8982 65.0552 76.9723 50.1613 76.9723V76.9723Z" fill="#FF8244"/>
<path d="M93.0084 38.5424L93.6963 26.1842C93.7443 25.3546 93.2933 24.5756 92.5501 24.2044L81.5465 18.6403L75.9824 7.63671C75.6039 6.89998 74.8297 6.45144 74.0026 6.49051L61.6233 7.15804L51.3075 0.342759C50.6123 -0.115555 49.7112 -0.115555 49.0152 0.342759L38.6994 7.15804L26.3421 6.47016C25.5117 6.42132 24.7335 6.87231 24.3623 7.61635L18.7974 18.62L7.79458 24.184C7.05704 24.5618 6.60931 25.3359 6.64839 26.1638L7.33545 38.522L0.520982 48.8377C0.0626676 49.5329 0.0626676 50.4341 0.520982 51.1301L7.3151 61.4662L6.62722 73.8244C6.57919 74.6539 7.02937 75.433 7.77341 75.8042L18.777 81.3682L24.3411 92.3719C24.7188 93.1094 25.493 93.5571 26.3209 93.518L38.6791 92.8302L48.9948 99.6446C49.6859 100.118 50.5961 100.118 51.2872 99.6446L61.6029 92.8302L73.9611 93.518C74.7906 93.5661 75.5689 93.1151 75.9409 92.3719L81.505 81.3682L92.5086 75.8042C93.2453 75.4256 93.6939 74.6523 93.6548 73.8244L92.9669 61.4662L99.7814 51.1505C100.24 50.4553 100.24 49.5533 99.7814 48.8581L93.0084 38.5424ZM89.1319 59.7575C88.8779 60.1303 88.7599 60.5789 88.7989 61.029L89.4445 72.7197L79.0457 77.9712C78.6493 78.1698 78.3277 78.4922 78.1291 78.8886L72.8768 89.2874L61.1861 88.6418C60.7384 88.6256 60.2964 88.7412 59.9146 88.9748L50.1614 95.4148L40.409 88.9748C40.0703 88.746 39.6714 88.6223 39.2628 88.6207H39.1586L27.4671 89.267L22.2156 78.8675C22.017 78.471 21.6954 78.1495 21.2982 77.9508L10.8782 72.7197L11.5246 61.029C11.5409 60.5813 11.4245 60.1393 11.1908 59.7575L4.75163 50.0043L11.1908 40.2511C11.4456 39.879 11.5637 39.4297 11.5246 38.9803L10.8782 27.2888L21.2778 22.0374C21.6742 21.8387 21.9958 21.5172 22.1944 21.1207L27.4459 10.7212L39.1374 11.3675C39.5843 11.383 40.0263 11.2674 40.409 11.0338L50.1614 4.59458L59.9146 11.0338C60.2874 11.2886 60.7368 11.4066 61.1861 11.3675L72.8768 10.7212L78.1291 21.1207C78.3277 21.5172 78.6493 21.8387 79.0457 22.0374L89.4445 27.2888L88.7989 38.9803C88.7827 39.4272 88.8991 39.8693 89.1319 40.2511L95.5719 50.0043L89.1319 59.7575Z" fill="#A52422"/>
</g>
<defs>
<clipPath id="clip0">
<rect width="100" height="100" fill="white"/>
</clipPath>
</defs>
</svg>
