<svg width="100" height="100" viewBox="0 0 100 100" fill="none" xmlns="http://www.w3.org/2000/svg">
<g clip-path="url(#clip0)">
<path d="M99.363 27.6457C100.197 26.7824 100.173 25.4065 99.3097 24.5725C98.4674 23.7592 97.1322 23.7592 96.2901 24.5725L50.0114 70.847L3.73692 24.5683C2.90297 23.705 1.52726 23.6811 0.663769 24.5149C-0.199516 25.3488 -0.223353 26.7245 0.610388 27.588C0.62791 27.6061 0.645635 27.6239 0.663769 27.6414L48.4769 75.4546C49.3255 76.303 50.7013 76.303 51.5501 75.4546L99.363 27.6457Z" fill="#ffffff"/>
<path d="M0.0248875 26.107C0.0226463 24.9067 0.994117 23.9319 2.1944 23.9297C2.77305 23.9287 3.32827 24.1585 3.73699 24.5682L50.0114 70.847L96.2857 24.5682C97.1355 23.7184 98.5133 23.7184 99.3631 24.5682C100.213 25.4181 100.213 26.7958 99.3631 27.6457L51.5499 75.4588C50.7013 76.3072 49.3256 76.3072 48.4768 75.4588L0.663842 27.6457C0.254917 27.2382 0.0248875 26.6844 0.0248875 26.107Z" fill="#ffffff"/>
</g>
<defs>
<clipPath id="clip0">
<rect width="100" height="100" fill="white" transform="translate(100) rotate(90)"/>
</clipPath>
</defs>
</svg>
