<svg width="100" height="100" viewBox="0 0 100 100" fill="none" xmlns="http://www.w3.org/2000/svg">
<path d="M26.5625 37.5V73.4375C26.5625 73.8519 26.7271 74.2493 27.0201 74.5424C27.3132 74.8354 27.7106 75 28.125 75H71.875C72.2894 75 72.6868 74.8354 72.9799 74.5424C73.2729 74.2493 73.4375 73.8519 73.4375 73.4375V26.5625C73.4375 26.1481 73.2729 25.7507 72.9799 25.4576C72.6868 25.1646 72.2894 25 71.875 25H28.125C27.7106 25 27.3132 25.1646 27.0201 25.4576C26.7271 25.7507 26.5625 26.1481 26.5625 26.5625V34.375H29.6875V28.125H42.1875V45.3125H29.6875V37.5H26.5625ZM57.8125 28.125H70.3125V45.3125H57.8125V28.125ZM45.3125 28.125H54.6875V45.3125H45.3125V28.125ZM45.3125 48.4375H54.6875V56.8469L53.8238 56.415C53.6069 56.3065 53.3676 56.2501 53.125 56.2501C52.8824 56.2501 52.6431 56.3065 52.4262 56.415L50 57.6281L47.5738 56.415C47.3569 56.3065 47.1176 56.2501 46.875 56.2501C46.6324 56.2501 46.3931 56.3065 46.1762 56.415L45.3125 56.8469V48.4375ZM42.1875 48.4375V59.375C42.1875 59.6413 42.2556 59.9033 42.3853 60.1359C42.515 60.3685 42.702 60.5641 42.9286 60.7041C43.1552 60.8441 43.4138 60.9239 43.6798 60.9359C43.9459 60.9478 44.2106 60.8916 44.4488 60.7725L46.875 59.5594L49.3012 60.7725C49.5181 60.881 49.7574 60.9375 50 60.9375C50.2426 60.9375 50.4819 60.881 50.6988 60.7725L53.125 59.5594L55.5512 60.7725C55.7894 60.8916 56.0541 60.9478 56.3202 60.9359C56.5862 60.9239 56.8448 60.8441 57.0714 60.7041C57.298 60.5641 57.485 60.3685 57.6147 60.1359C57.7444 59.9033 57.8125 59.6413 57.8125 59.375V48.4375H70.3125V71.875H29.6875V48.4375H42.1875ZM67.1875 68.75H64.0625V65.625H67.1875V68.75ZM60.9375 68.75H57.8125V65.625H60.9375V68.75ZM54.6875 68.75H51.5625V65.625H54.6875V68.75ZM83.1457 16.8543C87.512 21.197 90.9737 26.3625 93.3303 32.052C95.687 37.7414 96.8918 43.8418 96.875 50C96.8738 52.1636 96.7247 54.3245 96.4287 56.4678C96.3771 56.8416 96.1919 57.1842 95.9074 57.4321C95.6229 57.68 95.2583 57.8166 94.8809 57.8166C94.809 57.8166 94.7372 57.8116 94.666 57.8016L88.4746 56.9391C88.0645 56.8819 87.6939 56.6643 87.4441 56.334C87.1944 56.0038 87.0859 55.5879 87.1426 55.1777C87.3797 53.462 87.4991 51.732 87.5 50C87.5 29.3225 70.6775 12.5 50 12.5C43.7926 12.4967 37.6817 14.0358 32.2163 16.9788C26.751 19.9219 22.1025 24.1768 18.6887 29.3611L21.2691 30.6678C21.5255 30.7976 21.7412 30.9956 21.8923 31.2401C22.0435 31.4845 22.1242 31.7659 22.1258 32.0533C22.1274 32.3407 22.0496 32.623 21.9011 32.869C21.7526 33.1151 21.5392 33.3155 21.2842 33.448L10.3225 39.1475C10.1054 39.2603 9.86494 39.3206 9.62034 39.3235C9.37575 39.3265 9.13388 39.2719 8.91421 39.1643C8.69455 39.0567 8.50322 38.899 8.35562 38.7039C8.20803 38.5089 8.1083 38.2819 8.06445 38.0412L5.80605 25.6481C5.75393 25.3619 5.78272 25.0668 5.88919 24.7961C5.99566 24.5254 6.17558 24.2898 6.4087 24.1159C6.64181 23.9419 6.91886 23.8364 7.20866 23.8114C7.49846 23.7863 7.78951 23.8426 8.04902 23.974L10.2785 25.1029C11.7277 22.797 13.3739 20.6209 15.1986 18.599L17.5184 20.693C15.5072 22.921 13.7293 25.349 12.2125 27.9391C12.0116 28.2827 11.6871 28.5367 11.3053 28.6492C10.9235 28.7617 10.5132 28.7243 10.158 28.5445L9.44434 28.1832L10.7592 35.3981L17.1408 32.0801L15.7477 31.3748C15.5565 31.2779 15.3872 31.1428 15.2505 30.9777C15.1138 30.8126 15.0125 30.6212 14.9529 30.4153C14.8934 30.2094 14.8768 29.9935 14.9042 29.7809C14.9317 29.5683 15.0026 29.3637 15.1125 29.1797C18.7147 23.14 23.8238 18.1394 29.9395 14.6677C36.0551 11.196 42.9676 9.37222 50 9.375C72.4006 9.375 90.625 27.5994 90.625 50C90.625 51.3449 90.5568 52.7033 90.4223 54.0553L93.5195 54.4869C93.6725 52.9962 93.7494 51.4986 93.75 50C93.7502 41.4613 91.2518 33.1092 86.5626 25.9733C81.8734 18.8374 75.1985 13.2297 67.3608 9.84155C59.5231 6.45337 50.8652 5.43284 42.4545 6.90576C34.0438 8.37868 26.248 12.2807 20.0281 18.1307L17.8865 15.8549C26.761 7.50777 38.5368 2.94394 50.7186 3.1305C62.9004 3.31706 74.531 8.23934 83.1457 16.8543V16.8543ZM12.8574 44.8223C12.6204 46.538 12.501 48.268 12.5 50C12.5 70.6775 29.3225 87.5 50 87.5C56.2271 87.5031 62.3569 85.9542 67.8351 82.9934C73.3133 80.0326 77.9672 75.7532 81.3762 70.542L79.1406 69.707C78.8712 69.6065 78.6348 69.4335 78.4574 69.2072C78.28 68.9809 78.1685 68.7101 78.1351 68.4245C78.1018 68.1389 78.1479 67.8496 78.2683 67.5885C78.3888 67.3275 78.579 67.1047 78.818 66.9447L89.0625 60.0877C89.2652 59.9521 89.4969 59.8659 89.7389 59.8359C89.9809 59.8059 90.2266 59.8329 90.4563 59.9149C90.686 59.9969 90.8933 60.1315 91.0616 60.3079C91.23 60.4844 91.3547 60.6978 91.4258 60.9311L95.0943 72.9818C95.1792 73.2606 95.1844 73.5576 95.1094 73.8392C95.0344 74.1208 94.8821 74.3758 94.6698 74.5754C94.4575 74.775 94.1936 74.9112 93.9079 74.9687C93.6222 75.0262 93.3261 75.0027 93.0531 74.9008L90.3369 73.8867C88.53 76.9307 86.3854 79.7611 83.9439 82.3242L81.6811 80.169C84.2508 77.4714 86.4668 74.458 88.276 71.2012C88.4575 70.8741 88.7504 70.6231 89.1013 70.4936C89.4523 70.3642 89.838 70.3649 90.1885 70.4957L91.1846 70.8668L89.0502 63.8551L83.0898 67.8451L84.2557 68.2803C84.4693 68.3601 84.6628 68.4856 84.8228 68.6482C84.9827 68.8107 85.1051 69.0063 85.1814 69.2211C85.2577 69.436 85.2861 69.665 85.2645 69.892C85.2429 70.119 85.1719 70.3385 85.0564 70.5352C81.475 76.6524 76.3546 81.7255 70.2044 85.25C64.0542 88.7745 57.0885 90.6276 50 90.625C27.5994 90.625 9.375 72.4006 9.375 50C9.375 48.6551 9.44316 47.2967 9.57773 45.9447L6.48047 45.5131C6.32754 47.0038 6.25062 48.5014 6.25 50C6.24962 58.4789 8.71317 66.7752 13.341 73.8798C17.9688 80.9844 24.5615 86.5911 32.3171 90.0179C40.0727 93.4447 48.6569 94.5439 57.0257 93.1819C65.3945 91.8198 73.1872 88.0552 79.4559 82.3459L81.5609 84.6557C74.8445 90.7728 66.4952 94.8063 57.5286 96.2657C48.562 97.7251 39.3646 96.5474 31.055 92.8759C22.7453 89.2045 15.6817 83.1974 10.7231 75.5854C5.76457 67.9734 3.12484 59.0846 3.125 50C3.12619 47.8364 3.2753 45.6755 3.57129 43.5322C3.59938 43.3288 3.6673 43.1329 3.77115 42.9558C3.87501 42.7786 4.01277 42.6237 4.17655 42.4998C4.34033 42.3759 4.52693 42.2855 4.72566 42.2338C4.9244 42.1821 5.13138 42.1701 5.33477 42.1984L11.5262 43.0609C11.9361 43.1183 12.3065 43.336 12.5561 43.6662C12.8057 43.9965 12.9141 44.4122 12.8574 44.8223Z" fill="#A52422"/>
</svg>
