<svg width="100" height="100" viewBox="0 0 100 100" fill="none" xmlns="http://www.w3.org/2000/svg">
<g clip-path="url(#clip0)">
<path fill-rule="evenodd" clip-rule="evenodd" d="M20.1371 74.7079C17.0273 69.3208 15.5136 63.366 15.5159 57.4502H1.94629C1.94476 65.6739 4.05353 73.9594 8.38474 81.4614C10.2494 84.707 14.3921 85.8262 17.6377 83.9608C20.8832 82.0962 22.0024 77.9534 20.1371 74.7079Z" fill="#00C9AF"/>
<path fill-rule="evenodd" clip-rule="evenodd" d="M84.4841 57.451C84.4864 63.3661 82.9727 69.3208 79.863 74.7079C77.9976 77.9535 79.1168 82.0962 82.3624 83.9608C85.6079 85.8262 89.7507 84.707 91.6153 81.4622C95.9465 73.9595 98.056 65.6747 98.0537 57.451H84.4841Z" fill="#FD4848"/>
<path fill-rule="evenodd" clip-rule="evenodd" d="M15.8129 52.9413C16.3973 48.5025 17.8538 44.1705 20.1464 40.2139L8.37045 33.4153C5.19662 38.9245 3.17636 44.9731 2.35849 51.1865C2.08536 53.2609 1.94727 55.3537 1.94727 57.4502H15.5161C15.5169 55.9419 15.6161 54.4351 15.8129 52.9413V52.9413Z" fill="#8AE7D3"/>
<path fill-rule="evenodd" clip-rule="evenodd" d="M8.37012 33.4153L20.1453 40.2139C21.6277 37.6557 23.4603 35.2548 25.6316 33.0827C27.8136 30.9014 30.2154 29.0734 32.7651 27.5987L25.9566 15.8067C22.3998 17.8628 19.0497 20.4133 16.0064 23.4567C12.9828 26.4802 10.4323 29.8341 8.37012 33.4153Z" fill="#FFD777"/>
<path fill-rule="evenodd" clip-rule="evenodd" d="M25.9565 15.8067L32.765 27.5987C38.0797 24.5263 44.0397 22.9897 49.9998 22.9897V9.37585C41.6861 9.37585 33.3716 11.519 25.9565 15.8067Z" fill="#FFBA4A"/>
<path fill-rule="evenodd" clip-rule="evenodd" d="M50 9.37585V22.9897C52.8648 22.9897 55.7297 23.3445 58.5228 24.0548L59.317 24.2669C62.0552 25.0329 64.7179 26.143 67.2348 27.5987L74.0433 15.8067C66.629 11.519 58.3145 9.37585 50 9.37585V9.37585Z" fill="#FFBA4A"/>
<path fill-rule="evenodd" clip-rule="evenodd" d="M74.0433 15.8067L67.2349 27.5987C69.7854 29.0727 72.1863 30.9007 74.3683 33.0827C76.5404 35.2548 78.3723 37.6557 79.8546 40.2139L91.6306 33.4153C89.5676 29.8341 87.0179 26.4802 83.9936 23.4567C80.9502 20.4133 77.6009 17.8636 74.0433 15.8067V15.8067Z" fill="#FF8244"/>
<path fill-rule="evenodd" clip-rule="evenodd" d="M91.6305 33.4153L79.8545 40.2139C82.1471 44.1705 83.6036 48.5025 84.188 52.9413C84.3841 54.4351 84.484 55.9419 84.4848 57.4502H98.0536C98.0536 55.3537 97.9156 53.2609 97.6424 51.1865C96.8246 44.9731 94.8035 38.9253 91.6305 33.4153V33.4153Z" fill="#FF8244"/>
<path fill-rule="evenodd" clip-rule="evenodd" d="M49.004 61.1856L58.4912 62.7358L87.2571 67.4356L59.9919 57.1221L51.0037 53.7217C49.0162 52.9702 46.8212 54.4023 46.2719 56.4538C45.7218 58.5053 46.9075 60.843 49.004 61.1856V61.1856Z" fill="#808080"/>
<path fill-rule="evenodd" clip-rule="evenodd" d="M58.491 62.7351L49.0038 61.1856C46.9073 60.8423 45.7217 58.5054 46.2718 56.4538C46.8211 54.4015 49.0161 52.9702 51.0035 53.7217L59.9917 57.1222C59.9108 54.6754 58.9373 52.2538 57.0704 50.3862C53.1672 46.483 46.8394 46.483 42.9362 50.3862C39.033 54.2894 39.033 60.6172 42.9362 64.5204C46.8394 68.4236 53.1672 68.4236 57.0704 64.5204C57.622 63.9695 58.095 63.3699 58.491 62.7351Z" fill="#E6E6E6"/>
<path fill-rule="evenodd" clip-rule="evenodd" d="M38.2798 78.6126H61.7203V84.8634H38.2798V78.6126Z" fill="#8AE7D3"/>
<path d="M16.0062 25.4098C16.506 25.4098 17.0057 25.219 17.3872 24.8376C17.3887 24.8368 17.394 24.8315 17.3986 24.8269C18.1608 24.0746 18.1753 22.847 17.4276 22.0765C16.6761 21.3029 15.4394 21.2838 14.665 22.0353C14.6566 22.0437 14.6314 22.0681 14.623 22.0772C13.8624 22.8402 13.8624 24.0754 14.6246 24.8376C15.0068 25.2198 15.5065 25.4098 16.0062 25.4098Z" fill="black"/>
<path d="M99.5785 50.9316C98.1464 40.0506 93.1019 29.8028 85.3748 22.0757C75.925 12.626 63.3625 7.42197 49.9996 7.42197C39.5565 7.42197 29.5582 10.6011 21.085 16.6154C20.2053 17.2402 19.9985 18.4594 20.6226 19.3391C21.2467 20.2187 22.4659 20.4255 23.3463 19.8014C23.9765 19.3543 24.6158 18.9256 25.2636 18.5128L30.122 26.928C28.0285 28.2975 26.0601 29.8913 24.2504 31.701C22.4575 33.4939 20.8637 35.4684 19.4889 37.5787L11.0737 32.721C11.951 31.3371 12.9024 29.9981 13.9278 28.711C14.5992 27.8672 14.4603 26.6381 13.6165 25.966C12.772 25.2938 11.5436 25.4334 10.8715 26.2765C5.22497 33.3665 1.61092 41.8916 0.420735 50.9309C-1.00672 61.7715 1.22106 72.9608 6.69057 82.4342C7.85253 84.4567 9.73241 85.9048 11.9838 86.5128C12.7414 86.7181 13.5105 86.8188 14.275 86.8188C15.7818 86.8188 17.2695 86.4251 18.6107 85.6545C20.6333 84.4918 22.0814 82.6127 22.6894 80.3613C23.2975 78.1091 22.9931 75.7562 21.8288 73.7306C18.2155 67.4714 16.8041 60.3707 17.7486 53.196C18.6878 46.0626 21.8914 39.5852 27.013 34.4636C33.1531 28.3235 41.3166 24.9429 49.9996 24.9429C58.6834 24.9429 66.8476 28.3235 72.987 34.4636C78.1086 39.5844 81.3114 46.0626 82.2513 53.196C82.703 56.6285 82.6145 60.0442 82.0041 63.3599L61.8229 55.726C61.4551 53.1884 60.2863 50.8393 58.4514 49.0045C53.7929 44.3459 46.2131 44.3459 41.5546 49.0045C36.8961 53.663 36.8961 61.2435 41.5546 65.902C43.8839 68.2313 46.9433 69.3955 50.0027 69.3955C53.0628 69.3955 56.1222 68.2313 58.4514 65.9013C58.781 65.5724 59.09 65.2238 59.3784 64.8599L80.6675 68.3381C80.0068 70.1905 79.1729 71.9941 78.1689 73.7336C75.7709 77.9084 77.2152 83.2559 81.3892 85.6538C83.411 86.8165 85.7647 87.1209 88.0161 86.5128C90.2675 85.9048 92.1474 84.456 93.3071 82.438C98.7781 72.9615 101.006 61.7715 99.5785 50.9316V50.9316ZM18.4437 75.6806C19.0853 76.7983 19.2539 78.0984 18.9182 79.3427C18.5817 80.5863 17.7814 81.6255 16.6645 82.2671C15.5468 82.9095 14.2467 83.0781 13.0024 82.7424C11.7588 82.4059 10.7197 81.6056 10.0757 80.4849C6.30529 73.9541 4.23009 66.7817 3.93178 59.4041H13.6226C13.9347 65.1071 15.5788 70.7192 18.4437 75.6806V75.6806ZM13.8759 52.6864C13.7523 53.621 13.6684 54.5587 13.6188 55.4971H3.93941C3.99892 54.1482 4.11565 52.7963 4.29418 51.4413C5.00371 46.0542 6.64708 40.8669 9.12435 36.107L17.5335 40.9615C15.6658 44.6275 14.4138 48.5993 13.8759 52.6864ZM44.3165 63.1394C41.1815 60.0045 41.1815 54.9027 44.3165 51.7678C47.4521 48.6321 52.5532 48.6329 55.6888 51.7678C56.3465 52.4255 56.876 53.1815 57.2658 54.0032L51.6941 51.8952C50.3139 51.3734 48.801 51.471 47.4338 52.1722C45.9553 52.9298 44.8147 54.342 44.3844 55.9487C43.9541 57.5547 44.2356 59.3469 45.1374 60.743C45.9713 62.0332 47.2317 62.8755 48.6881 63.1135L54.565 64.0733C51.4339 66.2332 47.1012 65.9234 44.3165 63.1394V63.1394ZM58.8062 60.8079C58.8009 60.8071 58.7955 60.8064 58.7902 60.8048L49.3183 59.2576C48.8659 59.1836 48.5798 58.8716 48.4188 58.6236C48.1106 58.146 48.0106 57.5082 48.1579 56.9589C48.3051 56.4095 48.7102 55.9075 49.2161 55.6481C49.3908 55.5589 49.628 55.4727 49.8935 55.4727C50.0271 55.4727 50.1682 55.4948 50.3116 55.549L59.2632 58.9349C59.2815 58.9425 59.3006 58.9494 59.3197 58.9562L68.3254 62.3628L58.8062 60.8079ZM51.9527 21.0885V11.3725C58.8146 11.6563 65.4072 13.4347 71.3573 16.5505L66.4974 24.9688C62.0151 22.6869 57.0827 21.3578 51.9527 21.0885ZM28.6434 16.5528C34.6248 13.4187 41.2136 11.6532 48.0465 11.3702V21.0885C42.9165 21.3578 37.9841 22.6869 33.5018 24.9688L28.6434 16.5528ZM69.8772 26.928L74.7387 18.5082C77.5539 20.3042 80.1945 22.4198 82.6122 24.8376C85.0292 27.2546 87.1425 29.8936 88.937 32.7142L80.5111 37.5794C79.1363 35.4684 77.5417 33.4939 75.7488 31.701C73.9391 29.8913 71.9707 28.2975 69.8772 26.928ZM82.4657 40.9615L90.8916 36.097C93.3582 40.8303 94.9886 45.9954 95.7058 51.4413C95.8835 52.7955 96.0003 54.1482 96.0605 55.4971H86.3811C86.3315 54.5587 86.2469 53.621 86.124 52.6864C85.5861 48.5993 84.3342 44.6275 82.4657 40.9615V40.9615ZM89.9212 80.4879C89.2795 81.6056 88.2404 82.4059 86.9968 82.7416C85.7532 83.0773 84.4524 82.9095 83.3355 82.2671C81.0291 80.9419 80.2303 77.987 81.554 75.6844C82.7846 73.5528 83.7894 71.3014 84.5608 68.9744L86.9411 69.3635C87.0479 69.381 87.1532 69.3894 87.2578 69.3894C88.1275 69.3894 88.911 68.8065 89.143 67.9414C89.4031 66.9717 88.8859 65.9638 87.9474 65.6083L85.6861 64.7538C86.0462 62.9907 86.2781 61.2023 86.3773 59.4041H96.0674C95.7691 66.7825 93.6939 73.9549 89.9212 80.4879V80.4879Z" fill="black"/>
<path d="M61.7203 76.6594H38.2798C37.201 76.6594 36.3267 77.5337 36.3267 78.6125V84.8633C36.3267 85.942 37.201 86.8164 38.2798 86.8164H61.7203C62.7991 86.8164 63.6742 85.942 63.6742 84.8633V78.6125C63.6742 77.5337 62.7991 76.6594 61.7203 76.6594V76.6594ZM59.7672 82.9101H40.2337V80.5656H59.7672V82.9101Z" fill="black"/>
<path d="M21.1279 55.4969C20.0491 55.4969 19.1748 56.3713 19.1748 57.4501C19.1748 58.5289 20.0491 59.4032 21.1279 59.4032H21.1745C22.2533 59.4032 23.1276 58.5289 23.1276 57.4501C23.1276 56.3713 22.2533 55.4969 21.1745 55.4969H21.1279Z" fill="black"/>
<path d="M37.2815 31.511L37.2586 31.4705C36.7185 30.5367 35.5237 30.2163 34.5899 30.7564C33.656 31.2958 33.3356 32.4906 33.8758 33.4252L33.8987 33.4648C34.2603 34.0912 34.9172 34.4414 35.5916 34.4414C35.9235 34.4414 36.2592 34.3567 36.5667 34.1797C37.5013 33.6396 37.8209 32.4456 37.2815 31.511Z" fill="black"/>
<path d="M64.4139 34.4452C65.0891 34.4452 65.7453 34.095 66.1069 33.4687L66.1298 33.4282C66.6699 32.4944 66.3495 31.2996 65.4157 30.7595C64.4818 30.2201 63.2871 30.5397 62.7469 31.4743L62.724 31.5148C62.1846 32.4486 62.5043 33.6434 63.4389 34.1828C63.7464 34.3605 64.0821 34.4452 64.4139 34.4452Z" fill="black"/>
<path d="M78.8717 59.4101C79.9505 59.4101 80.8249 58.5357 80.8249 57.4569C80.8249 56.3781 79.9505 55.5031 78.8717 55.5031H78.826C77.7472 55.5031 76.8721 56.3781 76.8721 57.4569C76.8721 58.5357 77.7472 59.4101 78.826 59.4101H78.8717Z" fill="black"/>
<path d="M43.2089 88.7702H43.1631C42.0843 88.7702 41.21 89.6445 41.21 90.7233C41.21 91.8021 42.0843 92.6765 43.1631 92.6765H43.2089C44.2877 92.6765 45.1628 91.8021 45.1628 90.7233C45.1628 89.6445 44.2877 88.7702 43.2089 88.7702Z" fill="black"/>
<path d="M56.8375 88.7702H48.8213C47.7433 88.7702 46.8682 89.6453 46.8682 90.7241C46.8682 91.8029 47.7433 92.6772 48.8213 92.6772H56.8375C57.9155 92.6772 58.7906 91.8029 58.7906 90.7241C58.7906 89.6453 57.9163 88.7702 56.8375 88.7702V88.7702Z" fill="black"/>
</g>
<defs>
<clipPath id="clip0">
<rect width="100" height="100" fill="white"/>
</clipPath>
</defs>
</svg>
