<svg width="100" height="100" viewBox="0 0 100 100" fill="none" xmlns="http://www.w3.org/2000/svg">
<path d="M87.2322 24.3973L63.7947 0.862121C63.2446 0.310516 62.4977 0 61.7188 0H22.6562C16.7328 0 11.9141 4.83322 11.9141 10.775V89.2258C11.9141 95.1668 16.7328 100 22.6562 100H77.3438C83.2672 100 88.0859 95.1668 88.0859 89.225V26.4648C88.0859 25.6897 87.7792 24.9466 87.2322 24.3973V24.3973ZM64.6484 10.0235L78.1044 23.5352H69.5312C66.8388 23.5352 64.6484 21.3303 64.6484 18.6195V10.0235ZM77.3438 94.1406H22.6562C19.9638 94.1406 17.7734 91.9357 17.7734 89.225V10.775C17.7734 8.06427 19.9638 5.85938 22.6562 5.85938H58.7891V18.6195C58.7891 24.5613 63.6078 29.3945 69.5312 29.3945H82.2266V89.225C82.2266 91.9357 80.0362 94.1406 77.3438 94.1406Z" fill="#A52422"/>
<path d="M66.8648 41.275L43.4273 47.1588C42.1242 47.4853 41.2109 48.6564 41.2109 50V64.7216H38.2812C33.5083 64.7216 29.4922 68.5722 29.4922 73.5595C29.4922 78.4057 33.4351 82.3486 38.2812 82.3486C43.1274 82.3486 47.0703 78.4057 47.0703 73.5595C47.0703 71.4553 47.0703 54.412 47.0703 52.285L64.6484 47.8721V58.8379H61.7188C56.9458 58.8379 52.9297 62.6884 52.9297 67.6757C52.9297 72.5219 56.8726 76.4648 61.7188 76.4648C66.5649 76.4648 70.5078 72.5219 70.5078 67.6757C70.5078 67.3034 70.5078 44.844 70.5078 44.1162C70.5078 42.2096 68.7119 40.8104 66.8648 41.275V41.275ZM41.2109 73.5595C41.2109 75.1747 39.8964 76.4892 38.2812 76.4892C36.7264 76.4892 35.3516 75.254 35.3516 73.5107C35.3516 71.8956 36.6661 70.581 38.2812 70.581H41.2109V73.5595ZM64.6484 67.6757C64.6484 69.2909 63.3339 70.6054 61.7188 70.6054C60.1639 70.6054 58.7891 69.3702 58.7891 67.6269C58.7891 66.0118 60.1036 64.6972 61.7188 64.6972H64.6484V67.6757Z" fill="#A52422"/>
</svg>
