<svg width="100" height="100" viewBox="0 0 100 100" fill="none" xmlns="http://www.w3.org/2000/svg">
<g clip-path="url(#clip0)">
<path d="M99.915 54.4735L98.311 49.6663L96.6663 29.8616C96.5939 28.9958 95.8688 28.3301 94.9997 28.3333H86.6663C85.7899 28.3309 85.0615 29.008 84.9997 29.882L83.3647 52.7751L77.4411 61.6667H72.7943L69.8817 54.3815C69.5822 53.6328 68.7896 53.2047 67.9994 53.3667L59.666 55.0334C58.7749 55.2116 58.1906 56.071 58.3534 56.9653L61.6867 75.2987C61.7469 75.6315 61.9081 75.9391 62.1481 76.1784L66.6663 80.6901V88.3333H64.9997C64.0793 88.3333 63.333 89.0796 63.333 90V98.3333C63.333 99.2537 64.0793 100 64.9997 100H88.333C89.2534 100 89.9997 99.2537 89.9997 98.3333V90C89.9997 89.0796 89.2534 88.3333 88.333 88.3333H86.6663V84.0234L92.8447 77.845C92.9896 77.701 93.1068 77.5317 93.1898 77.3454L99.8564 62.3454C99.9508 62.1313 99.9997 61.9002 99.9997 61.6667V55C99.9997 54.821 99.9712 54.6435 99.915 54.4735V54.4735ZM86.6663 96.6667H66.6663V91.6667H86.6663V96.6667ZM96.6663 61.3135L90.2698 75.7064L83.8213 82.1549C83.5088 82.4674 83.333 82.8914 83.333 83.3333V88.3333H69.9997V80C69.9997 79.5581 69.8239 79.1341 69.5114 78.8216L64.8801 74.1903L61.9333 57.9801L67.2995 56.9067L70.1177 63.9518C70.3708 64.585 70.9844 65 71.6663 65H78.333C78.8905 65 79.4105 64.7217 79.7197 64.2586L86.3864 54.2586C86.5475 54.0177 86.6435 53.7402 86.6663 53.4513L88.2183 31.6667H93.4665L94.9997 50.1383C95.0111 50.2702 95.0379 50.4004 95.0794 50.5265L96.6663 55.2702V61.3135Z" fill="#A52422"/>
<path d="M40.3337 55.0334L32.0003 53.3667C31.2118 53.2088 30.4232 53.6352 30.1253 54.3815L27.2054 61.6667H22.5586L16.6317 52.7751L15 29.882C14.9382 29.008 14.2098 28.3309 13.3333 28.3333H5C4.13086 28.3301 3.40576 28.9958 3.33333 29.8616L1.68864 49.6663L0.0846354 54.4767C0.0292969 54.6452 0 54.8218 0 55V61.6667C0 61.8994 0.0488281 62.1305 0.143229 62.3429L6.8099 77.3429C6.8929 77.5301 7.01009 77.6994 7.15495 77.8434L13.3333 84.0234V88.3333H11.6667C10.7463 88.3333 10 89.0796 10 90V98.3333C10 99.2537 10.7463 100 11.6667 100H35C35.9204 100 36.6667 99.2537 36.6667 98.3333V90C36.6667 89.0796 35.9204 88.3333 35 88.3333H33.3333V80.6901L37.8451 76.1784C38.0851 75.9391 38.2454 75.6315 38.3065 75.2987L41.6398 56.9653C41.8026 56.0726 41.2215 55.2148 40.3337 55.0334V55.0334ZM33.3333 96.6667H13.3333V91.6667H33.3333V96.6667ZM35.1196 74.1903L30.4883 78.8216C30.1758 79.1341 30 79.5581 30 80V88.3333H16.6667V83.3333C16.6667 82.8914 16.4909 82.4674 16.1784 82.1549L9.72982 75.7064L3.33333 61.3135V55.2702L4.91536 50.5265C4.9585 50.4012 4.98698 50.271 5 50.1383L6.5332 31.6667H11.7814L13.3333 53.4513C13.3553 53.7394 13.4505 54.0177 13.61 54.2586L20.2767 64.2586C20.5868 64.7225 21.1084 65.0008 21.6667 65H28.3333C29.0153 65 29.6289 64.585 29.882 63.9518L32.7002 56.9067L38.0664 57.9801L35.1196 74.1903Z" fill="#A52422"/>
<path d="M48.3335 0H51.6668V3.33333H48.3335V0Z" fill="#A52422"/>
<path d="M31.144 8.50099L33.5016 6.1434L35.8584 8.50099L33.5016 10.8578L31.144 8.50099Z" fill="#A52422"/>
<path d="M25 23.3333H28.3333V26.6667H25V23.3333Z" fill="#A52422"/>
<path d="M31.144 41.499L33.5016 39.1422L35.8584 41.499L33.5016 43.8558L31.144 41.499Z" fill="#A52422"/>
<path d="M64.1431 41.499L66.4998 39.1422L68.8566 41.499L66.4998 43.8558L64.1431 41.499Z" fill="#A52422"/>
<path d="M71.6665 23.3333H74.9998V26.6667H71.6665V23.3333Z" fill="#A52422"/>
<path d="M64.1431 8.50099L66.4998 6.1434L68.8566 8.50099L66.4998 10.8578L64.1431 8.50099Z" fill="#A52422"/>
<path d="M68.3332 25C68.3316 15.7528 61.4427 7.95411 52.2663 6.81072C43.0899 5.66733 34.4977 11.5381 32.2281 20.5021C29.9575 29.467 34.7191 38.7191 43.3332 42.0817V51.6667C43.3332 53.5075 44.8257 55 46.6665 55H53.3332C55.174 55 56.6665 53.5075 56.6665 51.6667V42.0817C63.7181 39.3539 68.3576 32.561 68.3332 25ZM46.6665 51.6667V48.3333H53.3332V51.6667H46.6665ZM54.9999 39.1317V30.6901L59.5116 26.1784L57.1548 23.8216L52.1548 28.8216C51.8423 29.1341 51.6665 29.5581 51.6665 30V45H48.3332V30C48.3332 29.5581 48.1574 29.1341 47.8449 28.8216L42.8449 23.8216L40.4881 26.1784L44.9999 30.6901V39.1317C38.1118 36.6968 33.9802 29.6533 35.2155 22.4528C36.4509 15.2523 42.6944 9.98943 49.9999 9.98943C57.3054 9.98943 63.5488 15.2523 64.7842 22.4528C66.0195 29.6533 61.8879 36.6968 54.9999 39.1317Z" fill="#FF8244"/>
</g>
<defs>
<clipPath id="clip0">
<rect width="100" height="100" fill="white"/>
</clipPath>
</defs>
</svg>
