<svg width="142" height="128" viewBox="0 0 142 128" fill="none" xmlns="http://www.w3.org/2000/svg">
<path d="M71 0C31.7873 0 0 28.6533 0 64C0 99.3467 31.7873 128 71 128C110.213 128 142 99.3467 142 64C142 28.6533 110.213 0 71 0ZM53.6198 90.5267H39.2423V48.82H53.6198V90.5267ZM46.3423 43.7C41.8012 43.7 38.8651 40.8 38.8651 37.2133C38.8651 33.5533 41.89 30.74 46.5272 30.74C51.1644 30.74 54.0044 33.5533 54.0931 37.2133C54.0931 40.8 51.1644 43.7 46.3423 43.7ZM106.13 90.5267H91.7527V67.4133C91.7527 62.0333 89.6671 58.38 84.4678 58.38C80.4963 58.38 78.137 60.8533 77.0942 63.2333C76.7096 64.08 76.6134 65.28 76.6134 66.4733V90.52H62.2285V62.12C62.2285 56.9133 62.0436 52.56 61.8514 48.8133H74.3429L75.0011 54.6067H75.2896C77.1829 51.8867 81.8201 47.8733 89.5783 47.8733C99.0376 47.8733 106.13 53.5867 106.13 65.8667V90.5267V90.5267Z" fill="white"/>
</svg>
