<svg width="70" height="70" viewBox="0 0 70 70" fill="none" xmlns="http://www.w3.org/2000/svg">
<path d="M67.8125 32.2H16.1875C14.9793 32.2 14 33.767 14 35.7C14 37.6331 14.9793 39.2 16.1875 39.2H67.8125C69.0207 39.2 70 37.6331 70 35.7C70 33.767 69.0207 32.2 67.8125 32.2Z" fill="black"/>
<path d="M67.2656 10.3906H2.73438C1.22418 10.3906 0 11.9576 0 13.8906C0 15.8237 1.22418 17.3906 2.73438 17.3906H67.2656C68.7758 17.3906 70 15.8237 70 13.8906C70 11.9576 68.7758 10.3906 67.2656 10.3906Z" fill="black"/>
<path d="M68.3594 54.04H29.6406C28.7345 54.04 28 55.6069 28 57.54C28 59.473 28.7345 61.04 29.6406 61.04H68.3594C69.2655 61.04 70 59.473 70 57.54C70 55.6069 69.2655 54.04 68.3594 54.04Z" fill="black"/>
</svg>
