<svg width="100" height="100" viewBox="0 0 100 100" fill="none" xmlns="http://www.w3.org/2000/svg">
<g clip-path="url(#clip0)">
<path d="M92.4779 27.1316L92.4749 27.0537C92.4314 26.0932 92.4024 25.077 92.3848 23.9463C92.3032 18.4325 87.9201 13.8717 82.4056 13.5635C70.9081 12.9218 62.0138 9.17277 54.4142 1.76541L54.3493 1.70362C51.8706 -0.569174 48.1314 -0.569174 45.6519 1.70362L45.587 1.76541C37.9874 9.17277 29.0931 12.9218 17.5956 13.5642C12.0819 13.8717 7.69802 18.4325 7.61639 23.9471C7.5996 25.0701 7.56985 26.0863 7.52636 27.0537L7.52178 27.2345C7.29824 38.9586 7.02053 53.5498 11.9018 66.7936C14.5858 74.0766 18.6508 80.4075 23.9829 85.6115C30.0559 91.538 38.0103 96.243 47.6248 99.5953C47.9376 99.7044 48.2626 99.7929 48.5938 99.8593C49.0607 99.9524 49.5306 99.9989 50.0006 99.9989C50.4706 99.9989 50.9413 99.9524 51.4075 99.8593C51.7386 99.7929 52.0659 99.7037 52.3802 99.5938C61.9833 96.2354 69.9293 91.528 75.9969 85.6023C81.3268 80.3968 85.3917 74.0644 88.078 66.7799C92.9776 53.4964 92.7007 38.8777 92.4779 27.1316ZM82.5727 64.7497C77.4244 78.7084 66.9149 88.2947 50.4439 94.0549C50.3851 94.0747 50.3226 94.0923 50.2577 94.1052C50.0876 94.1388 49.9144 94.1388 49.742 94.1045C49.6779 94.0915 49.6153 94.0747 49.5573 94.0549C33.0687 88.3054 22.5524 78.7244 17.4079 64.765C12.9089 52.5572 13.1637 39.1631 13.3888 27.3467L13.3903 27.2811C13.4361 26.2656 13.4666 25.2021 13.4834 24.0333C13.52 21.585 15.4701 19.5594 17.9229 19.4228C24.4292 19.0597 30.1452 17.8024 35.3972 15.5792C40.6424 13.359 45.3009 10.2294 49.6374 6.01192C49.8579 5.82577 50.144 5.825 50.3638 6.01192C54.7011 10.2294 59.3596 13.359 64.604 15.5792C69.856 17.8024 75.572 19.0597 82.0791 19.4228C84.5319 19.5594 86.482 21.585 86.5178 24.034C86.5354 25.209 86.5659 26.2725 86.6117 27.2811C86.836 39.1112 87.0847 52.516 82.5727 64.7497Z" fill="#A52422"/>
<path d="M49.9991 25.0801C36.257 25.0801 25.0776 36.2602 25.0776 50.0015C25.0776 63.7436 36.257 74.9237 49.9991 74.9237C63.7404 74.9237 74.9205 63.7436 74.9205 50.0015C74.9205 36.2602 63.7404 25.0801 49.9991 25.0801ZM49.9991 69.0551C39.4926 69.0551 30.9454 60.5079 30.9454 50.0015C30.9454 39.4951 39.4926 30.9478 49.9991 30.9478C60.5047 30.9478 69.0519 39.4951 69.0519 50.0015C69.0519 60.5079 60.5047 69.0551 49.9991 69.0551Z" fill="#A52422"/>
<path d="M57.1616 42.2646L45.5863 53.8399L42.4445 50.6981C41.2986 49.5522 39.4408 49.5522 38.2949 50.6981C37.1497 51.844 37.1497 53.7018 38.2949 54.847L43.5119 60.0639C44.0849 60.6369 44.8356 60.923 45.5863 60.923C46.3371 60.923 47.0878 60.6369 47.6608 60.0639L61.3113 46.4134C62.4564 45.2675 62.4564 43.4097 61.3113 42.2646C60.1653 41.1179 58.3076 41.1179 57.1616 42.2646Z" fill="#A52422"/>
</g>
<defs>
<clipPath id="clip0">
<rect width="100" height="100" fill="white"/>
</clipPath>
</defs>
</svg>
