<svg width="141" height="128" viewBox="0 0 141 128" fill="none" xmlns="http://www.w3.org/2000/svg">
<path d="M70.5 0C31.5634 0 0 28.6533 0 64C0 99.3467 31.5634 128 70.5 128C109.437 128 141 99.3467 141 64C141 28.6533 109.437 0 70.5 0ZM99.1773 52.4267C99.2067 52.9733 99.2141 53.52 99.2141 54.0533C99.2141 70.72 85.2536 89.9267 59.712 89.9267C52.1648 89.9381 44.7746 87.9703 38.4298 84.26C39.5094 84.38 40.6183 84.4267 41.7419 84.4267C48.2484 84.4267 54.2336 82.42 58.985 79.0333C56.0895 78.9817 53.2838 78.1113 50.9591 76.5435C48.6344 74.9756 46.9064 72.7884 46.0159 70.2867C48.0954 70.6456 50.2375 70.5704 52.2802 70.0667C49.1374 69.4897 46.3111 67.9438 44.2807 65.6911C42.2502 63.4383 41.1405 60.6174 41.1397 57.7067V57.5533C43.0123 58.4933 45.1567 59.0667 47.4333 59.1333C44.487 57.3529 42.4012 54.6178 41.6027 51.4875C40.8041 48.3573 41.353 45.0683 43.1372 42.2933C46.6251 46.1867 50.9749 49.3716 55.9048 51.6421C60.8347 53.9125 66.2349 55.2177 71.7558 55.4733C71.0539 52.7687 71.356 49.9294 72.6151 47.3967C73.8742 44.864 76.0197 42.7799 78.7182 41.4684C81.4166 40.1569 84.5168 39.6915 87.5367 40.1445C90.5566 40.5975 93.3271 41.9435 95.4173 43.9733C98.525 43.4152 101.505 42.3804 104.23 40.9133C103.194 43.8342 101.026 46.3145 98.1272 47.8933C100.88 47.5923 103.568 46.9205 106.102 45.9C104.241 48.4326 101.896 50.6429 99.1773 52.4267V52.4267Z" fill="white"/>
</svg>
